<?xml version="1.0" encoding="UTF-8" standalone="no"?>
<!-- Created with Inkscape (http://www.inkscape.org/) -->

<svg
   width="52.916664mm"
   height="52.916664mm"
   viewBox="0 0 52.916664 52.916664"
   version="1.1"
   id="svg5"
   sodipodi:docname="logo-heritage-pour-tous.svg"
   inkscape:version="1.3.2 (091e20e, 2023-11-25)"
   inkscape:export-filename="logo.png"
   inkscape:export-xdpi="300"
   inkscape:export-ydpi="300"
   xml:space="preserve"
   xmlns:inkscape="http://www.inkscape.org/namespaces/inkscape"
   xmlns:sodipodi="http://sodipodi.sourceforge.net/DTD/sodipodi-0.dtd"
   xmlns:xlink="http://www.w3.org/1999/xlink"
   xmlns="http://www.w3.org/2000/svg"
   xmlns:svg="http://www.w3.org/2000/svg"><sodipodi:namedview
     id="namedview7"
     pagecolor="#ffffff"
     bordercolor="#666666"
     borderopacity="1.0"
     inkscape:showpageshadow="2"
     inkscape:pageopacity="0.0"
     inkscape:pagecheckerboard="0"
     inkscape:deskcolor="#d1d1d1"
     inkscape:document-units="cm"
     showgrid="true"
     inkscape:zoom="2.56"
     inkscape:cx="122.46094"
     inkscape:cy="117.77344"
     inkscape:window-width="1680"
     inkscape:window-height="959"
     inkscape:window-x="0"
     inkscape:window-y="0"
     inkscape:window-maximized="1"
     inkscape:current-layer="g1445"
     showguides="false"><inkscape:grid
       type="xygrid"
       id="grid9"
       empspacing="4"
       spacingx="2.6458333"
       spacingy="2.6458333"
       originx="-291.04147"
       originy="-291.04178"
       units="cm"
       visible="true" /></sodipodi:namedview><defs
     id="defs2"><marker
       markerWidth="1.05"
       markerHeight="0.99999994"
       refX="0"
       refY="0"
       orient="auto-start-reverse"
       id="marker21"
       viewBox="0 0 1.05 1"
       inkscape:stockid="Ribbon cap, rounded"
       style="overflow:visible"
       preserveAspectRatio="xMidYMid"
       inkscape:isstock="true"
       inkscape:collect="always"><path
         style="fill:context-stroke;stroke-linecap:butt"
         d="M 0,-1 H 2 A 1.11,1.11 90 0 0 2,1 H 0 L -0.1,0 Z"
         sodipodi:nodetypes="sssssscsss"
         transform="scale(0.5)"
         id="path21" /></marker><marker
       markerWidth="1.05"
       markerHeight="0.99999994"
       refX="0"
       refY="0"
       orient="auto-start-reverse"
       id="CapRibbon2"
       viewBox="0 0 1.05 1"
       inkscape:stockid="Ribbon cap, rounded"
       style="overflow:visible"
       preserveAspectRatio="xMidYMid"
       inkscape:isstock="true"
       inkscape:collect="always"><path
         style="fill:context-stroke;stroke-linecap:butt"
         d="M 0,-1 H 2 A 1.11,1.11 90 0 0 2,1 H 0 L -0.1,0 Z"
         sodipodi:nodetypes="sssssscsss"
         transform="scale(0.5)"
         id="path63" /></marker><marker
       style="overflow:visible"
       id="ArrowTriangleStylized"
       refX="0"
       refY="0"
       orient="auto-start-reverse"
       inkscape:stockid="Stylized triangle arrow"
       markerWidth="1"
       markerHeight="1"
       viewBox="0 0 1 1"
       inkscape:isstock="true"
       inkscape:collect="always"
       preserveAspectRatio="xMidYMid"><path
         transform="scale(0.5)"
         style="fill:context-stroke;fill-rule:evenodd;stroke:context-stroke;stroke-width:1pt"
         d="m 6,0 c -3,1 -7,3 -9,5 0,0 0,-4 2,-5 -2,-1 -2,-5 -2,-5 2,2 6,4 9,5 z"
         id="path4" /></marker><rect
       x="269.24222"
       y="315.66666"
       width="34.695137"
       height="22.873423"
       id="rect700" /><inkscape:path-effect
       effect="bend_path"
       id="path-effect1728"
       is_visible="true"
       lpeversion="1"
       bendpath="m 106.45176,138.80838 h 45.84403"
       prop_scale="1.02"
       scale_y_rel="false"
       vertical="false"
       hide_knot="false" /><linearGradient
       inkscape:collect="always"
       id="linearGradient3309"><stop
         style="stop-color:#353507;stop-opacity:0.80000001;"
         offset="0"
         id="stop3305" /><stop
         style="stop-color:#fff907;stop-opacity:0;"
         offset="1"
         id="stop3307" /></linearGradient><filter
       y="-0.97469288"
       height="2.9493859"
       inkscape:menu-tooltip="Darkens the edge with an inner blur and adds a flexible glow"
       inkscape:menu="Shadows and Glows"
       inkscape:label=""
       style="color-interpolation-filters:sRGB"
       id="filter2325"
       x="-0.24361035"
       width="1.4872206"><feGaussianBlur
         stdDeviation="5"
         result="result6"
         id="feGaussianBlur2315" /><feComposite
         result="result8"
         in="SourceGraphic"
         operator="atop"
         in2="result6"
         id="feComposite2317" /><feComposite
         result="result9"
         operator="over"
         in2="SourceAlpha"
         in="result8"
         id="feComposite2319" /><feColorMatrix
         values="1 0 0 0 0 0 1 0 0 0 0 0 1 0 0 0 0 0 1 0"
         result="result10"
         id="feColorMatrix2321" /><feBlend
         in="result10"
         mode="color-dodge"
         in2="result6"
         id="feBlend2323" /></filter><radialGradient
       inkscape:collect="always"
       xlink:href="#linearGradient3309"
       id="radialGradient3"
       gradientUnits="userSpaceOnUse"
       gradientTransform="matrix(3.7349921e-7,1.4999999,-0.66666659,2.0228153e-8,80.768722,49.957749)"
       cx="24.351948"
       cy="125.1771"
       fx="24.351948"
       fy="125.1771"
       r="15.875" /><radialGradient
       inkscape:collect="always"
       xlink:href="#linearGradient3309"
       id="radialGradient5"
       gradientUnits="userSpaceOnUse"
       gradientTransform="matrix(-3.7349921e-7,-1.4999999,0.66666659,-2.0228153e-8,-86.134058,170.63859)"
       cx="24.351948"
       cy="125.1771"
       fx="24.351948"
       fy="125.1771"
       r="15.875" /><marker
       style="overflow:visible"
       id="ArrowTriangleStylized-4"
       refX="0"
       refY="0"
       orient="auto-start-reverse"
       inkscape:stockid="Stylized triangle arrow"
       markerWidth="1"
       markerHeight="1"
       viewBox="0 0 1 1"
       inkscape:isstock="true"
       inkscape:collect="always"
       preserveAspectRatio="xMidYMid"><path
         transform="scale(0.5)"
         style="fill:context-stroke;fill-rule:evenodd;stroke:context-stroke;stroke-width:1pt"
         d="m 6,0 c -3,1 -7,3 -9,5 0,0 0,-4 2,-5 -2,-1 -2,-5 -2,-5 2,2 6,4 9,5 z"
         id="path4-2" /></marker></defs><g
     inkscape:label="Calque 1"
     inkscape:groupmode="layer"
     id="layer1"
     transform="translate(-57.916398,-57.916873)"><g
       id="g1445"
       transform="matrix(0.89341749,0,0,0.89341749,86.100008,-13.875652)"><path
         id="path1"
         style="fill:#a46521;fill-opacity:1;stroke-width:0.510151"
         d="m -1.8917034,83.479263 c -8.3380026,-0.001 -16.3029326,3.97806 -21.3388126,10.66131 -3.997024,5.304585 -5.799894,11.419047 -5.289588,17.942367 0.33115,4.23282 1.986,8.94693 4.424282,12.6042 3.867436,5.80098 10.253977,10.01876 17.2141496,11.4948 -9.93e-4,-0.0138 -0.0019,-0.0229 -0.0029,-0.037 -0.01559,-0.217 0.343248,-0.27111 0.533875,-0.37596 0.03913,-0.0215 0.08029,-0.0386 0.122045,-0.0544 -0.0806,-0.0799 -0.155733,-0.16497 -0.222689,-0.25739 -0.07292,-0.10065 -0.134309,-0.20938 -0.201287,-0.31408 -0.203249,-0.37076 -0.299809,-0.77857 -0.362087,-1.19211 -0.107226,0.0198 -0.23733,-0.0142 -0.442486,-0.0746 -0.942156,-0.27718 -2.8056346,-0.93405 -3.4913006,-1.23086 -1.634672,-0.70769 -4.593345,-2.44122 -4.715801,-2.76308 -0.09013,-0.23697 1.065999,-1.15477 2.758451,-2.18872 2.329923,-1.42341 5.2337036,-2.45313 8.2186706,-2.9152 1.185606,-0.18352 4.43329332,-0.18397 5.57243133,-5.8e-4 3.84285397,0.61865 7.37422697,2.11679 10.22576407,4.3381 0.503957,0.39258 0.758878,0.64195 0.758878,0.74095 0,0.3531 -3.2314811,2.20761 -5.2849601,3.03319 -0.598676,0.2407 -1.311961,0.49244 -1.922645,0.68658 -0.0031,0.2434 -0.193632,0.67727 -0.518836,1.67219 -0.02882,0.0882 -0.115006,0.1201 -0.216905,0.13535 0.0088,0.006 0.01777,0.0111 0.02661,0.0168 0.213943,0.1166 0.396948,0.26439 0.558747,0.43439 5.1463441,-1.36718 9.9812821,-4.30085 13.4116631,-8.1562 3.674427,-4.12963 5.879325,-8.99308 6.6772,-14.72813 0.167555,-1.20433 0.192775,-4.7308 0.04222,-5.9403 -0.531963,-4.27398 -2.152148,-8.510162 -4.563678,-11.933817 -3.153316,-4.47675 -7.224408,-7.71719 -12.2108781,-9.71907 -3.239149,-1.30043 -6.240742,-1.87808 -9.7601423,-1.87869 z m -0.01735,0.60907 c 0.05358,0 0.428817,0.39284 0.8334933,0.87282 0.67607102,0.80186 0.76120002,0.87636 1.05155502,0.92026 0.25638101,0.0388 0.37582201,0.11748 0.63162701,0.41704 0.173424,0.20309 0.315235,0.40753 0.315235,0.45463 0,0.0341 -0.102587,0.16758 -0.230787,0.31813 0.302866,1.1e-4 0.55888597,0.0463 0.77738797,0.11973 -8.08e-4,-0.0187 6.21e-4,-0.0319 -0.0012,-0.0538 -0.01153,-0.14197 -0.08818,-0.36724 -0.170054,-0.5009 -0.0819,-0.13366 -0.148652,-0.2823 -0.148652,-0.3297 0,-0.10999 0.489158,-0.1119 0.690625,-0.003 0.182427,0.0985 0.366136,0.51098 0.366136,0.8225 0,0.10211 -0.05457,0.26982 -0.125516,0.44307 0.152586,0.17117 0.230934,0.37021 0.238306,0.57089 0.05849,-0.0341 0.100778,-0.0609 0.170054,-0.10006 0.31519,-0.17801 0.396791,-0.26328 0.396791,-0.41646 0,-0.24651 -0.159377,-0.55433 -0.40836,-0.78896 -0.22592,-0.21289 -0.260341,-0.46299 -0.06363,-0.46099 0.07267,6.6e-4 0.334847,0.0493 0.58304,0.10816 0.526525,0.12492 0.670993,0.27119 0.837542,0.84911 0.10799,0.37461 0.10727,0.42935 -0.0098,0.67848 -0.0701,0.14902 -0.281062,0.40677 -0.468514,0.57321 -0.05407,0.048 -0.09395,0.0761 -0.138241,0.11105 0.0295,0.0108 0.0591,0.0213 0.0885,0.0324 0.105264,0.0426 0.20633,0.095 0.308873,0.14403 0.0591,-0.0754 0.216155,-0.19801 0.43728,-0.32275 0.268077,-0.15122 0.508225,-0.3092 0.533875,-0.3511 0.09256,-0.15107 -0.05715,-0.53386 -0.347626,-0.88844 -0.287901,-0.35141 -0.361509,-0.50711 -0.222689,-0.53735 0.04627,-0.0101 0.116537,-0.006 0.209964,0.009 0.155716,0.0253 0.457345,0.0983 0.670959,0.16253 0.337928,0.10149 0.403466,0.15426 0.503798,0.4072 0.307266,0.77462 0.22841,1.21423 -0.303667,1.68666 -0.189805,0.16853 -0.399959,0.30288 -0.466779,0.29788 -0.0703,-0.005 -0.170746,-0.0272 -0.279952,-0.0578 0.100254,0.0661 0.200035,0.13323 0.299618,0.20013 0.188806,0.13729 0.394897,0.24461 0.599236,0.35572 0.290329,0.15513 0.541355,0.36978 0.787798,0.58536 0.158172,0.13501 0.300009,0.29035 0.472564,0.40778 0.153559,0.10597 0.311636,0.20308 0.465622,0.30829 0.05158,0.031 0.05406,0.0362 0.07346,0.0503 0.01479,10e-4 0.01852,-0.002 0.07114,0.0133 0.239318,0.0727 0.482085,0.13459 0.727644,0.1822 0.214885,0.0279 0.426782,0.0495 0.640882,0.0879 0.221361,0.0584 0.430689,0.14834 0.6426171,0.23252 0.288991,0.0927 0.533474,0.26044 0.763505,0.45347 0.08809,0.0989 0.14479,0.12987 0.260864,0.20708 0.01545,-0.01 0.250785,0.0985 0.361508,0.14229 0.165912,0.0718 0.338263,0.12295 0.507847,0.18451 0.125859,0.0628 0.258713,0.10532 0.391586,0.14981 0.06332,0.0157 0.120463,0.0418 0.181043,0.0619 -0.04421,-0.0529 -0.08575,-0.10423 -0.08271,-0.12494 0.01077,-0.0735 0.186909,-0.1387 0.530983,-0.1955 0.283241,-0.0468 0.547806,-0.13405 0.588246,-0.19435 0.11192,-0.16685 0.0165,-0.81125 -0.163691,-1.10535 -0.193246,-0.3154 -0.264864,-0.28838 -0.319284,0.12089 -0.02263,0.17016 -0.09738,0.3967 -0.166583,0.50322 -0.115529,0.17785 -0.790918,0.55906 -0.993135,0.56106 -0.146133,0.001 -1.008752,-0.67786 -1.008752,-0.79416 0,-0.0737 0.117809,-0.12469 0.358616,-0.15559 0.785664,-0.10069 0.809181,-0.11591 0.834071,-0.54313 0.01944,-0.33389 -0.01268,-0.4369 -0.245247,-0.78549 -0.147257,-0.22073 -0.267805,-0.43197 -0.267805,-0.46967 0,-0.0361 0.0176,-0.0578 0.04859,-0.0665 0.216867,-0.0609 1.098249,0.49401 1.324565,0.88093 0.116826,0.19977 0.18843,0.24934 0.314079,0.21864 0.194049,-0.0474 0.975948,0.54095 1.168394,0.87918 0.0705,0.1239 0.209173,0.23254 0.326803,0.25624 0.520374,0.10498 2.895096,2.54686 3.822732,3.930325 0.154048,0.22975 0.473011,0.66532 0.708556,0.96826 0.235539,0.30294 0.452637,0.62832 0.482397,0.72302 0.02979,0.0947 0.181604,0.34435 0.337214,0.5547 0.335086,0.45293 0.621622,1.00705 0.582462,1.12559 -0.01535,0.0465 -0.160828,0.0866 -0.323332,0.0896 -0.268468,0.005 -0.311963,0.0351 -0.476613,0.335477 -0.09966,0.18181 -0.287272,0.395655 -0.417036,0.475455 -0.06643,0.0409 -0.117376,0.0582 -0.172945,0.0833 0.07605,0.12547 0.142078,0.25745 0.209964,0.38811 0.07653,-0.007 0.123779,-0.0208 0.228473,-0.0208 h 0.37539 l 0.257972,-0.571465 c 0.141924,-0.31414 0.290664,-0.570897 0.330274,-0.570897 0.172926,0 0.638323,0.753532 0.799367,1.294482 0.03117,0.10472 0.191277,0.477 0.355724,0.82713 0.164445,0.35013 0.3185,0.75834 0.34242,0.90696 0.04139,0.25719 0.03473,0.26751 -0.13824,0.21401 -0.499956,-0.15471 -0.505791,-0.15358 -0.725909,0.21401 -0.09816,0.16394 -0.246265,0.31594 -0.371919,0.40489 0.0916,0.1735 0.176074,0.35074 0.245825,0.53445 0.0012,0.004 0.0022,0.007 0.0035,0.011 0.0055,0.009 0.0091,0.0195 0.01446,0.0289 0.138156,-0.062 0.258262,-0.19806 0.452898,-0.48181 0.201645,-0.29399 0.340723,-0.42011 0.480082,-0.43671 0.176023,-0.021 0.213055,0.0217 0.362087,0.41878 0.09131,0.24324 0.184422,0.57543 0.207072,0.73863 0.0451,0.32476 0.08218,0.31314 -0.482975,0.15444 -0.120259,-0.0338 -0.197146,0.008 -0.301932,0.16311 -0.03819,0.0567 -0.119288,0.14607 -0.186827,0.22905 0.176936,0.058 0.336729,0.17839 0.463887,0.35283 0.17656,-0.20605 0.308763,-0.32044 0.415301,-0.32044 0.224666,0 0.292012,0.12892 0.412408,0.78664 0.106304,0.58069 0.05118,0.73426 -0.212856,0.59172 -0.132465,-0.0715 -0.244837,-0.0956 -0.340107,-0.0729 -0.0013,0.1249 -0.01192,0.25765 -0.03355,0.39853 -0.0065,0.0423 -0.0126,0.0849 -0.01909,0.12725 -0.05599,0.32876 -0.122255,0.65777 -0.244091,0.96942 -0.09158,0.19902 -0.097,0.44021 -0.155014,0.64955 -0.0075,0.0347 -0.0396,0.22643 -0.04974,0.21864 7.1e-5,0.004 -4.49e-4,0.0289 0,0.0214 -1.67e-4,0.0186 -4.11e-4,0.0375 -5.78e-4,0.0561 -0.0015,0.12845 -0.0038,0.25694 -0.01099,0.38522 -0.01037,0.16798 -0.02606,0.33539 -0.05379,0.50149 0.137397,-0.15458 0.275192,-0.31019 0.378282,-0.46331 0.162177,-0.2409 0.32111,-0.43786 0.35341,-0.43786 0.03233,0 0.139536,0.14532 0.238306,0.32333 0.219031,0.39478 0.806823,1.0342 1.210619,1.31647 0.164116,0.11472 0.298461,0.24362 0.298461,0.28632 0,0.0427 -0.267423,0.32847 -0.594609,0.63509 -0.327185,0.30661 -0.704795,0.72944 -0.838699,0.93993 -0.133898,0.21048 -0.282115,0.3824 -0.329695,0.38233 -0.04757,-8e-5 -0.1819,-0.15226 -0.298461,-0.33838 -0.09421,-0.15041 -0.370232,-0.45648 -0.656499,-0.7473 -0.01311,0.1179 -0.01873,0.23653 -0.0052,0.35919 0.0025,0.16267 0.0054,0.32591 0.01793,0.48818 0.0076,0.074 0.0237,0.14808 0.05032,0.21864 0.07685,0.23149 0.16199,0.46226 0.175838,0.70856 0.0049,0.0106 0.01674,0.0398 0.01735,0.0399 0.04422,0.1344 0.05304,0.18833 0.100065,0.29961 0.108145,0.2474 0.189108,0.50252 0.217484,0.76814 0.630464,-0.45723 0.709727,-0.47823 0.709712,-0.22269 -1.5e-5,0.25636 -0.155571,1.09384 -0.375968,2.02444 -0.647833,2.7355 -1.657818,5.07023 -3.259936,7.53441 -0.372186,0.57246 -0.724114,1.05923 -0.782014,1.08163 -0.0585,0.0226 -0.347982,-0.15203 -0.651293,-0.39332 -0.920127,-0.73195 -2.469457,-1.80805 -3.461802,-2.40446 -2.784488,-1.67352 -5.4716351,-2.73489 -8.7953491,-3.47337 -1.772432,-0.39381 -2.58633,-0.72154 -3.488409,-1.40554 -1.39436598,-1.05729 -2.00729498,-2.86765 -1.83009898,-5.40412 0.123149,-1.76269 0.584142,-2.9222 1.55246101,-3.90486 0.44132397,-0.44788 0.67826697,-0.61439 1.32109497,-0.92836 0.956629,-0.46724 1.456468,-0.57531 3.574014,-0.77333 l 1.611459,-0.15097 0.328539,0.18914 c 0.764245,0.4394 2.1383571,0.53492 2.9875031,0.20765 0.506108,-0.19506 0.871597,-0.46963 1.660624,-1.24648 0.75021,-0.73864 0.748549,-0.74503 -0.266649,-0.93298 -0.811443,-0.14996 -1.347131,-0.15253 -1.959663,-0.006 -0.762507,0.18134 -1.2719831,0.48344 -2.5351841,1.50156 -0.152464,0.12284 -0.250545,0.12337 -1.596999,0.0121 -1.728888,-0.14267 -2.76464,-0.0983 -3.788027,0.16138 -1.001354,0.25407 -1.81787797,0.67715 -2.55195798,1.32283 -0.331361,0.29147 -0.628498,0.51387 -0.660548,0.49397 -0.09914,-0.0618 -0.06187,-1.71329 0.0509,-2.25003 0.229702,-1.09326 0.720587,-1.97474 1.56113601,-2.80357 0.79085297,-0.77985 1.63035897,-1.22512 2.91230997,-1.54436 l 0.633941,-0.15733 0.715497,0.17642 c 1.045908,0.25771 1.98455,0.13066 2.708129,-0.36614 0.453853,-0.31161 1.6757351,-1.762782 1.5501471,-1.841082 -0.1830751,-0.1141 -1.4928841,-0.17222 -2.0400621,-0.0902 -1.034551,0.15488 -1.921199,0.7421 -2.409091,1.595252 l -0.261442,0.45637 -1.097828,0.0428 c -1.260638,0.0489 -1.728901,0.15573 -2.64566197,0.60502 -0.534407,0.2619 -0.75758701,0.43341 -1.33439801,1.02553 -0.380943,0.39107 -0.71120702,0.6805 -0.73400702,0.6432 -0.08311,-0.13562 -0.2077033,-1.53386 -0.2759033,-3.096825 -0.03828,-0.879587 -0.104217,-1.957617 -0.146917,-2.395777 -0.07778,-0.79976 -0.181972,-1.10559 -0.257972,-0.75657 -0.07585,0.34818 -0.201768,1.86055 -0.193768,2.32696 0.0168,0.985127 -0.221291,3.776402 -0.331431,3.887502 -0.01816,0.0183 -0.338198,-0.27478 -0.711448,-0.65129 -0.551126,-0.55593 -0.797097,-0.74236 -1.309527,-0.99198 -0.911976,-0.44426 -1.381624,-0.55171 -2.664749,-0.60791 l -1.127327,-0.0492 -0.21864,-0.38059 c -0.489596,-0.851402 -1.23347,-1.406102 -2.1482256,-1.601622 -0.730296,-0.15614 -2.23101,-0.11726 -2.40909,0.0625 -0.06882,0.0694 1.310844,1.637672 1.624184,1.846282 0.719576,0.47906 1.5351086,0.58499 2.6404546,0.34242 0.755326,-0.16573 0.784142,-0.16663 1.316468,-0.0382 1.395385,0.33697 2.347115,0.88398 3.249525,1.86712 0.953336,1.03866 1.409014,2.30485 1.409014,3.91527 0,0.72433 -0.01367,0.80284 -0.137084,0.80284 -0.07525,0 -0.213441,-0.10465 -0.307137,-0.23252 -0.24514,-0.33447 -1.016606,-0.89135 -1.645586,-1.18748 -1.208322,-0.56896 -2.503286,-0.71157 -4.884698,-0.53793 l -1.5004026,0.10932 -0.639146,-0.5171 c -1.147597,-0.92877 -2.11176,-1.27942 -3.270926,-1.18922 -0.566789,0.0441 -1.426599,0.22766 -1.645585,0.3511 -0.07105,0.0401 0.156739,0.29452 0.766975,0.85721 1.131995,1.04373 1.619605,1.27429 2.700611,1.27829 0.604556,0.002 1.625699,-0.24878 1.841089,-0.45289 0.153656,-0.14561 0.188714,-0.14674 1.513706,-0.0347 2.5063116,0.21188 3.5589086,0.45879 4.3901546,1.029 1.260286,0.86451 1.852711,1.72428 2.226891,3.23043 0.147256,0.59298 0.170878,0.88508 0.171788,2.17021 0.0013,1.69365 -0.07676,2.13976 -0.541394,3.10781 -0.3747,0.78074 -1.263618,1.6915 -2.010564,2.05915 -0.682286,0.33582 -1.409444,0.5808 -2.178304,0.73459 -1.758982,0.35182 -3.9969396,1.01332 -5.5313626,1.63459 -2.323771,0.94084 -5.061475,2.549 -7.061267,4.14838 -0.394476,0.31548 -0.767726,0.57411 -0.830022,0.57437 -0.0623,2.5e-4 -0.249201,-0.19623 -0.415301,-0.43613 -1.852209,-2.67529 -3.037288,-5.34871 -3.752165,-8.44656 -0.298969,-0.29094 -0.596225,-0.58363 -0.898854,-0.87109 -0.459836,-0.40216 -0.744412,-0.92514 -0.934716,-1.49578 -0.113248,-0.41997 -0.212979,-0.84271 -0.293255,-1.27019 -0.07477,-0.37199 -0.126589,-0.75846 0.0052,-1.12617 0.03662,-0.10216 0.09104,-0.19704 0.136505,-0.29557 0.171059,-0.32363 0.461676,-0.53748 0.74731,-0.75021 0.09788,-0.0702 0.185515,-0.15297 0.273011,-0.23541 0.138588,-0.15095 0.284817,-0.29499 0.433231,-0.4367 0.127757,-0.14562 0.241447,-0.28394 0.289207,-0.36614 0.107886,-0.18572 0.235422,-0.33779 0.283422,-0.33779 0.02648,0 0.0758,0.0526 0.130721,0.12667 0.0634,-0.0684 0.121545,-0.14224 0.175259,-0.21979 0.01735,-0.18511 0.03862,-0.37008 0.04569,-0.55586 5.9e-5,-0.0189 0.0016,-0.0378 0.0017,-0.0567 -0.07651,0.0135 -0.172436,0.0208 -0.367292,0.0208 -0.28375,0 -0.538566,-0.023 -0.566266,-0.0509 -0.08721,-0.0881 -0.05411,-0.90448 0.04049,-1.00008 0.04984,-0.0503 0.219972,-0.0914 0.378282,-0.0914 0.277076,0 0.295264,0.0157 0.476034,0.42803 0.03012,0.0686 0.02913,0.0992 0.05437,0.16658 0.01077,-0.20188 0.02586,-0.40336 0.04454,-0.60502 0.0067,-0.13922 0.02472,-0.27521 0.04396,-0.41125 -0.07075,-0.0585 -0.149229,-0.0686 -0.300775,-0.0631 -0.16293,0.006 -0.364017,0.0229 -0.447113,0.0382 -0.13898,0.0255 -0.149543,-0.008 -0.130143,-0.42687 0.02822,-0.61009 0.159097,-0.80226 0.547757,-0.80226 0.235354,0 0.345886,0.0706 0.591138,0.32391 0.07025,-0.1685 0.140872,-0.33682 0.208229,-0.50669 0.01203,-0.0309 0.02782,-0.0602 0.04049,-0.0908 -0.175141,-0.23785 -0.348249,-0.28497 -0.608491,-0.14923 -0.30963,0.16154 -0.536189,0.15298 -0.536189,-0.0202 0,-0.26658 0.236233,-0.93718 0.381753,-1.08395 0.08802,-0.0888 0.249934,-0.14807 0.40431,-0.14807 0.21684,0 0.31145,0.0629 0.599236,0.39968 0.06106,0.0715 0.105836,0.12114 0.150966,0.16947 0.0044,-0.009 0.009,-0.0177 0.0133,-0.0266 0.08437,-0.17493 0.180712,-0.34331 0.28053,-0.50958 -0.05643,-0.0567 -0.115626,-0.10949 -0.163691,-0.17758 -0.18874,-0.26736 -0.356248,-0.29277 -0.829444,-0.12436 -0.4069,0.14481 -0.444628,0.0597 -0.237728,-0.53966 0.182,-0.52723 0.375994,-0.71434 0.73979,-0.71434 0.21925,0 0.328789,0.0659 0.631049,0.3806 0.185369,0.193 0.292398,0.28445 0.40084,0.33201 0.10335,-0.16624 0.213692,-0.32714 0.326804,-0.48645 -0.116817,-0.0879 -0.249493,-0.20795 -0.426291,-0.3991 l -0.288628,-0.31177 -0.333166,0.12841 c -0.675236,0.26013 -0.725608,0.16255 -0.327382,-0.6351 l 0.265492,-0.53156 h 0.350518 c 0.31923,0 0.379002,0.0311 0.662862,0.343 0.284966,0.31309 0.342612,0.34242 0.667488,0.34242 0.0937,0 0.147979,0.009 0.203023,0.0185 0.0875,-0.11342 0.172423,-0.22878 0.255659,-0.34531 -0.146899,0.0108 -0.318089,-0.0957 -0.563375,-0.3592 -0.384126,-0.412715 -0.48555,-0.440195 -0.978096,-0.264905 -0.45455,0.161765 -0.521967,0.0626 -0.292677,-0.432067 0.29142,-0.62873 0.413755,-0.74963 0.760035,-0.74963 v 5.8e-4 c 0.371206,0 0.537255,0.0865 0.894805,0.46562 0.206876,0.21934 0.339742,0.29557 0.513052,0.29557 0.05835,0 0.112924,0.006 0.159642,0.0156 0.01141,-0.0316 0.0252,-0.0628 0.03644,-0.0943 0.02949,-0.0881 0.0611,-0.17554 0.09197,-0.26318 0.007,-0.026 0.018,-0.051 0.02545,-0.0769 -0.193424,-0.0771 -0.413958,-0.27336 -0.56858,-0.52288 -0.12571,-0.20288 -0.159655,-0.21473 -0.479505,-0.17063 -0.189286,0.0261 -0.437606,0.0681 -0.551806,0.0937 -0.176806,0.0396 -0.20765,0.0223 -0.20765,-0.118 0,-0.16597 0.475844,-0.98562 0.632784,-1.08973 0.0473,-0.0314 0.111962,-0.0514 0.184514,-0.0601 v 5.8e-4 c 0.217655,-0.0264 0.506987,0.0431 0.618902,0.17294 0.452021,0.52443 0.560561,0.63228 0.750201,0.65592 0.07483,-0.17319 0.159498,-0.34213 0.251032,-0.50785 -0.128901,-0.0979 -0.253464,-0.21944 -0.340107,-0.35398 -0.21906,-0.34014 -0.283184,-0.36197 -0.73979,-0.25566 -0.20652,0.0481 -0.399761,0.0627 -0.429761,0.0324 -0.07203,-0.0727 0.254524,-0.68905 0.51363,-0.96884 0.14438,-0.15571 0.31203,-0.23254 0.473721,-0.23079 0.161691,0.002 0.317512,0.0825 0.438437,0.2412 0.391432,0.51376 0.462768,0.61617 0.659969,0.62815 0.0045,-0.008 0.0094,-0.0153 0.01388,-0.0231 0.08842,-0.1809 0.209596,-0.33987 0.331431,-0.49859 -0.176638,-0.10578 -0.322793,-0.22608 -0.413566,-0.374245 -0.185306,-0.30243 -0.171337,-0.30042 -0.850267,-0.14518 -0.450656,0.10303 -0.180152,-0.35885 0.840434,-1.4362 0.31632,-0.33391 0.568215,-0.50675 0.691782,-0.51479 0.123568,-0.008 0.118474,0.14871 -0.07866,0.47488 -0.17067,0.28245 -0.186472,0.46686 -0.06999,0.804 0.0682,0.1973 0.234568,0.3124 0.515945,0.36382 0.08131,-0.0889 0.161527,-0.17858 0.246982,-0.26376 0.09344,-0.0825 0.189492,-0.16121 0.284579,-0.2412 -0.01548,-0.008 -0.03165,-0.0123 -0.04685,-0.0202 -0.42462,-0.22148 -0.738193,-0.84383 -0.651293,-1.29218 0.059,-0.30427 0.943924,-1.18717 1.252264,-1.24937 0.12389,-0.025 0.254535,-0.12503 0.315235,-0.24178 0.115641,-0.22204 0.530393,-0.62963 0.975783,-0.95843 0.23573,-0.17402 0.319869,-0.19985 0.426869,-0.13245 0.112126,0.0706 0.147859,0.0482 0.226159,-0.14229 0.05618,-0.13682 0.303434,-0.37646 0.625843,-0.6056 0.392355,-0.27884 0.645312,-0.40364 0.746153,-0.37828 0.100841,0.0254 0.04979,0.20109 -0.167162,0.52404 -0.253986,0.37816 -0.382389,0.77092 -0.324489,0.99371 0.03072,0.11855 0.229928,0.20219 0.528091,0.27475 0.08596,-0.0558 0.173769,-0.10873 0.267227,-0.15154 0.117646,-0.0548 0.232105,-0.11618 0.347047,-0.17642 -0.151966,-0.11739 -0.291237,-0.2369 -0.342998,-0.31466 -0.22269,-0.33442 -0.234846,-0.93167 -0.02603,-1.27713 0.13749,-0.22744 1.075546,-0.863 1.273665,-0.863 0.16445,0 0.09276,0.26261 -0.17468,0.64204 -0.19036,0.27021 -0.263757,0.45597 -0.263757,0.6646 0,0.34275 0.141178,0.45813 0.729958,0.59519 0.01543,0.004 0.01895,0.008 0.03355,0.0116 0.04249,-0.0133 0.08385,-0.0287 0.12725,-0.0399 0.15516,-0.0485 0.311335,-0.0935 0.467358,-0.13939 -0.234064,-0.15086 -0.488602,-0.36482 -0.561639,-0.50727 -0.1378,-0.26869 -0.153428,-0.87147 -0.03181,-1.22335 0.06992,-0.20237 0.183437,-0.29476 0.620638,-0.50611 0.323944,-0.15659 0.544812,-0.24259 0.67038,-0.25276 0.20928,-0.017 0.154029,0.17646 -0.130721,0.60328 -0.18524,0.27764 -0.264335,0.48115 -0.264335,0.68137 0,0.28044 0.0098,0.28997 0.52867,0.52115 0.223549,0.0996 0.374532,0.19766 0.452897,0.27186 0.169703,-0.059 0.339165,-0.11927 0.508425,-0.17989 -0.08809,-0.0382 -0.179253,-0.0934 -0.289785,-0.17873 -0.460256,-0.35511 -0.628458,-0.71563 -0.569158,-1.22161 0.02496,-0.21278 0.106086,-0.46888 0.179886,-0.56858 0.12011,-0.16227 1.045147,-0.60649 1.2840766,-0.61659 0.17516,-0.007 0.09598,0.22741 -0.2076496,0.61486 -0.21498,0.27431 -0.301932,0.45803 -0.301932,0.63799 0,0.23598 0.03773,0.27366 0.5662666,0.56626 0.246084,0.13624 0.418674,0.25621 0.496278,0.32912 0.14419,-0.0595 0.289956,-0.11412 0.43728,-0.16485 -0.0624,-0.0298 -0.124312,-0.0694 -0.192033,-0.1232 -0.522246,-0.41521 -0.684841,-1.03676 -0.447691,-1.71152 0.08261,-0.23504 0.151293,-0.28683 0.579569,-0.43555 0.2562,-0.089 0.481432,-0.14419 0.642617,-0.16253 0.161185,-0.0183 0.257973,4.9e-4 0.257973,0.0601 0,0.0393 -0.135494,0.23008 -0.301354,0.4234 -0.329416,0.38476 -0.441286,0.68075 -0.325646,0.86878 0.04109,0.0668 0.283979,0.23874 0.539659,0.38233 0.163155,0.0916 0.271504,0.16621 0.34647,0.2331 0.12114,-0.0655 0.244746,-0.12637 0.36787,-0.18799 -0.418909,-0.36079 -0.576846,-0.6869 -0.527512,-1.10766 0.06114,-0.5206 0.227657,-0.80756 0.522307,-0.90116 0.294259,-0.0935 0.676939,-0.15072 0.869933,-0.14056 0.06433,0.003 0.107881,0.0142 0.119731,0.0335 0.02387,0.039 -0.09136,0.25141 -0.255658,0.47198 -0.425138,0.57072 -0.405901,0.69568 0.257393,1.13716 0.07761,-0.0444 0.153492,-0.0919 0.231944,-0.13477 0.05788,-0.0327 0.118455,-0.0604 0.178151,-0.0897 -0.215326,-0.34813 -0.31235,-0.70676 -0.256237,-1.00875 0.08436,-0.45364 0.251037,-0.58997 0.782593,-0.63857 0.55323,-0.0506 0.593423,0.0227 0.275903,0.50669 -0.210141,0.32032 -0.218871,0.50766 -0.01504,0.67732 0.233324,-0.133 0.487733,-0.22039 0.750781,-0.29268 -0.132269,-0.16648 -0.238885,-0.32071 -0.238885,-0.36497 0,-0.18494 0.456003,-0.7746 0.625843,-0.8092 0.09167,-0.0186 0.258234,-0.052 0.370184,-0.0758 0.13736,-0.0292 0.453241,-0.32846 0.970577,-0.9191 0.42169,-0.48143 0.809971,-0.87513 0.863571,-0.87513 z m 0.02487,2.05626 c -0.03261,0 -0.143206,0.16656 -0.245826,0.37076 -0.10259,0.2042 -0.241851,0.39315 -0.309451,0.41935 -0.06761,0.0262 -0.356055,0.0474 -0.640881,0.0474 -0.150293,0 -0.283886,0.008 -0.385802,0.0197 0.0033,-7e-5 0.0065,-5.2e-4 0.0098,-5.8e-4 0.309278,-0.006 0.619746,0.009 0.927775,0.022 0.356493,0.019 0.713149,0.0297 1.070064,0.0364 0.3084953,0.005 0.61692832,0.008 0.92546132,0.01 0.120623,6.5e-4 0.241357,8.9e-4 0.362086,10e-4 0.0019,-0.004 0.03169,-0.0292 0.03181,-0.0312 0.0026,-0.0315 -0.173596,-0.058 -0.391586,-0.0584 -0.218009,-4e-4 -0.52861502,-0.0227 -0.69062502,-0.0497 -0.2650203,-0.0442 -0.3104073,-0.0863 -0.4494273,-0.41819 -0.08497,-0.20291 -0.181034,-0.36845 -0.213434,-0.36845 z m 7.5870443,1.09262 c 0.102218,-0.0412 0.37094,0.0294 0.829444,0.20244 0.534251,0.20163 0.732271,0.52025 0.732271,1.1765 0,0.37876 -0.02785,0.45344 -0.27706,0.73169 -0.152591,0.17037 -0.371773,0.35867 -0.487024,0.41877 -0.115248,0.0601 -0.236899,0.10843 -0.270119,0.10643 -0.174831,-0.009 -0.893757,-0.37917 -0.912157,-0.46967 -0.01243,-0.0612 0.170849,-0.21414 0.436702,-0.36498 0.663338,-0.37636 0.68172,-0.58695 0.117418,-1.33267 -0.207577,-0.2743 -0.271697,-0.42726 -0.169475,-0.46851 z m 1.700534,0.66055 c 0.12205,-0.0206 0.408242,0.0608 0.743839,0.22095 0.536573,0.25605 0.695597,0.48878 0.751937,1.09956 0.0436,0.47265 -0.110743,0.76465 -0.586511,1.11229 -0.365468,0.26702 -0.438332,0.27195 -0.897118,0.0631 -0.721239,-0.32863 -0.727584,-0.47463 -0.03181,-0.71318 0.232933,-0.0799 0.455651,-0.20613 0.495121,-0.28053 0.112267,-0.21159 -0.0023,-0.62838 -0.282265,-1.02553 -0.140918,-0.19993 -0.256237,-0.38949 -0.256237,-0.42109 0,-0.0304 0.02236,-0.0487 0.06305,-0.0555 z m 1.666986,0.74557 c 0.0583,-0.025 0.1814421,0.0242 0.4766131,0.17295 0.812294,0.40944 1.039408,0.71403 1.039408,1.39282 0,0.49685 -0.195531,0.78307 -0.705086,1.03188 -0.178233,0.087 -0.372524,0.15718 -0.432074,0.15618 -0.196717,-0.004 -1.0145371,-0.49062 -1.0145371,-0.60387 0,-0.10983 0.226237,-0.21078 0.8496891,-0.37944 0.297563,-0.0805 0.320441,-0.10555 0.320441,-0.34531 0,-0.34288 -0.106277,-0.60905 -0.386958,-0.96653 -0.131716,-0.16776 -0.2127851,-0.34489 -0.1879851,-0.41009 0.0091,-0.0238 0.02106,-0.0403 0.04049,-0.0486 z m -25.3541569,2.45132 c -0.03761,0 -0.173455,0.16006 -0.301931,0.35572 -0.17971,0.27352 -0.233679,0.44005 -0.233679,0.7207 0,0.38 0.09809,0.48679 0.511317,0.5119 0.157231,-0.091 0.314507,-0.18213 0.476612,-0.26434 0.0033,-0.003 0.0065,-0.007 0.0098,-0.01 0.06071,-0.0529 0.120641,-0.10618 0.181043,-0.15906 -0.404558,-0.22672 -0.574364,-0.48647 -0.574364,-0.88497 0,-0.14868 -0.03123,-0.27012 -0.06883,-0.27012 z m 14.3752986,0.60964 c -0.105006,-7.2e-4 -0.521319,0.63653 -0.754829,1.15509 -0.264836,0.58811 -0.352623,1.18321 -0.253923,1.72194 0.09371,0.51135 0.218929,0.77821 0.570315,1.215825 0.30985,0.38587 0.533545,0.41679 0.818455,0.11395 0.67667532,-0.719225 0.84355232,-1.933865 0.4077813,-2.963795 -0.1977803,-0.46747 -0.6887993,-1.24234 -0.7877993,-1.24301 z m 15.6350834,0.49455 -0.08965,0.3106 c -0.167102,0.58216 -0.303602,0.76195 -0.713762,0.93993 -0.110077,0.0477 -0.220228,0.0848 -0.311764,0.10758 0.0713,0.0808 0.141971,0.16225 0.208229,0.24756 0.0443,0.0589 0.09351,0.11385 0.141132,0.17005 -0.06573,-0.15596 0.08615,-0.21459 0.467936,-0.21459 0.271034,0 0.551002,-0.11199 0.648402,-0.25913 0.129328,-0.19538 0.05561,-0.69917 -0.146339,-0.99891 z m -31.664065,0.16253 -0.233679,0.37134 c -0.236386,0.37609 -0.303135,0.79813 -0.161955,1.02321 0.04547,0.0725 0.260465,0.12126 0.642617,0.14981 0.150271,-0.14741 0.299588,-0.29576 0.447691,-0.44537 -0.299276,-0.1347 -0.43054,-0.3115 -0.556433,-0.68658 z m 11.6047006,0.19608 c -0.0985,0.0219 -0.07772,0.20057 0.01157,0.87341 0.13823,1.04149 0.441945,1.75341 0.964215,2.25812 0.12069,0.116645 0.640266,0.426545 1.154512,0.688895 0.51425,0.26235 0.945352,0.46957 0.957852,0.46157 0.0126,-0.009 -0.01225,-0.35859 -0.05495,-0.77796 -0.1342,-1.319025 -0.522857,-2.097455 -1.354643,-2.713345 -0.38609,-0.28588 -1.183999,-0.68656 -1.538579,-0.77276 -0.06124,-0.0149 -0.107141,-0.0252 -0.139976,-0.0179 z m 8.8774833,0.011 c -0.04848,-0.0188 -0.271789,0.0381 -0.496278,0.12668 -1.51692297,0.59884 -2.38588298,1.68159 -2.52130198,3.141365 -0.02428,0.26102 -0.06054,0.60604 -0.08098,0.76697 -0.02035,0.16093 -0.01094,0.28022 0.0214,0.26492 2.05221598,-0.97117 2.58518798,-1.455155 2.91751498,-2.651455 0.173843,-0.62574 0.26875,-1.60628 0.159642,-1.64848 z m 12.6151891,1.03883 v 5.8e-4 c -0.05429,0 -0.154866,0.14868 -0.223846,0.33085 -0.154533,0.40816 -0.370604,0.61998 -0.782015,0.7664 l -0.316391,0.11221 -0.455212,-0.38811 c -0.09731,-0.083 -0.152329,-0.14246 -0.217483,-0.20765 0.147786,0.18703 0.293012,0.37567 0.433232,0.56858 0.09392,0.11302 0.158168,0.24605 0.237727,0.36845 0.0051,0.008 -0.01619,-0.0199 -0.0093,-0.026 0.004,-0.004 0.05524,0.0605 0.100644,0.11452 0.01908,0.0264 0.313074,0.35397 0.179886,0.20013 -0.05353,-0.0512 0.156603,0.13094 0.172945,0.14345 0.179939,0.141065 0.351388,0.292345 0.521151,0.445385 0.243931,0.22081 0.478175,0.45072 0.697566,0.69583 0.134137,0.14506 0.23545,0.31536 0.35341,0.47256 0.04045,0.0539 0.1147,0.11712 0.15675,0.16369 0.04084,0.0395 0.367328,0.39607 0.241777,0.24988 -0.0034,-0.004 -0.01406,-0.0138 -0.0098,-0.011 0.06953,0.0457 0.130474,0.10294 0.187406,0.16427 3.88e-4,-0.002 -0.0034,-0.007 -0.0029,-0.009 0.02957,-0.0778 0.186317,-0.11829 0.518259,-0.13419 l 0.475455,-0.0226 0.16774,-0.343 c 0.09232,-0.18848 0.177032,-0.46246 0.188562,-0.60906 0.01954,-0.24884 0.0066,-0.26665 -0.20013,-0.26665 -0.181539,0 -0.249759,0.0545 -0.377704,0.30251 -0.172271,0.33386 -0.635801,0.6464 -0.961901,0.6484 -0.149778,9.3e-4 -0.291168,-0.10173 -0.548914,-0.39853 -0.456697,-0.52588 -0.432102,-0.61823 0.177573,-0.66633 0.41039,-0.0324 0.504574,-0.0682 0.63047,-0.23888 0.184535,-0.25024 0.263247,-0.857795 0.131878,-1.017435 -0.15441,-0.18767 -0.27108,-0.13287 -0.417614,0.19492 -0.169727,0.37966 -0.473894,0.647005 -0.872825,0.767565 l -0.301932,0.0914 -0.41183,-0.410105 c -0.22652,-0.22566 -0.41183,-0.45103 -0.41183,-0.50033 0,-0.1248 0.180909,-0.1822 0.575521,-0.1822 0.462393,0 0.707399,-0.24335 0.707399,-0.70277 0,-0.34197 -0.162805,-0.66749 -0.333744,-0.66749 z m -27.170953,1.27714 0.0457,0.48991 c 0.02495,0.26944 0.11668,0.682655 0.20418,0.918525 0.21074,0.56817 0.80086,1.12537 1.371417,1.29507 h 5.78e-4 c 0.221416,0.0657 0.4793186,0.1231 0.5726286,0.12609 0.20089,0.007 0.214756,-0.13807 0.08618,-0.88265 -0.16535,-0.95775 -0.7242446,-1.461205 -2.0990606,-1.890265 z m 16.9237869,0.0937 c -0.173159,0 -0.969819,0.60641 -1.499246,1.141215 -0.922061,0.9314 -1.279816,1.84847 -1.172443,3.00428 0.02945,0.31706 0.07737,0.576097 0.106428,0.576097 0.02907,0 0.165729,-0.230897 0.303666,-0.513627 0.318521,-0.65283 1.037519,-1.77053 1.138896,-1.77053 0.141996,0 0.07988,0.23786 -0.300197,1.14931 -0.207619,0.4979 -0.377703,0.97595 -0.377703,1.062547 0,0.14954 0.02302,0.14526 0.453475,-0.0862 0.572872,-0.308 1.003452,-0.77772 1.308371,-1.42694 0.225137,-0.47935 0.238884,-0.55888 0.238884,-1.38415 0,-0.99 -0.08694,-1.752015 -0.200131,-1.752015 z m 3.191683,0 c -0.234459,0 -0.937634,0.28396 -1.283498,0.51826 -0.557007,0.377355 -0.823972,0.898795 -0.959587,1.873485 l -0.05148,0.37308 0.321598,-0.0521 c 0.494232,-0.0797 1.116856,-0.42372 1.44314,-0.79763 0.293658,-0.33651 0.517389,-0.89965 0.631627,-1.591225 0.04841,-0.29306 0.03837,-0.32391 -0.101801,-0.32391 z m -16.7786053,0.0445 c -0.03016,-10e-4 -0.05161,0.007 -0.06305,0.0255 -0.13515,0.22054 -0.236536,1.658855 -0.154436,2.188715 0.1479,0.95535 0.747368,1.85662 1.540314,2.31539 0.398706,0.230647 0.498345,0.263777 0.497435,0.166577 -3.5e-4,-0.0314 -0.139913,-0.451297 -0.310029,-0.932977 -0.41398,-1.17199 -0.445079,-1.28507 -0.364979,-1.33497 0.08889,-0.0554 0.702316,0.91134 1.040565,1.6398 0.14586,0.31414 0.278134,0.587627 0.293834,0.607327 0.06477,0.0809 0.162985,-0.204497 0.209385,-0.609067 0.11866,-1.03129 -0.279992,-2.00379 -1.203677,-2.93602 -0.635127,-0.641035 -1.274231,-1.120495 -1.485365,-1.130225 z m 3.070795,1.616095 c -0.08533,-0.008 -0.14323,-0.005 -0.15328,0.0116 -0.04631,0.0756 0.415558,1.46427 0.624108,1.87638 0.2499,0.49371 0.900987,1.04333 1.460493,1.232587 0.47116,0.1594 0.75888,0.20526 0.83118,0.13246 0.0201,-0.0202 0.0072,-0.302767 -0.02834,-0.628157 -0.15153,-1.38481 -0.939027,-2.2222 -2.416609,-2.56989 -0.11948,-0.0282 -0.232219,-0.0472 -0.317549,-0.0549 z m 7.3822863,0.0283 c -0.276179,0.0332 -0.80035297,0.19941 -1.17475697,0.38811 -0.95680401,0.48225 -1.45494401,1.24168 -1.54783401,2.35935 -0.04212,0.507137 -0.04003,0.513627 0.14229,0.513627 0.335314,0 1.07594101,-0.30102 1.45991401,-0.593447 0.207634,-0.15813 0.48835397,-0.47359 0.62352997,-0.70104 0.270054,-0.4544 0.759116,-1.86736 0.675586,-1.95156 -0.02223,-0.0224 -0.08667,-0.0261 -0.178729,-0.015 z m 16.7410081,1.12906 c -0.17939,0 -0.245953,0.0528 -0.358616,0.28458 -0.170802,0.35134 -0.568909,0.62931 -0.901746,0.62931 -0.015,0 -0.02554,-0.003 -0.03933,-0.004 0.03457,0.0402 0.07142,0.0775 0.114526,0.1047 0.106157,0.0877 0.198221,0.18814 0.285736,0.29267 0.05297,-0.005 0.09331,-0.0127 0.163112,-0.0127 0.471509,0 0.655827,-0.14846 0.841013,-0.6779 0.175113,-0.50062 0.155248,-0.61659 -0.104693,-0.61659 z m -6.029956,1.58312 -0.322176,0.0544 c -1.398453,0.238317 -2.466583,0.990482 -2.953955,2.079962 -0.6059831,1.35462 -0.6950431,1.50308 -1.1892181,1.99321 -0.274499,0.27225 -0.652567,0.57112 -0.840434,0.66402 -0.546178,0.27016 -1.259088,0.4254 -1.749121,0.3806 -0.401968,-0.0368 -0.602772,0.0306 -0.474877,0.15964 0.02815,0.0284 0.243969,0.074 0.479505,0.10122 1.319459,0.15234 2.160529,-0.23477 3.129793,-1.44083 0.258013,-0.32105 0.6788731,-0.81156 0.9347151,-1.08973 0.255836,-0.27816 0.535654,-0.64525 0.621794,-0.81556 0.157971,-0.31235 0.286125,-0.44504 0.359195,-0.37134 0.07026,0.0709 -0.205001,0.91463 -0.432653,1.32572 -0.254419,0.45942 -0.258633,0.47719 -0.110477,0.47719 0.320195,0 0.986989,-0.35022 1.399181,-0.73516 0.61446,-0.57384 0.910988,-1.23639 1.097828,-2.452465 z m -28.616985,0.0266 c -0.09826,0.0387 -0.08643,0.17765 -0.05553,0.452897 0.12748,1.136455 0.64431,2.092145 1.393976,2.577405 0.428386,0.27728 0.857666,0.45368 1.118072,0.45868 0.16412,0.003 0.163264,-0.002 -0.05495,-0.35804 -0.34815,-0.56773 -0.644181,-1.54205 -0.468515,-1.54205 0.03207,0 0.125551,0.12754 0.207651,0.284 0.08213,0.15646 0.388482,0.5597 0.680792,0.89539 0.29231,0.33569 0.739984,0.86986 0.99487,1.18748 0.7435,0.92648 1.252726,1.30409 1.934792,1.43504 0.29791,0.0572 1.0984036,0.0359 1.4651196,-0.0387 0.30388,-0.062 0.179334,-0.18389 -0.188562,-0.18451 -0.58952,-9.4e-4 -1.3006916,-0.14647 -1.7491216,-0.35804 -0.599716,-0.28295 -1.462681,-1.17941 -1.749121,-1.8168 -0.121147,-0.26959 -0.320762,-0.71403 -0.443642,-0.98735 -0.38756,-0.86201 -1.193441,-1.492875 -2.370337,-1.856122 -0.409029,-0.12625 -0.61724,-0.18794 -0.715497,-0.14923 z m 36.265919,1.439662 v 5.8e-4 c -0.162598,-0.0292 -0.273564,0.0642 -0.378282,0.29846 -0.157789,0.35297 -0.310641,0.49613 -0.595187,0.56048 0.01313,0.0286 0.0282,0.0558 0.04107,0.0845 0.06325,0.13868 0.124769,0.27841 0.192033,0.4153 0.412906,-0.0158 0.550358,-0.13987 0.841013,-0.7554 0.204211,-0.43246 0.208747,-0.46546 0.08098,-0.53446 -0.06729,-0.0363 -0.127422,-0.0597 -0.181622,-0.0694 z m -15.5292331,0.41588 c -0.06874,-0.0693 -0.894541,0.18882 -1.356379,0.42398 -1.117164,0.56885 -1.65079,1.46 -1.65079,2.75672 v 0.38001 l 0.275903,-0.0451 c 0.398783,-0.0653 1.295813,-0.51974 1.664094,-0.84333 0.414317,-0.36403 0.791019,-1.13378 0.965371,-1.97181 0.07598,-0.36507 0.121811,-0.68026 0.101801,-0.70046 z m -12.7997023,5.8e-4 c -0.08992,-0.0133 -0.152139,-0.0112 -0.171789,0.0104 -0.06423,0.071 0.07728,0.83602 0.265492,1.43562 0.272926,0.86953 0.951284,1.53856 1.931899,1.90587 0.784476,0.29389 0.772822,0.30208 0.728222,-0.48702 -0.06453,-1.14168 -0.57675,-1.94222 -1.565185,-2.44553 -0.396188,-0.20173 -0.918892,-0.37957 -1.188639,-0.41935 z m -3.8331426,0.048 c -0.06615,0.0667 0.534941,1.40816 0.794161,1.77226 0.274086,0.38498 0.677444,0.69416 1.106504,0.84853 v 5.8e-4 c 0.1578596,0.0568 0.5034156,0.10442 0.7681316,0.10642 l 0.48124,0.003 -0.04859,-0.24756 c -0.08998,-0.45462 -0.483624,-1.18811 -0.818454,-1.52586 -0.1822,-0.18379 -0.5220776,-0.42542 -0.7554076,-0.53676 -0.438506,-0.20926 -1.458488,-0.49001 -1.527588,-0.42051 z m 20.2328879,0.003 c -0.07009,-0.0707 -1.077667,0.20105 -1.509658,0.4072 -0.571774,0.27285 -0.995184,0.71969 -1.286391,1.35754 -0.333211,0.72986 -0.353143,0.90249 -0.111634,0.96479 0.698653,0.18019 1.761522,-0.3513 2.251184,-1.12559 0.258529,-0.40881 0.721059,-1.53884 0.656499,-1.60394 z m 10.2402241,3.68912 c 0.0019,0.007 0.0039,0.0142 0.0058,0.0214 -1.7e-5,-10e-4 -6e-4,-0.011 -5.78e-4,-0.0116 -0.0011,-0.003 -0.0039,-0.007 -0.0052,-0.01 z m 3.473949,1.5004 c 0.05291,-0.0131 0.108136,-0.0109 0.168318,0.004 0.15178,0.0384 0.196486,0.10958 0.235992,0.37539 0.02697,0.18031 0.03762,0.42862 0.02371,0.55181 -0.02466,0.21848 -0.03682,0.2242 -0.498013,0.2464 -0.581752,0.0279 -0.641636,-0.0632 -0.392743,-0.59923 0.168682,-0.36324 0.30399,-0.539 0.462731,-0.57842 z m -15.0607191,0.0515 c -0.420158,-10e-4 -0.437212,0.006 -0.389272,0.17005 0.07703,0.26337 0.623375,1.17542 0.88208,1.47264 0.268422,0.30837 0.759759,0.61584 1.213511,0.75888 0.351764,0.1109 1.9217001,0.14498 2.0776591,0.0451 0.119047,-0.0762 -0.715673,-1.12273 -1.21351,-1.52181 -0.7072351,-0.56694 -1.6959961,-0.92288 -2.5704681,-0.92488 z m -17.6612639,0.0185 c -0.838986,0.0553 -1.550745,0.30647 -2.196812,0.77565 -0.55626,0.40397 -1.523492,1.51511 -1.439092,1.65311 v 5.8e-4 c 0.0312,0.0506 0.38969,0.0683 1.00239,0.048 0.755916,-0.0251 1.042936,-0.0675 1.384142,-0.20244 0.65454,-0.25891 1.124206,-0.73232 1.528746,-1.54147 0.18888,-0.37775 0.343577,-0.70654 0.343577,-0.73054 0,-0.0244 -0.280371,-0.0264 -0.622951,-0.003 z m 14.4921389,0.45521 c -0.09138,0.005 -0.144909,0.0227 -0.162534,0.0515 -0.07545,0.12314 0.259708,0.80744 0.664018,1.35696 0.512273,0.69626 1.093088,1.09202 1.816217,1.23664 0.419274,0.0839 1.493252,0.0916 1.6184,0.0116 0.07713,-0.0493 -0.0152,-0.21737 -0.387537,-0.70393 -1.061618,-1.38731 -1.709682,-1.78396 -3.158135,-1.93421 -0.169276,-0.0176 -0.299046,-0.024 -0.390429,-0.0185 z m -11.2859953,5.8e-4 c -0.122351,0.001 -0.295169,0.0165 -0.521729,0.0457 -1.230412,0.15865 -2.1044506,0.7521 -3.0262566,2.05511 -0.276321,0.39052 -0.321182,0.49786 -0.235992,0.55643 0.05835,0.0402 0.445432,0.0595 0.860678,0.0434 1.0558556,-0.0408 1.5090986,-0.22683 2.1522746,-0.88439 0.53735,-0.54937 1.139749,-1.62954 0.991979,-1.77862 -0.0263,-0.0265 -0.0986,-0.0389 -0.220954,-0.0376 z m -14.7946486,7.65935 c -1.29e-4,0.2141 -2.1e-4,0.42782 -0.01677,0.64146 -0.0034,0.0281 -0.009,0.0559 -0.0133,0.0839 0.02831,-0.0125 0.138577,-0.0524 0.142289,-0.0561 0.01132,-0.0114 -0.05562,-0.36399 -0.112212,-0.66922 z m 20.8564176,4.30628 c 1.09148732,0.0158 2.18524733,0.097 3.2836503,0.24293 4.27496,0.56798 8.4923991,2.14692 11.9401811,4.46998 1.278411,0.86137 2.706394,2.02614 2.706394,2.2078 0,0.17327 -0.450105,0.73953 -0.589403,0.74153 -0.05436,7.6e-4 -0.360275,-0.19818 -0.679635,-0.44249 -3.177535,-2.43082 -6.9426501,-4.23272 -10.7660021,-5.1525 -4.21388397,-1.01375 -8.7680153,-0.97335 -13.0489983,0.11626 -3.5934136,0.91461 -7.3619226,2.75612 -10.2251856,4.99691 -0.339686,0.26584 -0.668235,0.48355 -0.730535,0.48355 -0.1345,0 -0.65245,-0.6143 -0.65245,-0.77391 0,-0.24114 2.034472,-1.80459 3.572279,-2.74515 2.139431,-1.30857 4.290244,-2.24959 6.8258516,-2.98635 2.435328,-0.70761 4.850379,-1.09081 7.272966,-1.1522 0.363386,-0.009 0.727056,-0.0118 1.090887,-0.006 z m -0.415879,2.90479 c 2.56793333,3.3e-4 3.1614993,0.0505 5.0206253,0.42629 3.664365,0.74077 7.8158571,2.7061 10.7735211,5.10045 0.660714,0.53487 0.666273,0.55527 0.275903,0.95958 -0.529019,0.54788 -0.531588,0.54825 -1.107083,0.0833 -2.601111,-2.10155 -5.8686271,-3.74708 -9.1227301,-4.59318 -1.958901,-0.50934 -3.02917397,-0.65352 -5.175061,-0.69872 -2.0309523,-0.0428 -2.9267893,0.0136 -4.5156713,0.28457 -3.872483,0.66037 -7.9675276,2.49905 -10.9215946,4.90379 -0.33891,0.27589 -0.645649,0.50148 -0.681949,0.50148 -0.11112,0 -0.853449,-0.79717 -0.853159,-0.9162 4.9e-4,-0.20622 1.746552,-1.50415 3.266877,-2.42818 2.870599,-1.74469 6.0332406,-2.89385 9.4917576,-3.4485 0.979766,-0.15714 1.352552,-0.17496 3.548564,-0.17468 z m -2.650867,10.56703 c -0.01122,0.021 -0.01838,0.0439 -0.02776,0.0659 0.0078,-0.008 0.01535,-0.0163 0.02314,-0.0243 -0.0024,6.7e-4 -0.0078,0.004 -0.0075,0.002 0.0018,-0.0152 0.01938,-0.0574 0.01215,-0.044 z m -5.79e-4,0.25681 v 5.8e-4 c -0.02801,3.4e-4 -0.05977,0.007 -0.09139,0.0133 0.04336,-0.004 0.0867,-0.008 0.130721,-0.009 -0.01201,-0.003 -0.0249,-0.005 -0.03933,-0.005 z m 5.7592593,3.73655 v 5.8e-4 c 5.77e-4,9e-5 0.0012,4.7e-4 0.0017,5.8e-4 -5.97e-4,-3.5e-4 -0.0011,-9.1e-4 -0.0017,-10e-4 z m 0.0017,0.001 c 0.0023,0.001 0.0046,0.002 0.0069,0.004 0.0033,2.6e-4 0.0066,3.3e-4 0.0098,5.8e-4 -0.0055,-0.002 -0.01124,-0.004 -0.01677,-0.005 z" /><path
         id="use3353"
         style="opacity:0;fill:url(#radialGradient5);stroke-width:5.21229;stroke-linecap:round;stroke-linejoin:round"
         d="m -2.6826684,142.04817 c -2.78664,0 -5.54874,-0.36676 -8.2174996,-1.08185 -2.66877,-0.7151 -5.2442,-1.77852 -7.6575,-3.17184 l 7.9375,-13.74816 7.9374996,-13.74815 v 15.875 l -5.29167,7.9375 z"
         sodipodi:nodetypes="cscccccc"
         inkscape:transform-center-x="-15.875044"
         inkscape:transform-center-y="7.9379953" /><path
         id="use4083"
         style="opacity:0;fill:url(#radialGradient3);stroke-width:5.21229;stroke-linecap:round;stroke-linejoin:round"
         d="m -2.6826684,78.54817 c 2.78664,0 5.54874,0.366762 8.2175,1.081855 2.66877,0.715093 5.2442004,1.778517 7.6575004,3.171839 l -7.9375004,13.748153 -7.9375,13.748153 V 94.423171 l 5.29167,-7.9375 z"
         sodipodi:nodetypes="cscccccc"
         inkscape:transform-center-x="-15.875044"
         inkscape:transform-center-y="7.9379953" /><path
         id="path5"
         style="fill:#11313a;fill-opacity:1;stroke-width:0.370183"
         d="M -1.9310979,80.357197 A 29.614746,29.614746 0 0 0 -31.545845,109.97194 29.614746,29.614746 0 0 0 -1.9310979,139.58669 29.614746,29.614746 0 0 0 27.68365,109.97194 29.614746,29.614746 0 0 0 -1.9310979,80.357197 Z m 0,8.884425 A 20.730322,20.730326 0 0 1 18.799225,109.97194 20.730322,20.730326 0 0 1 -1.9310979,130.70227 20.730322,20.730326 0 0 1 -22.661421,109.97194 20.730322,20.730326 0 0 1 -1.9310979,89.241622 Z" /><text
         xml:space="preserve"
         style="font-style:normal;font-variant:normal;font-weight:600;font-stretch:normal;font-size:5.94306px;font-family:'Avenir Next LT Pro';-inkscape-font-specification:'Avenir Next LT Pro, Semi-Bold';font-variant-ligatures:normal;font-variant-caps:normal;font-variant-numeric:normal;font-variant-east-asian:normal;fill:#ffffff;fill-opacity:1;stroke-width:0.186583"
         id="text7"
         transform="translate(0.09138589,-1.2385025)"><textPath
           xlink:href="#path8"
           id="textPath9">  Héritage<tspan
   id="tspan7"
   style="font-style:normal;font-variant:normal;font-weight:600;font-stretch:normal;font-size:5.94306px;font-family:'Avenir Next LT Pro';-inkscape-font-specification:'Avenir Next LT Pro, Semi-Bold';font-variant-ligatures:normal;font-variant-caps:normal;font-variant-numeric:normal;font-variant-east-asian:normal;stroke-width:0.186583" /></textPath></text><text
         xml:space="preserve"
         style="font-style:normal;font-variant:normal;font-weight:600;font-stretch:normal;font-size:5.94306px;font-family:'Avenir Next LT Pro';-inkscape-font-specification:'Avenir Next LT Pro, Semi-Bold';font-variant-ligatures:normal;font-variant-caps:normal;font-variant-numeric:normal;font-variant-east-asian:normal;fill:#ffffff;fill-opacity:1;stroke-width:0.186583"
         id="text7-6"><textPath
           xlink:href="#path9"
           id="textPath10"> Pour        Tous</textPath></text><path
         style="fill:none;fill-opacity:1;stroke:none;stroke-width:0.296147;stroke-opacity:1"
         d="m -15.792526,92.988052 c 9.3533706,-6.985023 20.9178711,-5.980101 29.187659,0.866"
         id="path8"
         sodipodi:nodetypes="cc" /><path
         style="fill:none;fill-opacity:1;stroke:none;stroke-width:0.296147;stroke-opacity:1"
         d="m -20.757041,130.65409 c 11.5904722,8.68384 25.2379455,8.81481 38.185521,-1.04831"
         id="path9"
         sodipodi:nodetypes="cc" /><path
         id="path10"
         style="fill:none;stroke:#ffffff;stroke-width:0.738736;marker-start:url(#CapRibbon2);marker-end:url(#ArrowTriangleStylized)"
         d="m 14.761893,92.286458 a 25.086388,23.691793 0 0 1 5.488563,28.752032" /><path
         style="fill:none;fill-opacity:1;stroke:#ffffff;stroke-width:0.738736;stroke-dasharray:none;stroke-opacity:1;marker-start:url(#marker21);marker-end:url(#ArrowTriangleStylized-4)"
         id="path10-1"
         sodipodi:type="arc"
         sodipodi:cx="1.9309038"
         sodipodi:cy="-109.97181"
         sodipodi:rx="25.163076"
         sodipodi:ry="23.691793"
         sodipodi:start="5.7022195"
         sodipodi:end="0.6228467"
         sodipodi:arc-type="arc"
         d="m 22.965549,-122.97461 a 25.163076,23.691793 0 0 1 -0.596663,26.823401"
         sodipodi:open="true"
         transform="scale(-1)" /></g><g
       id="g2915"
       transform="matrix(0.89341749,0,0,0.89341749,8.9516062,9.0239858)" /><g
       id="g2926"
       transform="matrix(0.89341749,0,0,0.89341749,-26.847692,10.763147)" /><use
       x="0"
       y="0"
       xlink:href="#g2926"
       id="use2928"
       transform="translate(4.5493859,12.061805)" /><text
       xml:space="preserve"
       transform="matrix(0.23638337,0,0,0.23638337,8.9516062,9.0239858)"
       id="text698"
       style="font-style:normal;font-variant:normal;font-weight:bold;font-stretch:normal;font-size:18.6667px;line-height:125%;font-family:Arial;-inkscape-font-specification:'Arial, Bold';font-variant-ligatures:normal;font-variant-caps:normal;font-variant-numeric:normal;font-feature-settings:normal;text-align:center;letter-spacing:0px;word-spacing:0px;writing-mode:lr-tb;white-space:pre;shape-inside:url(#rect700);display:inline;fill:#000000;fill-opacity:1;stroke:none;stroke-width:1px;stroke-linecap:butt;stroke-linejoin:miter;stroke-opacity:1" /></g></svg>
