<?xml version="1.0" encoding="UTF-8" standalone="no"?>
<!-- Created with Inkscape (http://www.inkscape.org/) -->

<svg
   width="64.136444mm"
   height="63.500004mm"
   viewBox="0 0 64.136444 63.500004"
   version="1.1"
   id="svg5"
   sodipodi:docname="logo.svg"
   inkscape:version="1.2.2 (732a01da63, 2022-12-09, custom)"
   inkscape:export-filename="../723786dc/logo.png"
   inkscape:export-xdpi="300"
   inkscape:export-ydpi="300"
   xmlns:inkscape="http://www.inkscape.org/namespaces/inkscape"
   xmlns:sodipodi="http://sodipodi.sourceforge.net/DTD/sodipodi-0.dtd"
   xmlns:xlink="http://www.w3.org/1999/xlink"
   xmlns="http://www.w3.org/2000/svg"
   xmlns:svg="http://www.w3.org/2000/svg">
  <sodipodi:namedview
     id="namedview7"
     pagecolor="#ffffff"
     bordercolor="#666666"
     borderopacity="1.0"
     inkscape:showpageshadow="2"
     inkscape:pageopacity="0.0"
     inkscape:pagecheckerboard="0"
     inkscape:deskcolor="#d1d1d1"
     inkscape:document-units="cm"
     showgrid="false"
     inkscape:zoom="3.6203867"
     inkscape:cx="123.05315"
     inkscape:cy="174.56699"
     inkscape:window-width="1680"
     inkscape:window-height="959"
     inkscape:window-x="0"
     inkscape:window-y="0"
     inkscape:window-maximized="1"
     inkscape:current-layer="g6930"
     showguides="false">
    <inkscape:grid
       type="xygrid"
       id="grid9"
       empspacing="4"
       spacingx="2.6458333"
       spacingy="2.6458333"
       originx="-285.04442"
       originy="-286.04157" />
  </sodipodi:namedview>
  <defs
     id="defs2">
    <rect
       x="269.24222"
       y="315.66666"
       width="34.695137"
       height="22.873423"
       id="rect700" />
    <inkscape:path-effect
       effect="bend_path"
       id="path-effect1728"
       is_visible="true"
       lpeversion="1"
       bendpath="m 106.45176,138.80838 h 45.84403"
       prop_scale="1.02"
       scale_y_rel="false"
       vertical="false"
       hide_knot="false" />
    <linearGradient
       inkscape:collect="always"
       id="linearGradient3309">
      <stop
         style="stop-color:#353507;stop-opacity:0.80000001;"
         offset="0"
         id="stop3305" />
      <stop
         style="stop-color:#fff907;stop-opacity:0;"
         offset="1"
         id="stop3307" />
    </linearGradient>
    <linearGradient
       inkscape:collect="always"
       id="linearGradient3020">
      <stop
         style="stop-color:#d3ca0c;stop-opacity:1;"
         offset="0.87712145"
         id="stop3018" />
      <stop
         style="stop-color:#9a9207;stop-opacity:1;"
         offset="1"
         id="stop3016" />
    </linearGradient>
    <filter
       y="-0.97469288"
       height="2.9493859"
       inkscape:menu-tooltip="Darkens the edge with an inner blur and adds a flexible glow"
       inkscape:menu="Shadows and Glows"
       inkscape:label=""
       style="color-interpolation-filters:sRGB"
       id="filter2325"
       x="-0.24361035"
       width="1.4872206">
      <feGaussianBlur
         stdDeviation="5"
         result="result6"
         id="feGaussianBlur2315" />
      <feComposite
         result="result8"
         in="SourceGraphic"
         operator="atop"
         in2="result6"
         id="feComposite2317" />
      <feComposite
         result="result9"
         operator="over"
         in2="SourceAlpha"
         in="result8"
         id="feComposite2319" />
      <feColorMatrix
         values="1 0 0 0 0 0 1 0 0 0 0 0 1 0 0 0 0 0 1 0"
         result="result10"
         id="feColorMatrix2321" />
      <feBlend
         in="result10"
         mode="color-dodge"
         in2="result6"
         id="feBlend2323" />
    </filter>
    <radialGradient
       inkscape:collect="always"
       xlink:href="#linearGradient3020"
       id="radialGradient3022"
       cx="-2.6826684"
       cy="110.29817"
       fx="-2.6826684"
       fy="110.29817"
       r="15.875"
       gradientUnits="userSpaceOnUse" />
    <radialGradient
       inkscape:collect="always"
       xlink:href="#linearGradient3309"
       id="radialGradient3311"
       cx="24.351948"
       cy="125.1771"
       fx="24.351948"
       fy="125.1771"
       r="15.875"
       gradientTransform="matrix(-1.4999999,3.7349921e-7,-2.0228153e-8,-0.66666659,57.657753,193.74956)"
       gradientUnits="userSpaceOnUse" />
  </defs>
  <g
     inkscape:label="Calque 1"
     inkscape:groupmode="layer"
     id="layer1"
     transform="translate(-51.919348,-52.916662)">
    <g
       id="g1445"
       transform="matrix(0.89341749,0,0,0.89341749,86.100008,-13.875652)">
      <circle
         style="fill:#f6ec08;fill-opacity:0.799479;stroke:none;stroke-width:5.21229;stroke-linecap:round;stroke-linejoin:round"
         id="path2950"
         cx="-2.6826684"
         cy="110.29817"
         r="31.75" />
      <path
         id="path3289"
         style="fill:url(#radialGradient3311);stroke-width:5.21229;stroke-linecap:round;stroke-linejoin:round"
         d="m 29.067332,110.29817 c 0,2.78664 -0.366762,5.54874 -1.081855,8.2175 -0.715093,2.66877 -1.778517,5.2442 -3.171839,7.6575 l -13.748153,-7.9375 -13.7481534,-7.9375 H 13.192331 l 7.9375,5.29167 z"
         sodipodi:nodetypes="cscccccc"
         inkscape:transform-center-x="-15.875044"
         inkscape:transform-center-y="7.9379953" />
      <use
         x="0"
         y="0"
         xlink:href="#path3289"
         inkscape:transform-center-x="7.9379953"
         inkscape:transform-center-y="15.875044"
         id="use3353"
         transform="rotate(90,-2.6826684,110.29817)"
         style="opacity:0" />
      <use
         x="0"
         y="0"
         xlink:href="#path3289"
         inkscape:transform-center-x="15.875044"
         inkscape:transform-center-y="-7.9379953"
         id="use4081"
         transform="rotate(180,-2.6826684,110.29817)" />
      <use
         x="0"
         y="0"
         xlink:href="#path3289"
         inkscape:transform-center-x="-7.9379953"
         inkscape:transform-center-y="-15.875044"
         id="use4083"
         transform="rotate(-90,-2.6826684,110.29817)"
         style="opacity:0" />
      <circle
         style="fill:url(#radialGradient3022);fill-opacity:1;stroke:none;stroke-width:2.60614;stroke-linecap:round;stroke-linejoin:round"
         id="path2950-3"
         cx="-2.6826684"
         cy="110.29817"
         r="15.875" />
    </g>
    <g
       id="g2958"
       transform="matrix(0.89268972,0,0,0.94246557,-34.298409,-27.575965)">
      <g
         id="g4389"
         transform="matrix(0.7271532,0,0,0.74999317,37.873909,18.473806)"
         class="UnoptimicedTransforms">
        <g
           aria-label="Héritage"
           transform="matrix(1.0990375,0,0,0.90988706,-12.116564,-6.8735835)"
           id="text1907-4"
           style="font-weight:900;font-size:18.9632px;font-family:'Arima Madurai';-inkscape-font-specification:'Arima Madurai, Heavy';text-align:center;letter-spacing:0px;word-spacing:0px;text-anchor:middle;opacity:0.791472;fill:#0b2228;stroke:#ffffff;stroke-width:2.416;stroke-dasharray:none;stroke-opacity:1">
          <path
             d="m 105.69626,127.12055 q 0,1.49809 0.3603,2.38936 -0.20859,0.20859 -0.58786,0.37926 -0.3603,0.17067 -0.83438,0.17067 -0.62578,0 -1.02401,-0.34134 -0.39823,-0.34133 -0.39823,-0.92919 v -5.23385 h -5.044209 v 3.56509 q 0,1.49809 0.360301,2.38936 -0.208595,0.20859 -0.587859,0.37926 -0.360301,0.17067 -0.834381,0.17067 -0.625786,0 -1.024013,-0.34134 -0.398227,-0.34133 -0.398227,-0.92919 v -9.51953 q 0,-1.4412 -0.360301,-2.38936 0.208595,-0.2086 0.568896,-0.37927 0.379264,-0.17066 0.853344,-0.17066 0.625786,0 1.024013,0.34133 0.398227,0.34134 0.398227,0.9292 v 4.62702 h 5.044209 v -2.95826 q 0,-1.4412 -0.3603,-2.38936 0.2086,-0.2086 0.5689,-0.37927 0.37926,-0.17066 0.85334,-0.17066 0.60682,0 1.00505,0.34133 0.41719,0.34134 0.41719,0.9292 z"
             id="path4345"
             style="stroke:#ffffff;stroke-width:2.416;stroke-dasharray:none;stroke-opacity:1" />
          <path
             d="m 116.18291,127.06366 q 0.30341,0.13274 0.30341,0.512 0,0.24652 -0.13274,0.5689 -0.3603,0.91023 -1.30846,1.42224 -0.94816,0.49304 -2.29455,0.49304 -2.19973,0 -3.48923,-1.34639 -1.2895,-1.36535 -1.2895,-3.83056 0,-2.40833 1.25158,-3.77368 1.25157,-1.36535 3.56508,-1.36535 1.68772,0 2.76862,0.75853 1.08091,0.73956 1.08091,2.10491 0,1.38432 -1.11883,2.14285 -1.11883,0.75852 -2.99619,0.75852 -1.21364,0 -1.87735,-0.0758 0.13274,1.6498 0.83438,2.3704 0.7206,0.7206 1.97217,0.7206 1.00505,0 1.70669,-0.39822 0.70164,-0.39823 1.02401,-1.06194 z m -3.48923,-6.46645 q -0.98608,0 -1.53602,1.06193 -0.54993,1.04298 -0.54993,2.90137 v 0.019 l 0.64475,0.019 q 1.17572,0 1.95321,-0.49304 0.79645,-0.49305 0.79645,-1.89632 0,-1.61187 -1.30846,-1.61187 z m -0.0759,-1.61188 q -0.68268,-0.0379 -0.89127,-0.17067 l 1.70669,-2.99618 q 0.0569,-0.019 0.20859,-0.019 0.47408,0 1.13779,0.18963 0.66372,0.17067 0.83438,0.30341 z"
             id="path4347"
             style="stroke:#ffffff;stroke-width:2.416;stroke-dasharray:none;stroke-opacity:1" />
          <path
             d="m 123.44581,119.74386 q 1.0809,0 1.74461,0.58786 0.68268,0.5689 0.68268,1.57395 0,0.7206 -0.43615,1.19468 -0.43616,0.47408 -1.09987,0.49304 -0.75853,0 -1.11883,-0.39823 0.2086,-0.34133 0.28445,-0.62578 0.0759,-0.28445 0.0759,-0.66371 0,-0.49305 -0.20859,-0.73957 -0.2086,-0.26548 -0.62579,-0.26548 -0.70164,0 -1.09986,1.11883 -0.39823,1.09986 -0.39823,3.29959 0,2.02906 0.0569,2.74967 0.0569,0.70163 0.34134,1.38431 -0.2086,0.20859 -0.5689,0.3603 -0.3603,0.17067 -0.83438,0.18963 -0.58786,0 -1.00505,-0.37926 -0.41719,-0.37927 -0.41719,-1.02401 v -6.01134 q 0,-0.53097 -0.13274,-0.75853 -0.11378,-0.24652 -0.37927,-0.24652 -0.3603,0 -0.49304,0.22756 -0.22756,-0.37926 -0.22756,-0.77749 0,-0.5689 0.37926,-0.91023 0.39823,-0.36031 1.09987,-0.36031 0.83438,0 1.32742,0.51201 0.49305,0.51201 0.5689,1.53602 0.64475,-2.06699 2.48418,-2.06699 z"
             id="path4349"
             style="stroke:#ffffff;stroke-width:2.416;stroke-dasharray:none;stroke-opacity:1" />
          <path
             d="m 128.69859,118.81466 q -0.58786,0 -1.00505,-0.39822 -0.41719,-0.41719 -0.41719,-1.00505 0,-0.60682 0.41719,-1.00505 0.41719,-0.41719 1.00505,-0.41719 0.58786,0 0.98608,0.41719 0.39823,0.39823 0.39823,1.00505 0,0.58786 -0.39823,1.00505 -0.39822,0.39822 -0.98608,0.39822 z m 1.30846,8.30589 q 0,1.49809 0.3603,2.38936 -0.60682,0.54993 -1.42224,0.54993 -0.58786,0 -0.98609,-0.34134 -0.37926,-0.34133 -0.37926,-0.92919 v -6.10615 q 0,-1.44121 -0.3603,-2.40833 0.58786,-0.53097 1.36535,-0.53097 0.62578,0 1.00505,0.34134 0.39822,0.32237 0.39822,0.9292 z"
             id="path4351"
             style="stroke:#ffffff;stroke-width:2.416;stroke-dasharray:none;stroke-opacity:1" />
          <path
             d="m 135.35466,120.02831 q 0.39822,0 1.25157,-0.019 0.87231,-0.0379 0.98608,-0.0569 l -0.019,0.58786 q -0.019,0.28444 -0.18963,0.45511 -0.17067,0.15171 -0.43615,0.15171 h -1.68773 v 0.56889 5.44244 q 0,1.00505 0.87231,1.00505 0.22756,0 0.45512,-0.0569 0.24652,-0.0759 0.30341,-0.20859 0.24652,0.32237 0.24652,0.77749 0,0.58786 -0.54993,0.94816 -0.54994,0.3603 -1.46017,0.3603 -1.09987,0 -1.70669,-0.70164 -0.60682,-0.70164 -0.60682,-1.91528 v -6.21993 h -0.26549 q -0.77749,0 -1.13779,0.0569 l 0.019,-0.58786 q 0.019,-0.28445 0.18964,-0.43615 0.18963,-0.15171 0.45511,-0.15171 h 0.73957 v -1.27053 q 0,-0.58786 0.39823,-0.9292 0.39822,-0.34134 1.02401,-0.34134 0.45512,0 0.81542,0.17067 0.3603,0.17067 0.56889,0.37926 -0.24652,0.96713 -0.32237,1.99114 z"
             id="path4353"
             style="stroke:#ffffff;stroke-width:2.416;stroke-dasharray:none;stroke-opacity:1" />
          <path
             d="m 148.34442,127.89804 q 0.24653,0.3603 0.24653,0.77749 0,0.54993 -0.47408,0.9292 -0.47408,0.37926 -1.27054,0.37926 -0.91023,0 -1.42224,-0.58786 -0.512,-0.60682 -0.58786,-1.95321 -0.53097,1.15676 -1.47913,1.85839 -0.94816,0.68268 -2.19973,0.68268 -1.11883,0 -1.8015,-0.58786 -0.68268,-0.58786 -0.68268,-1.6498 0,-1.21364 0.9292,-1.99113 0.9292,-0.7775 2.35144,-1.19469 1.2326,-0.34133 2.71173,-0.37926 v -0.47408 q 0,-1.61187 -0.37926,-2.3704 -0.37926,-0.75853 -1.30846,-0.75853 -0.60682,0 -0.98609,0.3603 -0.37926,0.34134 -0.37926,1.06194 0,1.00505 0.68267,1.40328 -0.20859,0.20859 -0.56889,0.32237 -0.34134,0.11378 -0.73957,0.11378 -0.8723,0 -1.38431,-0.49304 -0.49304,-0.49304 -0.49304,-1.25157 0,-1.11883 1.0809,-1.72565 1.0809,-0.62579 2.93929,-0.62579 2.10492,0 3.07204,0.96712 0.98609,0.96713 0.98609,3.1479 v 3.29959 q 0,1.00505 0.62578,1.00505 0.13275,0 0.28445,-0.0569 0.15171,-0.0759 0.24652,-0.20859 z m -6.04926,0.49304 q 0.54994,0 1.11883,-0.45512 0.5689,-0.45511 0.94816,-1.2326 0.37927,-0.79646 0.37927,-1.72566 -1.4981,0 -2.23766,0.41719 -0.53097,0.26549 -0.85335,0.72061 -0.30341,0.45511 -0.30341,1.04297 0,0.51201 0.22756,0.87231 0.24652,0.3603 0.7206,0.3603 z"
             id="path4355"
             style="stroke:#ffffff;stroke-width:2.416;stroke-dasharray:none;stroke-opacity:1" />
          <path
             d="m 153.00935,134.06108 q -1.53602,0 -2.56003,-0.54994 -1.00505,-0.53097 -1.00505,-1.63083 0,-0.7206 0.47408,-1.15676 0.47408,-0.41719 1.2326,-0.41719 0.7775,0 1.1378,0.41719 -0.5689,0.49305 -0.5689,1.2895 0,0.58786 0.34134,0.9292 0.34134,0.3603 1.02401,0.3603 1.23261,0 1.85839,-1.0809 0.64475,-1.08091 0.64475,-2.95826 0,-0.94816 0.019,-1.40328 -0.32238,0.9292 -1.06194,1.42224 -0.7206,0.49304 -1.80151,0.49304 -1.59291,0 -2.48418,-1.11882 -0.89127,-1.11883 -0.89127,-3.58405 0,-2.44625 1.09987,-3.88746 1.09986,-1.4412 3.52715,-1.4412 1.19469,0 2.25662,0.34134 1.06194,0.32237 1.76358,0.91023 v 7.96455 q 0,2.69277 -1.34638,3.88745 -1.32743,1.21365 -3.6599,1.21365 z m 0.47408,-5.42348 q 1.02401,0 1.53602,-0.94816 0.53097,-0.94816 0.54993,-2.61692 l 0.019,-4.03916 q -0.26548,-0.2086 -0.66371,-0.32238 -0.37926,-0.11377 -0.79645,-0.11377 -1.23261,0 -1.68773,1.17571 -0.45512,1.17572 -0.45512,3.54612 0,1.25157 0.13275,1.97217 0.1517,0.70164 0.47408,1.02402 0.32237,0.32237 0.89127,0.32237 z"
             id="path4357"
             style="stroke:#ffffff;stroke-width:2.416;stroke-dasharray:none;stroke-opacity:1" />
          <path
             d="m 167.93338,127.06366 q 0.30341,0.13274 0.30341,0.512 0,0.24652 -0.13275,0.5689 -0.3603,0.91023 -1.30846,1.42224 -0.94816,0.49304 -2.29454,0.49304 -2.19973,0 -3.48923,-1.34639 -1.2895,-1.36535 -1.2895,-3.83056 0,-2.40833 1.25157,-3.77368 1.25157,-1.36535 3.56508,-1.36535 1.68773,0 2.76863,0.75853 1.0809,0.73956 1.0809,2.10491 0,1.38432 -1.11883,2.14285 -1.11883,0.75852 -2.99618,0.75852 -1.21365,0 -1.87736,-0.0758 0.13274,1.6498 0.83438,2.3704 0.7206,0.7206 1.97217,0.7206 1.00505,0 1.70669,-0.39822 0.70164,-0.39823 1.02402,-1.06194 z m -3.48923,-6.46645 q -0.98609,0 -1.53602,1.06193 -0.54993,1.04298 -0.54993,2.90137 v 0.019 l 0.64474,0.019 q 1.17572,0 1.95321,-0.49304 0.79646,-0.49305 0.79646,-1.89632 0,-1.61187 -1.30846,-1.61187 z"
             id="path4359"
             style="stroke:#ffffff;stroke-width:2.416;stroke-dasharray:none;stroke-opacity:1" />
        </g>
        <g
           aria-label="Héritage"
           transform="scale(1.0990375,0.90988706)"
           id="text1907"
           style="font-weight:900;font-size:18.9632px;line-height:125%;font-family:'Arima Madurai';-inkscape-font-specification:'Arima Madurai, Heavy';text-align:center;letter-spacing:0px;word-spacing:0px;text-anchor:middle;fill:#004455;stroke-width:1.01589px">
          <path
             d="m 94.393519,119.75579 q 0,1.4981 0.360301,2.38937 -0.208595,0.20859 -0.587859,0.37926 -0.360301,0.17067 -0.834381,0.17067 -0.625785,0 -1.024013,-0.34134 -0.398227,-0.34134 -0.398227,-0.9292 v -5.23384 h -5.044211 v 3.56508 q 0,1.4981 0.360301,2.38937 -0.208595,0.20859 -0.587859,0.37926 -0.360301,0.17067 -0.834381,0.17067 -0.625786,0 -1.024013,-0.34134 -0.398227,-0.34134 -0.398227,-0.9292 v -9.51952 q 0,-1.44121 -0.360301,-2.38937 0.208595,-0.20859 0.568896,-0.37926 0.379264,-0.17067 0.853344,-0.17067 0.625786,0 1.024013,0.34134 0.398227,0.34134 0.398227,0.9292 v 4.62702 h 5.044211 v -2.95826 q 0,-1.44121 -0.360301,-2.38937 0.208596,-0.20859 0.568896,-0.37926 0.379264,-0.17067 0.853344,-0.17067 0.606823,0 1.00505,0.34134 0.41719,0.34134 0.41719,0.9292 z"
             id="path1350" />
          <path
             d="m 104.88017,119.6989 q 0.30341,0.13275 0.30341,0.51201 0,0.24652 -0.13274,0.5689 -0.3603,0.91023 -1.30846,1.42224 -0.94816,0.49304 -2.29455,0.49304 -2.199732,0 -3.48923,-1.34639 -1.289497,-1.36535 -1.289497,-3.83057 0,-2.40832 1.251571,-3.77367 1.251571,-1.36535 3.565086,-1.36535 1.68772,0 2.76862,0.75853 1.08091,0.73956 1.08091,2.10491 0,1.38431 -1.11883,2.14284 -1.11883,0.75853 -2.99619,0.75853 -1.21364,0 -1.877356,-0.0758 0.132742,1.6498 0.834376,2.3704 0.72061,0.7206 1.97218,0.7206 1.00505,0 1.70669,-0.39823 0.70163,-0.39823 1.02401,-1.06194 z m -3.48923,-6.46645 q -0.98609,0 -1.53602,1.06194 -0.549932,1.04298 -0.549932,2.90137 v 0.019 l 0.644748,0.019 q 1.175714,0 1.953214,-0.49305 0.79645,-0.49304 0.79645,-1.89632 0,-1.61187 -1.30846,-1.61187 z m -0.0759,-1.61187 q -0.68268,-0.0379 -0.89127,-0.17067 l 1.70668,-2.99618 q 0.0569,-0.019 0.2086,-0.019 0.47408,0 1.13779,0.18963 0.66371,0.17067 0.83438,0.30342 z"
             id="path1352" />
          <path
             d="m 112.14307,112.37911 q 1.0809,0 1.74461,0.58786 0.68268,0.56889 0.68268,1.57394 0,0.7206 -0.43616,1.19468 -0.43615,0.47408 -1.09986,0.49305 -0.75853,0 -1.11883,-0.39823 0.20859,-0.34134 0.28445,-0.62579 0.0759,-0.28444 0.0759,-0.66371 0,-0.49304 -0.2086,-0.73956 -0.20859,-0.26549 -0.62578,-0.26549 -0.70164,0 -1.09987,1.11883 -0.39822,1.09987 -0.39822,3.2996 0,2.02906 0.0569,2.74966 0.0569,0.70164 0.34133,1.38432 -0.20859,0.20859 -0.56889,0.3603 -0.3603,0.17067 -0.83438,0.18963 -0.58786,0 -1.00505,-0.37927 -0.41719,-0.37926 -0.41719,-1.02401 v -6.01133 q 0,-0.53097 -0.13275,-0.75853 -0.11378,-0.24652 -0.37926,-0.24652 -0.3603,0 -0.49304,0.22756 -0.22756,-0.37927 -0.22756,-0.77749 0,-0.5689 0.37926,-0.91024 0.39823,-0.3603 1.09987,-0.3603 0.83438,0 1.32742,0.51201 0.49305,0.512 0.5689,1.53602 0.64475,-2.06699 2.48418,-2.06699 z"
             id="path1354" />
          <path
             d="m 117.39584,111.44991 q -0.58785,0 -1.00505,-0.39823 -0.41719,-0.41719 -0.41719,-1.00505 0,-0.60682 0.41719,-1.00505 0.4172,-0.41719 1.00505,-0.41719 0.58786,0 0.98609,0.41719 0.39823,0.39823 0.39823,1.00505 0,0.58786 -0.39823,1.00505 -0.39823,0.39823 -0.98609,0.39823 z m 1.30847,8.30588 q 0,1.4981 0.3603,2.38937 -0.60683,0.54993 -1.42224,0.54993 -0.58786,0 -0.98609,-0.34134 -0.37926,-0.34134 -0.37926,-0.9292 v -6.10615 q 0,-1.4412 -0.36031,-2.40832 0.58786,-0.53097 1.36536,-0.53097 0.62578,0 1.00504,0.34134 0.39823,0.32237 0.39823,0.92919 z"
             id="path1356" />
          <path
             d="m 124.05192,112.66356 q 0.39822,0 1.25157,-0.019 0.8723,-0.0379 0.98608,-0.0569 l -0.019,0.58786 q -0.019,0.28445 -0.18963,0.45512 -0.17067,0.1517 -0.43616,0.1517 h -1.68772 v 0.5689 5.44244 q 0,1.00505 0.87231,1.00505 0.22755,0 0.45511,-0.0569 0.24652,-0.0758 0.30341,-0.2086 0.24653,0.32238 0.24653,0.77749 0,0.58786 -0.54994,0.94816 -0.54993,0.36031 -1.46016,0.36031 -1.09987,0 -1.70669,-0.70164 -0.60682,-0.70164 -0.60682,-1.91529 v -6.21993 h -0.26549 q -0.77749,0 -1.13779,0.0569 l 0.019,-0.58786 q 0.019,-0.28444 0.18963,-0.43615 0.18964,-0.1517 0.45512,-0.1517 h 0.73957 v -1.27054 q 0,-0.58786 0.39822,-0.9292 0.39823,-0.34133 1.02402,-0.34133 0.45511,0 0.81541,0.17067 0.3603,0.17066 0.5689,0.37926 -0.24652,0.96712 -0.32237,1.99114 z"
             id="path1358" />
          <path
             d="m 137.04168,120.53328 q 0.24652,0.3603 0.24652,0.77749 0,0.54994 -0.47408,0.9292 -0.47408,0.37927 -1.27053,0.37927 -0.91023,0 -1.42224,-0.58786 -0.51201,-0.60683 -0.58786,-1.95321 -0.53097,1.15675 -1.47913,1.85839 -0.94816,0.68268 -2.19973,0.68268 -1.11883,0 -1.8015,-0.58786 -0.68268,-0.58786 -0.68268,-1.6498 0,-1.21365 0.9292,-1.99114 0.92919,-0.77749 2.35143,-1.19468 1.23261,-0.34134 2.71174,-0.37926 v -0.47408 q 0,-1.61188 -0.37926,-2.3704 -0.37927,-0.75853 -1.30846,-0.75853 -0.60683,0 -0.98609,0.3603 -0.37926,0.34134 -0.37926,1.06194 0,1.00505 0.68267,1.40328 -0.20859,0.20859 -0.56889,0.32237 -0.34134,0.11378 -0.73957,0.11378 -0.87231,0 -1.38431,-0.49304 -0.49305,-0.49305 -0.49305,-1.25158 0,-1.11882 1.08091,-1.72565 1.0809,-0.62578 2.93929,-0.62578 2.10492,0 3.07204,0.96712 0.98609,0.96712 0.98609,3.14789 v 3.2996 q 0,1.00505 0.62578,1.00505 0.13275,0 0.28445,-0.0569 0.15171,-0.0758 0.24652,-0.2086 z m -6.04926,0.49305 q 0.54993,0 1.11883,-0.45512 0.5689,-0.45512 0.94816,-1.23261 0.37926,-0.79645 0.37926,-1.72565 -1.49809,0 -2.23765,0.41719 -0.53097,0.26549 -0.85335,0.7206 -0.30341,0.45512 -0.30341,1.04298 0,0.51201 0.22756,0.87231 0.24652,0.3603 0.7206,0.3603 z"
             id="path1360" />
          <path
             d="m 141.70661,126.69632 q -1.53602,0 -2.56004,-0.54993 -1.00505,-0.53097 -1.00505,-1.63083 0,-0.72061 0.47408,-1.15676 0.47408,-0.41719 1.23261,-0.41719 0.77749,0 1.13779,0.41719 -0.56889,0.49304 -0.56889,1.2895 0,0.58786 0.34134,0.92919 0.34133,0.36031 1.02401,0.36031 1.23261,0 1.85839,-1.08091 0.64475,-1.0809 0.64475,-2.95826 0,-0.94816 0.019,-1.40327 -0.32237,0.92919 -1.06194,1.42224 -0.7206,0.49304 -1.8015,0.49304 -1.59291,0 -2.48418,-1.11883 -0.89127,-1.11883 -0.89127,-3.58404 0,-2.44626 1.09987,-3.88746 1.09986,-1.4412 3.52715,-1.4412 1.19468,0 2.25662,0.34134 1.06194,0.32237 1.76358,0.91023 v 7.96454 q 0,2.69278 -1.34639,3.88746 -1.32742,1.21364 -3.65989,1.21364 z m 0.47408,-5.42347 q 1.02401,0 1.53601,-0.94816 0.53097,-0.94816 0.54994,-2.61692 l 0.019,-4.03916 q -0.26548,-0.2086 -0.66371,-0.32238 -0.37927,-0.11378 -0.79646,-0.11378 -1.2326,0 -1.68772,1.17572 -0.45512,1.17572 -0.45512,3.54612 0,1.25157 0.13275,1.97217 0.1517,0.70164 0.47408,1.02401 0.32237,0.32238 0.89127,0.32238 z"
             id="path1362" />
          <path
             d="m 156.63063,119.6989 q 0.30341,0.13275 0.30341,0.51201 0,0.24652 -0.13274,0.5689 -0.3603,0.91023 -1.30846,1.42224 -0.94816,0.49304 -2.29455,0.49304 -2.19973,0 -3.48922,-1.34639 -1.2895,-1.36535 -1.2895,-3.83057 0,-2.40832 1.25157,-3.77367 1.25157,-1.36535 3.56508,-1.36535 1.68773,0 2.76863,0.75853 1.0809,0.73956 1.0809,2.10491 0,1.38431 -1.11883,2.14284 -1.11883,0.75853 -2.99618,0.75853 -1.21365,0 -1.87736,-0.0758 0.13274,1.6498 0.83438,2.3704 0.7206,0.7206 1.97217,0.7206 1.00505,0 1.70669,-0.39823 0.70164,-0.39823 1.02401,-1.06194 z m -3.48923,-6.46645 q -0.98608,0 -1.53601,1.06194 -0.54994,1.04298 -0.54994,2.90137 v 0.019 l 0.64475,0.019 q 1.17572,0 1.95321,-0.49305 0.79646,-0.49304 0.79646,-1.89632 0,-1.61187 -1.30847,-1.61187 z"
             id="path1364" />
        </g>
      </g>
      <g
         id="g6930"
         transform="matrix(0.75049342,0,0,0.56709469,35.205779,50.197122)"
         style="fill:#00627a;fill-opacity:1">
        <g
           aria-label="Pour"
           transform="scale(1.0009036,0.99909721)"
           id="text1907-9-5"
           style="font-weight:900;font-size:16.9951px;line-height:125%;font-family:'Arima Madurai';-inkscape-font-specification:'Arima Madurai, Heavy';text-align:center;letter-spacing:0px;word-spacing:0px;text-anchor:middle;opacity:0.833197;stroke:#ffffff;stroke-width:1.99522;stroke-linecap:round;stroke-linejoin:round">
          <path
             d="m 114.93155,115.30361 q 2.54926,0 3.84089,0.84975 1.30862,0.83276 1.30862,2.65124 0,1.92044 -1.3596,2.95715 -1.34262,1.0197 -3.87489,1.0197 h -0.40788 v 2.32833 q 0,1.27463 0.32291,2.02242 -0.18695,0.18694 -0.52685,0.3399 -0.32291,0.15295 -0.74778,0.15295 -0.56084,0 -0.91774,-0.30591 -0.3569,-0.30591 -0.3569,-0.83276 v -8.53154 q 0,-1.29163 -0.3229,-2.14138 1.05369,-0.50985 3.04212,-0.50985 z m -0.18695,6.71306 q 1.54656,0 2.20937,-0.79877 0.6798,-0.79877 0.6798,-2.24335 0,-2.88917 -2.65124,-2.88917 -0.39088,0 -0.54384,0.017 v 5.91429 z"
             id="path1332" />
          <path
             d="m 125.41751,127.62505 q -1.95444,0 -3.05912,-1.20665 -1.10468,-1.22364 -1.10468,-3.39902 0,-2.19237 1.08768,-3.41601 1.10468,-1.22365 3.07612,-1.22365 1.95443,0 3.04212,1.22365 1.10468,1.22364 1.10468,3.41601 0,2.17538 -1.10468,3.39902 -1.08769,1.20665 -3.04212,1.20665 z m 0,-0.76477 q 1.78448,0 1.78448,-3.8409 0,-3.87488 -1.78448,-3.87488 -0.91774,0 -1.35961,0.96872 -0.44187,0.96872 -0.44187,2.90616 0,1.92045 0.44187,2.88917 0.44187,0.95173 1.35961,0.95173 z"
             id="path1334" />
          <path
             d="m 139.59141,125.78958 q 0.22094,0.32291 0.22094,0.67981 0,0.52685 -0.3569,0.83276 -0.3399,0.30591 -0.98572,0.30591 -0.76478,0 -1.22364,-0.49286 -0.44188,-0.49286 -0.47587,-1.47857 -0.71379,2.00542 -2.7702,2.00542 -1.3936,0 -2.03941,-0.79877 -0.64581,-0.79877 -0.64581,-2.65124 v -3.16108 q 0,-1.29163 -0.32291,-2.15838 0.59483,-0.49286 1.25764,-0.49286 0.56083,0 0.90074,0.30591 0.35689,0.30591 0.35689,0.84976 l 0.017,4.31675 q 0,1.46158 0.25493,2.10739 0.25492,0.64582 0.95172,0.64582 0.81577,0 1.30862,-1.01971 0.49286,-1.0197 0.49286,-2.95714 0,-1.86947 -0.051,-2.49828 -0.051,-0.64582 -0.32291,-1.27464 0.18695,-0.16995 0.50985,-0.3229 0.3399,-0.15296 0.74779,-0.15296 0.54384,0 0.90074,0.3399 0.37389,0.3399 0.37389,0.91774 l 0.017,5.45542 q 0,0.47587 0.10198,0.67981 0.10197,0.20394 0.3399,0.20394 0.28891,0 0.44187,-0.18695 z"
             id="path1336" />
          <path
             d="m 145.59067,118.37972 q 0.96872,0 1.56355,0.52685 0.61182,0.50985 0.61182,1.41059 0,0.64582 -0.39088,1.07069 -0.39089,0.42488 -0.98572,0.44188 -0.6798,0 -1.00271,-0.3569 0.18695,-0.30591 0.25493,-0.56084 0.068,-0.25493 0.068,-0.59483 0,-0.44187 -0.18695,-0.66281 -0.18695,-0.23793 -0.56084,-0.23793 -0.62882,0 -0.98571,1.00271 -0.3569,0.98572 -0.3569,2.95715 0,1.81848 0.051,2.46429 0.051,0.62882 0.30592,1.24064 -0.18695,0.18695 -0.50986,0.32291 -0.3229,0.15295 -0.74778,0.16995 -0.52685,0 -0.90074,-0.3399 -0.37389,-0.3399 -0.37389,-0.91774 v -5.38744 q 0,-0.47587 -0.11897,-0.67981 -0.10197,-0.22094 -0.3399,-0.22094 -0.32291,0 -0.44187,0.20395 -0.20395,-0.33991 -0.20395,-0.6968 0,-0.50986 0.33991,-0.81577 0.35689,-0.3229 0.98571,-0.3229 0.74779,0 1.18966,0.45886 0.44187,0.45887 0.50985,1.37661 0.57784,-1.85247 2.22636,-1.85247 z"
             id="path1338" />
        </g>
        <g
           aria-label="Pour"
           transform="scale(1.0009036,0.99909721)"
           id="text1907-9"
           style="font-weight:900;font-size:16.9951px;line-height:125%;font-family:'Arima Madurai';-inkscape-font-specification:'Arima Madurai, Heavy';text-align:center;letter-spacing:0px;word-spacing:0px;text-anchor:middle;stroke-width:0.910456px">
          <path
             d="m 114.93155,115.30361 q 2.54926,0 3.84089,0.84975 1.30862,0.83276 1.30862,2.65124 0,1.92044 -1.3596,2.95715 -1.34262,1.0197 -3.87489,1.0197 h -0.40788 v 2.32833 q 0,1.27463 0.32291,2.02242 -0.18695,0.18694 -0.52685,0.3399 -0.32291,0.15295 -0.74778,0.15295 -0.56084,0 -0.91774,-0.30591 -0.3569,-0.30591 -0.3569,-0.83276 v -8.53154 q 0,-1.29163 -0.3229,-2.14138 1.05369,-0.50985 3.04212,-0.50985 z m -0.18695,6.71306 q 1.54656,0 2.20937,-0.79877 0.6798,-0.79877 0.6798,-2.24335 0,-2.88917 -2.65124,-2.88917 -0.39088,0 -0.54384,0.017 v 5.91429 z"
             id="path1341" />
          <path
             d="m 125.41751,127.62505 q -1.95444,0 -3.05912,-1.20665 -1.10468,-1.22364 -1.10468,-3.39902 0,-2.19237 1.08768,-3.41601 1.10468,-1.22365 3.07612,-1.22365 1.95443,0 3.04212,1.22365 1.10468,1.22364 1.10468,3.41601 0,2.17538 -1.10468,3.39902 -1.08769,1.20665 -3.04212,1.20665 z m 0,-0.76477 q 1.78448,0 1.78448,-3.8409 0,-3.87488 -1.78448,-3.87488 -0.91774,0 -1.35961,0.96872 -0.44187,0.96872 -0.44187,2.90616 0,1.92045 0.44187,2.88917 0.44187,0.95173 1.35961,0.95173 z"
             id="path1343" />
          <path
             d="m 139.59141,125.78958 q 0.22094,0.32291 0.22094,0.67981 0,0.52685 -0.3569,0.83276 -0.3399,0.30591 -0.98572,0.30591 -0.76478,0 -1.22364,-0.49286 -0.44188,-0.49286 -0.47587,-1.47857 -0.71379,2.00542 -2.7702,2.00542 -1.3936,0 -2.03941,-0.79877 -0.64581,-0.79877 -0.64581,-2.65124 v -3.16108 q 0,-1.29163 -0.32291,-2.15838 0.59483,-0.49286 1.25764,-0.49286 0.56083,0 0.90074,0.30591 0.35689,0.30591 0.35689,0.84976 l 0.017,4.31675 q 0,1.46158 0.25493,2.10739 0.25492,0.64582 0.95172,0.64582 0.81577,0 1.30862,-1.01971 0.49286,-1.0197 0.49286,-2.95714 0,-1.86947 -0.051,-2.49828 -0.051,-0.64582 -0.32291,-1.27464 0.18695,-0.16995 0.50985,-0.3229 0.3399,-0.15296 0.74779,-0.15296 0.54384,0 0.90074,0.3399 0.37389,0.3399 0.37389,0.91774 l 0.017,5.45542 q 0,0.47587 0.10198,0.67981 0.10197,0.20394 0.3399,0.20394 0.28891,0 0.44187,-0.18695 z"
             id="path1345" />
          <path
             d="m 145.59067,118.37972 q 0.96872,0 1.56355,0.52685 0.61182,0.50985 0.61182,1.41059 0,0.64582 -0.39088,1.07069 -0.39089,0.42488 -0.98572,0.44188 -0.6798,0 -1.00271,-0.3569 0.18695,-0.30591 0.25493,-0.56084 0.068,-0.25493 0.068,-0.59483 0,-0.44187 -0.18695,-0.66281 -0.18695,-0.23793 -0.56084,-0.23793 -0.62882,0 -0.98571,1.00271 -0.3569,0.98572 -0.3569,2.95715 0,1.81848 0.051,2.46429 0.051,0.62882 0.30592,1.24064 -0.18695,0.18695 -0.50986,0.32291 -0.3229,0.15295 -0.74778,0.16995 -0.52685,0 -0.90074,-0.3399 -0.37389,-0.3399 -0.37389,-0.91774 v -5.38744 q 0,-0.47587 -0.11897,-0.67981 -0.10197,-0.22094 -0.3399,-0.22094 -0.32291,0 -0.44187,0.20395 -0.20395,-0.33991 -0.20395,-0.6968 0,-0.50986 0.33991,-0.81577 0.35689,-0.3229 0.98571,-0.3229 0.74779,0 1.18966,0.45886 0.44187,0.45887 0.50985,1.37661 0.57784,-1.85247 2.22636,-1.85247 z"
             id="path1347" />
        </g>
      </g>
      <g
         id="g7038"
         transform="matrix(0.7192031,0,0,0.69224777,39.065738,43.283057)"
         style="fill:#004455;fill-opacity:1"
         inkscape:path-effect="#path-effect1728"
         class="UnoptimicedTransforms">
        <g
           aria-label="Tous"
           transform="scale(1.0246028,0.97598797)"
           id="text1907-9-9-7"
           style="font-weight:900;font-size:20.9865px;line-height:125%;font-family:'Arima Madurai';-inkscape-font-specification:'Arima Madurai, Heavy';text-align:center;letter-spacing:0px;word-spacing:0px;text-anchor:middle;opacity:0.863194;stroke:#ffffff;stroke-width:2.64583;stroke-linejoin:round">
          <path
             d="m 114.43819,134.60283 c 0.1399,0 0.24484,0.0714 0.3148,0.21407 0.0839,0.14271 0.12592,0.32823 0.12592,0.55657 0,0.32822 -0.07,0.66359 -0.20987,1.00608 -0.13991,0.3425 -0.32179,0.5637 -0.54565,0.66359 -1.31516,-0.65645 -2.45542,-1.09171 -3.4208,-1.30577 l 0.021,10.76733 c 0,1.1274 0.13291,2.02646 0.39874,2.69718 -0.1679,0.15699 -0.39175,0.29969 -0.67157,0.42813 -0.26583,0.12843 -0.57363,0.19265 -0.9234,0.19265 -0.46171,0 -0.83947,-0.12843 -1.13327,-0.3853 -0.29382,-0.25688 -0.44072,-0.60651 -0.44072,-1.04891 v -12.65108 c -0.90942,0.19979 -2.04968,0.63505 -3.4208,1.30577 -0.20987,-0.0999 -0.38476,-0.32109 -0.52466,-0.66359 -0.13992,-0.34249 -0.20987,-0.67786 -0.20987,-1.00608 0,-0.22834 0.035,-0.41386 0.10494,-0.55657 0.07,-0.14271 0.18188,-0.21407 0.33578,-0.21407 z"
             id="path1710"
             inkscape:original-d="m 114.53579,134.75226 q 0.20986,0 0.3148,0.20987 0.12592,0.20986 0.12592,0.54565 0,0.48269 -0.20987,0.98636 -0.20986,0.50368 -0.54565,0.65058 -1.97273,-0.96538 -3.4208,-1.28017 l 0.021,10.55621 q 0,1.65793 0.39874,2.64429 -0.25184,0.23086 -0.67157,0.41973 -0.39874,0.18888 -0.9234,0.18888 -0.69256,0 -1.13327,-0.37775 -0.44072,-0.37776 -0.44072,-1.02834 v -12.40302 q -1.36412,0.29381 -3.4208,1.28017 -0.3148,-0.1469 -0.52466,-0.65058 -0.20987,-0.50367 -0.20987,-0.98636 0,-0.33579 0.10494,-0.54565 0.10493,-0.20987 0.33578,-0.20987 z" />
          <path
             d="m 121.00695,149.82266 c -1.60896,0 -2.86815,-0.50661 -3.77757,-1.51984 -0.90942,-1.0275 -1.36412,-2.45458 -1.36412,-4.28124 0,-1.84094 0.44771,-3.27516 1.34314,-4.30265 0.90941,-1.0275 2.17559,-1.54125 3.79855,-1.54125 1.60896,0 2.86116,0.51375 3.75659,1.54125 0.90941,1.02749 1.36412,2.46171 1.36412,4.30265 0,1.82666 -0.45471,3.25374 -1.36412,4.28124 -0.89543,1.01323 -2.14763,1.51984 -3.75659,1.51984 z m 0,-0.96327 c 1.46906,0 2.20359,-1.61261 2.20359,-4.83781 0,-3.25375 -0.73453,-4.88062 -2.20359,-4.88062 -0.75552,0 -1.31516,0.40672 -1.67892,1.22015 -0.36377,0.81344 -0.54565,2.03359 -0.54565,3.66047 0,1.6126 0.18188,2.82562 0.54565,3.63906 0.36376,0.79916 0.9234,1.19875 1.67892,1.19875 z"
             id="path1712"
             inkscape:original-d="m 121.10455,149.67366 q -2.41344,0 -3.77757,-1.49004 -1.36412,-1.51103 -1.36412,-4.1973 0,-2.70726 1.34314,-4.21828 1.36412,-1.51103 3.79855,-1.51103 2.41345,0 3.75659,1.51103 1.36412,1.51102 1.36412,4.21828 0,2.68627 -1.36412,4.1973 -1.34314,1.49004 -3.75659,1.49004 z m 0,-0.94439 q 2.20359,0 2.20359,-4.74295 0,-4.78492 -2.20359,-4.78492 -1.13327,0 -1.67892,1.19623 -0.54565,1.19623 -0.54565,3.58869 0,2.37148 0.54565,3.56771 0.54565,1.17524 1.67892,1.17524 z" />
          <path
             d="m 138.50968,147.51079 c 0.18189,0.27115 0.27283,0.55656 0.27283,0.85625 0,0.4424 -0.14691,0.79203 -0.44072,1.04891 -0.27982,0.25687 -0.68556,0.38531 -1.21722,0.38531 -0.62959,0 -1.13327,-0.20692 -1.51102,-0.62078 -0.36377,-0.41385 -0.55964,-1.03464 -0.58763,-1.86235 -0.58762,1.68396 -1.72789,2.52594 -3.4208,2.52594 -1.14726,0 -1.98672,-0.33536 -2.51838,-1.00609 -0.53165,-0.67073 -0.79748,-1.78385 -0.79748,-3.33937 v -3.98156 c 0,-1.08458 -0.13292,-1.99078 -0.39875,-2.71859 0.48969,-0.41385 1.00735,-0.62078 1.553,-0.62078 0.46171,0 0.83247,0.12843 1.11229,0.3853 0.29381,0.25688 0.44072,0.61365 0.44072,1.07032 l 0.021,5.43718 c 0,1.22729 0.10493,2.11209 0.3148,2.65438 0.20987,0.54229 0.60161,0.81343 1.17524,0.81343 0.67157,0 1.21023,-0.42813 1.61596,-1.28437 0.40574,-0.85625 0.60861,-2.09781 0.60861,-3.72469 0,-1.56978 -0.021,-2.61869 -0.063,-3.14671 -0.042,-0.54229 -0.17491,-1.07745 -0.39874,-1.60547 0.1539,-0.14271 0.36376,-0.27828 0.62959,-0.40671 0.27982,-0.12844 0.58762,-0.19266 0.92341,-0.19266 0.44771,0 0.81848,0.14271 1.11229,0.42812 0.3078,0.28542 0.4617,0.67073 0.4617,1.15594 l 0.021,6.87139 c 0,0.39959 0.042,0.68501 0.12592,0.85625 0.084,0.17125 0.22386,0.25688 0.41973,0.25688 0.23785,0 0.41973,-0.0785 0.54565,-0.23547 z"
             id="path1714"
             inkscape:original-d="m 138.60728,147.40712 q 0.27283,0.39874 0.27283,0.83946 0,0.65058 -0.44072,1.02834 -0.41973,0.37776 -1.21722,0.37776 -0.94439,0 -1.51102,-0.60861 -0.54565,-0.60861 -0.58763,-1.82583 -0.88143,2.47641 -3.4208,2.47641 -1.72089,0 -2.51838,-0.98637 -0.79748,-0.98636 -0.79748,-3.27389 v -3.90349 q 0,-1.59497 -0.39875,-2.66528 0.73453,-0.60861 1.553,-0.60861 0.69256,0 1.11229,0.37775 0.44072,0.37776 0.44072,1.04933 l 0.021,5.33057 q 0,1.80484 0.3148,2.60233 0.3148,0.79748 1.17524,0.79748 1.00736,0 1.61596,-1.25919 0.60861,-1.25919 0.60861,-3.65165 0,-2.30851 -0.063,-3.08501 -0.063,-0.79749 -0.39874,-1.57399 0.23085,-0.20987 0.62959,-0.39874 0.41973,-0.18888 0.92341,-0.18888 0.67157,0 1.11229,0.41973 0.4617,0.41973 0.4617,1.13327 l 0.021,6.73666 q 0,0.58763 0.12592,0.83946 0.12592,0.25184 0.41973,0.25184 0.35677,0 0.54565,-0.23085 z" />
          <path
             d="m 143.71432,149.82266 c -1.31515,0 -2.31551,-0.22833 -3.00107,-0.68499 -0.67157,-0.45667 -1.00735,-1.06318 -1.00735,-1.81954 0,-0.39958 0.11892,-0.74921 0.35677,-1.0489 0.25184,-0.29969 0.64359,-0.44953 1.17524,-0.44953 0.0979,0 0.25884,0.0143 0.48269,0.0428 -0.028,0.11417 -0.042,0.27828 -0.042,0.49235 0,0.2426 0.028,0.45666 0.084,0.64219 0.07,0.49947 0.3008,0.9276 0.69255,1.28437 0.39175,0.3425 0.9374,0.51375 1.63695,0.51375 0.57363,0 1.03533,-0.10704 1.38511,-0.3211 0.34977,-0.22833 0.52466,-0.56369 0.52466,-1.00609 0,-0.35677 -0.11193,-0.65645 -0.33579,-0.89906 -0.20986,-0.25687 -0.4617,-0.4638 -0.75551,-0.62078 -0.27982,-0.17125 -0.74852,-0.41385 -1.40609,-0.72781 -0.75552,-0.37104 -1.35713,-0.69927 -1.80484,-0.98469 -0.44771,-0.28541 -0.83247,-0.67072 -1.15426,-1.15593 -0.32179,-0.48522 -0.48269,-1.08459 -0.48269,-1.79813 0,-1.04177 0.39175,-1.81953 1.17524,-2.33328 0.7835,-0.52802 1.77686,-0.79203 2.98009,-0.79203 1.16125,0 2.08466,0.18552 2.77021,0.55656 0.69955,0.35677 1.04933,0.87052 1.04933,1.54125 0,0.35677 -0.10493,0.65646 -0.3148,0.89906 -0.19587,0.24261 -0.51767,0.37104 -0.96538,0.38532 -0.07,0.0143 -0.17488,0.0214 -0.31479,0.0214 -0.0839,0 -0.22386,-0.0143 -0.41973,-0.0428 0.014,-0.0713 0.021,-0.19266 0.021,-0.36391 0,-0.35677 -0.056,-0.64932 -0.16789,-0.87766 -0.11193,-0.35677 -0.32179,-0.63504 -0.6296,-0.83484 -0.3078,-0.19979 -0.68556,-0.29968 -1.13327,-0.29968 -0.4617,0 -0.84645,0.0999 -1.15425,0.29968 -0.30781,0.1998 -0.46171,0.49948 -0.46171,0.89906 0,0.37104 0.11193,0.69927 0.33579,0.98469 0.22385,0.27115 0.49668,0.50662 0.81847,0.70641 0.33579,0.18552 0.80449,0.42812 1.4061,0.72781 0.75551,0.37104 1.35713,0.69927 1.80484,0.98469 0.4617,0.27114 0.85345,0.62791 1.17524,1.07031 0.33579,0.44239 0.50368,0.97041 0.50368,1.58406 0,0.59938 -0.16789,1.16308 -0.50368,1.6911 -0.32179,0.51374 -0.84646,0.93473 -1.57399,1.26296 -0.71354,0.31396 -1.62995,0.47093 -2.74923,0.47093 z"
             id="path1716"
             inkscape:original-d="m 143.81192,149.67366 q -1.97273,0 -3.00107,-0.67156 -1.00735,-0.67157 -1.00735,-1.78386 0,-0.58762 0.35677,-1.02834 0.37776,-0.44071 1.17524,-0.44071 0.14691,0 0.48269,0.042 -0.042,0.16789 -0.042,0.48269 0,0.35677 0.084,0.6296 0.10493,0.73452 0.69255,1.25919 0.58762,0.50367 1.63695,0.50367 0.86044,0 1.38511,-0.3148 0.52466,-0.33578 0.52466,-0.98636 0,-0.52466 -0.33579,-0.88143 -0.31479,-0.37776 -0.75551,-0.60861 -0.41973,-0.25184 -1.40609,-0.71354 -1.13328,-0.54565 -1.80484,-0.96538 -0.67157,-0.41973 -1.15426,-1.13327 -0.48269,-0.71355 -0.48269,-1.76287 0,-1.53201 1.17524,-2.28753 1.17525,-0.7765 2.98009,-0.7765 1.74188,0 2.77021,0.54565 1.04933,0.52466 1.04933,1.51103 0,0.52466 -0.3148,0.88143 -0.29381,0.35677 -0.96538,0.37776 -0.10493,0.021 -0.31479,0.021 -0.12592,0 -0.41973,-0.042 0.021,-0.10493 0.021,-0.35677 0,-0.52466 -0.16789,-0.86045 -0.16789,-0.52466 -0.6296,-0.81847 -0.4617,-0.29381 -1.13327,-0.29381 -0.69255,0 -1.15425,0.29381 -0.46171,0.29381 -0.46171,0.88143 0,0.54565 0.33579,0.96538 0.33578,0.39875 0.81847,0.69256 0.50368,0.27282 1.4061,0.71354 1.13327,0.54565 1.80484,0.96538 0.69255,0.39874 1.17524,1.04932 0.50368,0.65058 0.50368,1.553 0,0.88144 -0.50368,1.65794 -0.48269,0.75551 -1.57399,1.2382 -1.07031,0.4617 -2.74923,0.4617 z" />
        </g>
        <g
           aria-label="Tous"
           transform="scale(1.0246028,0.97598797)"
           id="text1907-9-9"
           style="font-weight:900;font-size:20.9865px;line-height:125%;font-family:'Arima Madurai';-inkscape-font-specification:'Arima Madurai, Heavy';text-align:center;letter-spacing:0px;word-spacing:0px;text-anchor:middle;stroke-width:1.12426px">
          <path
             d="m 114.43819,134.60283 c 0.1399,0 0.24484,0.0714 0.3148,0.21407 0.0839,0.14271 0.12592,0.32823 0.12592,0.55657 0,0.32822 -0.07,0.66359 -0.20987,1.00608 -0.13991,0.3425 -0.32179,0.5637 -0.54565,0.66359 -1.31516,-0.65645 -2.45542,-1.09171 -3.4208,-1.30577 l 0.021,10.76733 c 0,1.1274 0.13291,2.02646 0.39874,2.69718 -0.1679,0.15699 -0.39175,0.29969 -0.67157,0.42813 -0.26583,0.12843 -0.57363,0.19265 -0.9234,0.19265 -0.46171,0 -0.83947,-0.12843 -1.13327,-0.3853 -0.29382,-0.25688 -0.44072,-0.60651 -0.44072,-1.04891 v -12.65108 c -0.90942,0.19979 -2.04968,0.63505 -3.4208,1.30577 -0.20987,-0.0999 -0.38476,-0.32109 -0.52466,-0.66359 -0.13992,-0.34249 -0.20987,-0.67786 -0.20987,-1.00608 0,-0.22834 0.035,-0.41386 0.10494,-0.55657 0.07,-0.14271 0.18188,-0.21407 0.33578,-0.21407 z"
             id="path1719"
             inkscape:original-d="m 114.53579,134.75226 q 0.20986,0 0.3148,0.20987 0.12592,0.20986 0.12592,0.54565 0,0.48269 -0.20987,0.98636 -0.20986,0.50368 -0.54565,0.65058 -1.97273,-0.96538 -3.4208,-1.28017 l 0.021,10.55621 q 0,1.65793 0.39874,2.64429 -0.25184,0.23086 -0.67157,0.41973 -0.39874,0.18888 -0.9234,0.18888 -0.69256,0 -1.13327,-0.37775 -0.44072,-0.37776 -0.44072,-1.02834 v -12.40302 q -1.36412,0.29381 -3.4208,1.28017 -0.3148,-0.1469 -0.52466,-0.65058 -0.20987,-0.50367 -0.20987,-0.98636 0,-0.33579 0.10494,-0.54565 0.10493,-0.20987 0.33578,-0.20987 z" />
          <path
             d="m 121.00695,149.82266 c -1.60896,0 -2.86815,-0.50661 -3.77757,-1.51984 -0.90942,-1.0275 -1.36412,-2.45458 -1.36412,-4.28124 0,-1.84094 0.44771,-3.27516 1.34314,-4.30265 0.90941,-1.0275 2.17559,-1.54125 3.79855,-1.54125 1.60896,0 2.86116,0.51375 3.75659,1.54125 0.90941,1.02749 1.36412,2.46171 1.36412,4.30265 0,1.82666 -0.45471,3.25374 -1.36412,4.28124 -0.89543,1.01323 -2.14763,1.51984 -3.75659,1.51984 z m 0,-0.96327 c 1.46906,0 2.20359,-1.61261 2.20359,-4.83781 0,-3.25375 -0.73453,-4.88062 -2.20359,-4.88062 -0.75552,0 -1.31516,0.40672 -1.67892,1.22015 -0.36377,0.81344 -0.54565,2.03359 -0.54565,3.66047 0,1.6126 0.18188,2.82562 0.54565,3.63906 0.36376,0.79916 0.9234,1.19875 1.67892,1.19875 z"
             id="path1721"
             inkscape:original-d="m 121.10455,149.67366 q -2.41344,0 -3.77757,-1.49004 -1.36412,-1.51103 -1.36412,-4.1973 0,-2.70726 1.34314,-4.21828 1.36412,-1.51103 3.79855,-1.51103 2.41345,0 3.75659,1.51103 1.36412,1.51102 1.36412,4.21828 0,2.68627 -1.36412,4.1973 -1.34314,1.49004 -3.75659,1.49004 z m 0,-0.94439 q 2.20359,0 2.20359,-4.74295 0,-4.78492 -2.20359,-4.78492 -1.13327,0 -1.67892,1.19623 -0.54565,1.19623 -0.54565,3.58869 0,2.37148 0.54565,3.56771 0.54565,1.17524 1.67892,1.17524 z" />
          <path
             d="m 138.50968,147.51079 c 0.18189,0.27115 0.27283,0.55656 0.27283,0.85625 0,0.4424 -0.14691,0.79203 -0.44072,1.04891 -0.27982,0.25687 -0.68556,0.38531 -1.21722,0.38531 -0.62959,0 -1.13327,-0.20692 -1.51102,-0.62078 -0.36377,-0.41385 -0.55964,-1.03464 -0.58763,-1.86235 -0.58762,1.68396 -1.72789,2.52594 -3.4208,2.52594 -1.14726,0 -1.98672,-0.33536 -2.51838,-1.00609 -0.53165,-0.67073 -0.79748,-1.78385 -0.79748,-3.33937 v -3.98156 c 0,-1.08458 -0.13292,-1.99078 -0.39875,-2.71859 0.48969,-0.41385 1.00735,-0.62078 1.553,-0.62078 0.46171,0 0.83247,0.12843 1.11229,0.3853 0.29381,0.25688 0.44072,0.61365 0.44072,1.07032 l 0.021,5.43718 c 0,1.22729 0.10493,2.11209 0.3148,2.65438 0.20987,0.54229 0.60161,0.81343 1.17524,0.81343 0.67157,0 1.21023,-0.42813 1.61596,-1.28437 0.40574,-0.85625 0.60861,-2.09781 0.60861,-3.72469 0,-1.56978 -0.021,-2.61869 -0.063,-3.14671 -0.042,-0.54229 -0.17491,-1.07745 -0.39874,-1.60547 0.1539,-0.14271 0.36376,-0.27828 0.62959,-0.40671 0.27982,-0.12844 0.58762,-0.19266 0.92341,-0.19266 0.44771,0 0.81848,0.14271 1.11229,0.42812 0.3078,0.28542 0.4617,0.67073 0.4617,1.15594 l 0.021,6.87139 c 0,0.39959 0.042,0.68501 0.12592,0.85625 0.084,0.17125 0.22386,0.25688 0.41973,0.25688 0.23785,0 0.41973,-0.0785 0.54565,-0.23547 z"
             id="path1723"
             inkscape:original-d="m 138.60728,147.40712 q 0.27283,0.39874 0.27283,0.83946 0,0.65058 -0.44072,1.02834 -0.41973,0.37776 -1.21722,0.37776 -0.94439,0 -1.51102,-0.60861 -0.54565,-0.60861 -0.58763,-1.82583 -0.88143,2.47641 -3.4208,2.47641 -1.72089,0 -2.51838,-0.98637 -0.79748,-0.98636 -0.79748,-3.27389 v -3.90349 q 0,-1.59497 -0.39875,-2.66528 0.73453,-0.60861 1.553,-0.60861 0.69256,0 1.11229,0.37775 0.44072,0.37776 0.44072,1.04933 l 0.021,5.33057 q 0,1.80484 0.3148,2.60233 0.3148,0.79748 1.17524,0.79748 1.00736,0 1.61596,-1.25919 0.60861,-1.25919 0.60861,-3.65165 0,-2.30851 -0.063,-3.08501 -0.063,-0.79749 -0.39874,-1.57399 0.23085,-0.20987 0.62959,-0.39874 0.41973,-0.18888 0.92341,-0.18888 0.67157,0 1.11229,0.41973 0.4617,0.41973 0.4617,1.13327 l 0.021,6.73666 q 0,0.58763 0.12592,0.83946 0.12592,0.25184 0.41973,0.25184 0.35677,0 0.54565,-0.23085 z" />
          <path
             d="m 143.71432,149.82266 c -1.31515,0 -2.31551,-0.22833 -3.00107,-0.68499 -0.67157,-0.45667 -1.00735,-1.06318 -1.00735,-1.81954 0,-0.39958 0.11892,-0.74921 0.35677,-1.0489 0.25184,-0.29969 0.64359,-0.44953 1.17524,-0.44953 0.0979,0 0.25884,0.0143 0.48269,0.0428 -0.028,0.11417 -0.042,0.27828 -0.042,0.49235 0,0.2426 0.028,0.45666 0.084,0.64219 0.07,0.49947 0.3008,0.9276 0.69255,1.28437 0.39175,0.3425 0.9374,0.51375 1.63695,0.51375 0.57363,0 1.03533,-0.10704 1.38511,-0.3211 0.34977,-0.22833 0.52466,-0.56369 0.52466,-1.00609 0,-0.35677 -0.11193,-0.65645 -0.33579,-0.89906 -0.20986,-0.25687 -0.4617,-0.4638 -0.75551,-0.62078 -0.27982,-0.17125 -0.74852,-0.41385 -1.40609,-0.72781 -0.75552,-0.37104 -1.35713,-0.69927 -1.80484,-0.98469 -0.44771,-0.28541 -0.83247,-0.67072 -1.15426,-1.15593 -0.32179,-0.48522 -0.48269,-1.08459 -0.48269,-1.79813 0,-1.04177 0.39175,-1.81953 1.17524,-2.33328 0.7835,-0.52802 1.77686,-0.79203 2.98009,-0.79203 1.16125,0 2.08466,0.18552 2.77021,0.55656 0.69955,0.35677 1.04933,0.87052 1.04933,1.54125 0,0.35677 -0.10493,0.65646 -0.3148,0.89906 -0.19587,0.24261 -0.51767,0.37104 -0.96538,0.38532 -0.07,0.0143 -0.17488,0.0214 -0.31479,0.0214 -0.0839,0 -0.22386,-0.0143 -0.41973,-0.0428 0.014,-0.0713 0.021,-0.19266 0.021,-0.36391 0,-0.35677 -0.056,-0.64932 -0.16789,-0.87766 -0.11193,-0.35677 -0.32179,-0.63504 -0.6296,-0.83484 -0.3078,-0.19979 -0.68556,-0.29968 -1.13327,-0.29968 -0.4617,0 -0.84645,0.0999 -1.15425,0.29968 -0.30781,0.1998 -0.46171,0.49948 -0.46171,0.89906 0,0.37104 0.11193,0.69927 0.33579,0.98469 0.22385,0.27115 0.49668,0.50662 0.81847,0.70641 0.33579,0.18552 0.80449,0.42812 1.4061,0.72781 0.75551,0.37104 1.35713,0.69927 1.80484,0.98469 0.4617,0.27114 0.85345,0.62791 1.17524,1.07031 0.33579,0.44239 0.50368,0.97041 0.50368,1.58406 0,0.59938 -0.16789,1.16308 -0.50368,1.6911 -0.32179,0.51374 -0.84646,0.93473 -1.57399,1.26296 -0.71354,0.31396 -1.62995,0.47093 -2.74923,0.47093 z"
             id="path1725"
             inkscape:original-d="m 143.81192,149.67366 q -1.97273,0 -3.00107,-0.67156 -1.00735,-0.67157 -1.00735,-1.78386 0,-0.58762 0.35677,-1.02834 0.37776,-0.44071 1.17524,-0.44071 0.14691,0 0.48269,0.042 -0.042,0.16789 -0.042,0.48269 0,0.35677 0.084,0.6296 0.10493,0.73452 0.69255,1.25919 0.58762,0.50367 1.63695,0.50367 0.86044,0 1.38511,-0.3148 0.52466,-0.33578 0.52466,-0.98636 0,-0.52466 -0.33579,-0.88143 -0.31479,-0.37776 -0.75551,-0.60861 -0.41973,-0.25184 -1.40609,-0.71354 -1.13328,-0.54565 -1.80484,-0.96538 -0.67157,-0.41973 -1.15426,-1.13327 -0.48269,-0.71355 -0.48269,-1.76287 0,-1.53201 1.17524,-2.28753 1.17525,-0.7765 2.98009,-0.7765 1.74188,0 2.77021,0.54565 1.04933,0.52466 1.04933,1.51103 0,0.52466 -0.3148,0.88143 -0.29381,0.35677 -0.96538,0.37776 -0.10493,0.021 -0.31479,0.021 -0.12592,0 -0.41973,-0.042 0.021,-0.10493 0.021,-0.35677 0,-0.52466 -0.16789,-0.86045 -0.16789,-0.52466 -0.6296,-0.81847 -0.4617,-0.29381 -1.13327,-0.29381 -0.69255,0 -1.15425,0.29381 -0.46171,0.29381 -0.46171,0.88143 0,0.54565 0.33579,0.96538 0.33578,0.39875 0.81847,0.69256 0.50368,0.27282 1.4061,0.71354 1.13327,0.54565 1.80484,0.96538 0.69255,0.39874 1.17524,1.04932 0.50368,0.65058 0.50368,1.553 0,0.88144 -0.50368,1.65794 -0.48269,0.75551 -1.57399,1.2382 -1.07031,0.4617 -2.74923,0.4617 z" />
        </g>
      </g>
    </g>
    <g
       id="g2915"
       transform="matrix(0.89341749,0,0,0.89341749,8.9516062,9.0239858)" />
    <g
       id="g2926"
       transform="matrix(0.89341749,0,0,0.89341749,-26.847692,10.763147)" />
    <use
       x="0"
       y="0"
       xlink:href="#g2926"
       id="use2928"
       transform="translate(4.5493859,12.061805)" />
    <text
       xml:space="preserve"
       transform="matrix(0.23638337,0,0,0.23638337,8.9516062,9.0239858)"
       id="text698"
       style="font-style:normal;font-variant:normal;font-weight:bold;font-stretch:normal;font-size:18.6667px;line-height:125%;font-family:Arial;-inkscape-font-specification:'Arial, Bold';font-variant-ligatures:normal;font-variant-caps:normal;font-variant-numeric:normal;font-feature-settings:normal;text-align:center;letter-spacing:0px;word-spacing:0px;writing-mode:lr-tb;white-space:pre;shape-inside:url(#rect700);display:inline;fill:#000000;fill-opacity:1;stroke:none;stroke-width:1px;stroke-linecap:butt;stroke-linejoin:miter;stroke-opacity:1" />
  </g>
</svg>
