<?xml version="1.0" encoding="UTF-8" standalone="no"?>
<!-- Created with Inkscape (http://www.inkscape.org/) -->

<svg
   width="159.41721mm"
   height="121.55702mm"
   viewBox="0 0 159.41721 121.55702"
   version="1.1"
   id="svg1445"
   inkscape:version="1.2.2 (732a01da63, 2022-12-09, custom)"
   sodipodi:docname="repartition-path.svg"
   xmlns:inkscape="http://www.inkscape.org/namespaces/inkscape"
   xmlns:sodipodi="http://sodipodi.sourceforge.net/DTD/sodipodi-0.dtd"
   xmlns="http://www.w3.org/2000/svg"
   xmlns:svg="http://www.w3.org/2000/svg">
  <sodipodi:namedview
     id="namedview1447"
     pagecolor="#ffffff"
     bordercolor="#666666"
     borderopacity="1.0"
     inkscape:showpageshadow="2"
     inkscape:pageopacity="0.0"
     inkscape:pagecheckerboard="0"
     inkscape:deskcolor="#d1d1d1"
     inkscape:document-units="mm"
     showgrid="false"
     inkscape:zoom="0.99276681"
     inkscape:cx="254.33969"
     inkscape:cy="151.09288"
     inkscape:window-width="1680"
     inkscape:window-height="959"
     inkscape:window-x="0"
     inkscape:window-y="0"
     inkscape:window-maximized="1"
     inkscape:current-layer="layer1">
    <inkscape:grid
       type="xygrid"
       id="grid1693"
       spacingx="2.6458333"
       spacingy="2.6458333"
       originx="-8.4168114"
       originy="-58.435385" />
  </sodipodi:namedview>
  <defs
     id="defs1442">
    <marker
       style="overflow:visible"
       id="Stop"
       refX="0"
       refY="0"
       orient="auto"
       inkscape:stockid="Stop"
       markerWidth="0.5"
       markerHeight="4"
       viewBox="0 0 1 8"
       inkscape:isstock="true"
       inkscape:collect="always"
       preserveAspectRatio="xMidYMid">
      <path
         style="fill:none;stroke:context-stroke;stroke-width:1"
         d="M 0,4 V -4"
         id="path171" />
    </marker>
    <marker
       style="overflow:visible"
       id="TriangleStart"
       refX="0"
       refY="0"
       orient="auto-start-reverse"
       inkscape:stockid="TriangleStart"
       markerWidth="3.3239999"
       markerHeight="3.8427744"
       viewBox="0 0 5.3244081 6.1553851"
       inkscape:isstock="true"
       inkscape:collect="always"
       preserveAspectRatio="xMidYMid">
      <path
         transform="scale(0.5)"
         style="fill:context-stroke;fill-rule:evenodd;stroke:context-stroke;stroke-width:1pt"
         d="M 5.77,0 -2.88,5 V -5 Z"
         id="path135" />
    </marker>
  </defs>
  <g
     inkscape:label="Calque 1"
     inkscape:groupmode="layer"
     id="layer1"
     transform="translate(-8.416811,-58.435384)">
    <rect
       style="fill:#cfffb4;fill-opacity:1;stroke:none;stroke-width:5.24314;stroke-linecap:round;stroke-linejoin:round;stroke-miterlimit:3.8;stroke-dasharray:10.4863, 10.4863;stroke-dashoffset:0;stroke-opacity:1"
       id="rect5674-9-8"
       width="116.37672"
       height="66.145828"
       x="23.711473"
       y="103.41455"
       ry="0" />
    <rect
       style="opacity:1;fill:#dccbf6;fill-opacity:1;stroke:none;stroke-width:2.46606;stroke-linecap:round;stroke-linejoin:round;stroke-miterlimit:3.8;stroke-dasharray:4.93213, 4.93213;stroke-dashoffset:0;stroke-opacity:1"
       id="rect5674-9"
       width="84.586792"
       height="20.132195"
       x="23.671534"
       y="149.42819"
       ry="0" />
    <rect
       style="opacity:1;fill:#fff07b;fill-opacity:1;stroke:none;stroke-width:1;stroke-linecap:round;stroke-linejoin:round;stroke-miterlimit:3.8;stroke-dasharray:2, 2;stroke-dashoffset:0;stroke-opacity:1"
       id="rect5674"
       width="52.916664"
       height="5.2916665"
       x="23.671534"
       y="164.26872"
       ry="1.4604418" />
    <rect
       style="opacity:0;fill:#808000;stroke:#2bf811;stroke-width:5.21229;stroke-linecap:round;stroke-linejoin:round"
       id="rect1670"
       width="78.78315"
       height="81.873466"
       x="11.022956"
       y="95.512794"
       ry="1.4604418" />
    <path
       style="fill:none;fill-rule:evenodd;stroke:#000000;stroke-width:0.966308;stroke-linecap:round;stroke-linejoin:miter;stroke-dasharray:none;stroke-opacity:1;marker-end:url(#TriangleStart)"
       d="M 23.671534,169.82157 V 89.179621"
       id="path1850"
       sodipodi:nodetypes="cc" />
    <path
       style="fill:none;fill-rule:evenodd;stroke:#000000;stroke-width:1.22522;stroke-linecap:round;stroke-linejoin:miter;stroke-miterlimit:3.8;stroke-dasharray:none;stroke-opacity:1;marker-end:url(#Stop)"
       d="M 23.64901,169.56038 H 155.9632"
       id="path1850-3"
       sodipodi:nodetypes="cc" />
    <g
       aria-label="Héritage"
       id="text3939"
       style="font-size:4.9389px;line-height:125%;font-family:Arial;-inkscape-font-specification:'Arial, Normal';text-align:center;letter-spacing:0px;word-spacing:0px;text-anchor:middle;stroke-width:0.264583px">
      <path
         d="M 14.733041,84.893715 V 81.35835 h 0.467845 v 1.451766 h 1.837618 V 81.35835 h 0.467845 v 3.535365 h -0.467845 v -1.666397 h -1.837618 v 1.666397 z"
         id="path9066" />
      <path
         d="m 19.983034,84.068957 0.448552,0.05547 q -0.106109,0.393087 -0.393086,0.610128 -0.286977,0.217042 -0.733118,0.217042 -0.561896,0 -0.892282,-0.344855 -0.327973,-0.347267 -0.327973,-0.971864 0,-0.646301 0.332797,-1.003214 0.332796,-0.356913 0.863342,-0.356913 0.513665,0 0.839228,0.349678 0.325562,0.349678 0.325562,0.983922 0,0.03859 -0.0024,0.115755 h -1.909965 q 0.02412,0.422026 0.238746,0.646302 0.21463,0.224276 0.535369,0.224276 0.238745,0 0.407555,-0.125402 0.16881,-0.125402 0.267685,-0.400321 z M 18.557795,83.36719 h 1.430062 q -0.02894,-0.323151 -0.163987,-0.484726 -0.207395,-0.250804 -0.53778,-0.250804 -0.299035,0 -0.504019,0.200161 -0.202572,0.20016 -0.224276,0.535369 z m 0.467845,-1.352892 0.320739,-0.675241 h 0.569131 l -0.530546,0.675241 z"
         id="path9068" />
      <path
         d="m 20.971779,84.893715 v -2.56109 h 0.390675 v 0.388263 q 0.149517,-0.272507 0.274919,-0.359324 0.127813,-0.08682 0.279742,-0.08682 0.219453,0 0.446141,0.139872 l -0.149517,0.402732 q -0.159164,-0.09405 -0.318328,-0.09405 -0.142283,0 -0.255627,0.08682 -0.113344,0.08441 -0.161575,0.236335 -0.07235,0.23151 -0.07235,0.50643 v 1.340834 z"
         id="path9070" />
      <path
         d="M 22.623706,81.857545 V 81.35835 h 0.434083 v 0.499195 z m 0,3.03617 v -2.56109 h 0.434083 v 2.56109 z"
         id="path9072" />
      <path
         d="m 24.666308,84.505452 0.0627,0.38344 q -0.183279,0.03858 -0.327973,0.03858 -0.236334,0 -0.366559,-0.07476 -0.130225,-0.07476 -0.18328,-0.195337 -0.05305,-0.12299 -0.05305,-0.513665 v -1.473471 h -0.318328 v -0.33762 h 0.318328 v -0.634243 l 0.431671,-0.26045 v 0.894693 h 0.436495 v 0.33762 h -0.436495 v 1.497587 q 0,0.185691 0.0217,0.238745 0.02412,0.05306 0.07476,0.08441 0.05305,0.03135 0.149517,0.03135 0.07235,0 0.190515,-0.01688 z"
         id="path9074" />
      <path
         d="m 26.761964,84.577799 q -0.241157,0.204984 -0.465433,0.289389 -0.221865,0.08441 -0.477492,0.08441 -0.422025,0 -0.648713,-0.204984 -0.226688,-0.207395 -0.226688,-0.528134 0,-0.188103 0.08441,-0.342444 0.08682,-0.156752 0.224276,-0.250803 0.139871,-0.09405 0.313504,-0.142283 0.127813,-0.03376 0.385852,-0.06511 0.525722,-0.0627 0.774114,-0.149518 0.0024,-0.08923 0.0024,-0.113344 0,-0.265273 -0.12299,-0.373793 -0.166399,-0.147106 -0.494373,-0.147106 -0.306269,0 -0.453375,0.10852 -0.144694,0.10611 -0.21463,0.378617 l -0.424437,-0.05788 q 0.05788,-0.272508 0.190514,-0.438907 0.132637,-0.16881 0.38344,-0.258038 0.250804,-0.09164 0.581189,-0.09164 0.327974,0 0.532958,0.07717 0.204983,0.07717 0.301446,0.195337 0.09646,0.115756 0.135048,0.294212 0.02171,0.110932 0.02171,0.400321 v 0.578777 q 0,0.605305 0.02653,0.76688 0.02894,0.159164 0.110932,0.30627 h -0.453375 q -0.06752,-0.135048 -0.08682,-0.315916 z m -0.03617,-0.969452 q -0.236334,0.09646 -0.709002,0.163987 -0.267684,0.03858 -0.378617,0.08682 -0.110932,0.04823 -0.171221,0.142283 -0.06029,0.09164 -0.06029,0.204984 0,0.173633 0.130225,0.289388 0.132637,0.115756 0.385852,0.115756 0.250803,0 0.446141,-0.108521 0.195337,-0.110932 0.286977,-0.301446 0.06994,-0.147106 0.06994,-0.434083 z"
         id="path9076" />
      <path
         d="m 27.757943,85.105933 0.422025,0.0627 q 0.02653,0.195337 0.147106,0.284566 0.161575,0.120578 0.441318,0.120578 0.301446,0 0.465433,-0.120578 0.163987,-0.120579 0.221865,-0.33762 0.03376,-0.132637 0.03135,-0.557074 -0.284565,0.335209 -0.709002,0.335209 -0.528134,0 -0.817523,-0.381029 -0.289389,-0.381028 -0.289389,-0.913985 0,-0.366559 0.132637,-0.675241 0.132636,-0.311092 0.38344,-0.479903 0.253215,-0.16881 0.593247,-0.16881 0.453375,0 0.747587,0.366559 v -0.308681 h 0.400321 v 2.213823 q 0,0.59807 -0.12299,0.846462 -0.120579,0.250804 -0.385852,0.395498 -0.262861,0.144695 -0.648713,0.144695 -0.458198,0 -0.740352,-0.207396 -0.282154,-0.204983 -0.272508,-0.619774 z m 0.359324,-1.538583 q 0,0.504019 0.200161,0.73553 0.20016,0.231511 0.501607,0.231511 0.299035,0 0.501607,-0.2291 0.202572,-0.231511 0.202572,-0.723471 0,-0.470257 -0.209807,-0.709003 -0.207395,-0.238745 -0.501607,-0.238745 -0.289389,0 -0.491961,0.236334 -0.202572,0.233922 -0.202572,0.696944 z"
         id="path9078" />
      <path
         d="m 32.337519,84.068957 0.448553,0.05547 q -0.10611,0.393087 -0.393087,0.610128 -0.286977,0.217042 -0.733118,0.217042 -0.561896,0 -0.892281,-0.344855 -0.327974,-0.347267 -0.327974,-0.971864 0,-0.646301 0.332797,-1.003214 0.332797,-0.356913 0.863343,-0.356913 0.513665,0 0.839227,0.349678 0.325562,0.349678 0.325562,0.983922 0,0.03859 -0.0024,0.115755 h -1.909965 q 0.02412,0.422026 0.238746,0.646302 0.21463,0.224276 0.535369,0.224276 0.238746,0 0.407556,-0.125402 0.16881,-0.125402 0.267684,-0.400321 z M 30.91228,83.36719 h 1.430062 q -0.02894,-0.323151 -0.163987,-0.484726 -0.207395,-0.250804 -0.53778,-0.250804 -0.299035,0 -0.504019,0.200161 -0.202572,0.20016 -0.224276,0.535369 z"
         id="path9080" />
    </g>
    <g
       aria-label="% français
"
       id="text3939-5"
       style="font-size:4.9389px;line-height:125%;font-family:Arial;-inkscape-font-specification:'Arial, Normal';letter-spacing:0px;word-spacing:0px;stroke-width:0.264583px">
      <path
         d="m 139.84771,161.16295 q 0,-0.37862 0.19051,-0.64389 0.19052,-0.26527 0.55225,-0.26527 0.3328,0 0.54984,0.23874 0.21945,0.23634 0.21945,0.69695 0,0.44855 -0.22186,0.69212 -0.21945,0.24116 -0.54261,0.24116 -0.32073,0 -0.53536,-0.23875 -0.21222,-0.23875 -0.21222,-0.72106 z m 0.75482,-0.61013 q -0.16158,0 -0.2701,0.13987 -0.10611,0.13987 -0.10611,0.51367 0,0.34003 0.10852,0.4799 0.10853,0.13746 0.26769,0.13746 0.16399,0 0.2701,-0.13987 0.10852,-0.13987 0.10852,-0.51125 0,-0.34245 -0.10852,-0.47991 -0.10853,-0.13987 -0.2701,-0.13987 z m 0.002,3.42685 1.93408,-3.72588 h 0.35209 l -1.92684,3.72588 z m 1.52894,-0.95981 q 0,-0.38103 0.19051,-0.64389 0.19052,-0.26527 0.55466,-0.26527 0.3328,0 0.54984,0.23874 0.21945,0.23634 0.21945,0.69695 0,0.44855 -0.22186,0.69212 -0.21945,0.24116 -0.54502,0.24116 -0.32073,0 -0.53536,-0.23875 -0.21222,-0.24116 -0.21222,-0.72106 z m 0.75723,-0.61013 q -0.16399,0 -0.27251,0.13987 -0.10611,0.13988 -0.10611,0.51367 0,0.33762 0.10853,0.47749 0.10852,0.13987 0.26768,0.13987 0.1664,0 0.27251,-0.13987 0.10852,-0.13987 0.10852,-0.51125 0,-0.34245 -0.10852,-0.47991 -0.10852,-0.13987 -0.2701,-0.13987 z"
         id="path9083" />
      <path
         d="m 145.75365,163.84944 v -2.22347 h -0.38344 v -0.33762 h 0.38344 v -0.27251 q 0,-0.25803 0.0458,-0.38344 0.0627,-0.16881 0.21945,-0.2725 0.15916,-0.10611 0.44373,-0.10611 0.18328,0 0.40514,0.0434 l -0.0651,0.37861 q -0.13505,-0.0241 -0.25562,-0.0241 -0.19775,0 -0.27975,0.0844 -0.082,0.0844 -0.082,0.31592 v 0.23633 h 0.49919 v 0.33762 h -0.49919 v 2.22347 z"
         id="path9085" />
      <path
         d="m 147.01731,163.84944 v -2.56109 h 0.39068 v 0.38826 q 0.14951,-0.2725 0.27492,-0.35932 0.12781,-0.0868 0.27974,-0.0868 0.21945,0 0.44614,0.13988 l -0.14952,0.40273 q -0.15916,-0.094 -0.31833,-0.094 -0.14228,0 -0.25562,0.0868 -0.11335,0.0844 -0.16158,0.23634 -0.0724,0.23151 -0.0724,0.50643 v 1.34083 z"
         id="path9087" />
      <path
         d="m 150.33805,163.53353 q -0.24116,0.20498 -0.46544,0.28938 -0.22186,0.0844 -0.47749,0.0844 -0.42202,0 -0.64871,-0.20498 -0.22669,-0.2074 -0.22669,-0.52814 0,-0.1881 0.0844,-0.34244 0.0868,-0.15675 0.22427,-0.25081 0.13987,-0.0941 0.31351,-0.14228 0.12781,-0.0338 0.38585,-0.0651 0.52572,-0.0627 0.77411,-0.14952 0.002,-0.0892 0.002,-0.11334 0,-0.26528 -0.12299,-0.3738 -0.16639,-0.1471 -0.49437,-0.1471 -0.30627,0 -0.45337,0.10852 -0.1447,0.10611 -0.21463,0.37862 l -0.42444,-0.0579 q 0.0579,-0.27251 0.19051,-0.43891 0.13264,-0.16881 0.38344,-0.25804 0.25081,-0.0916 0.58119,-0.0916 0.32798,0 0.53296,0.0772 0.20498,0.0772 0.30145,0.19534 0.0965,0.11576 0.13504,0.29421 0.0217,0.11094 0.0217,0.40032 v 0.57878 q 0,0.60531 0.0265,0.76688 0.0289,0.15917 0.11093,0.30627 h -0.45338 q -0.0675,-0.13505 -0.0868,-0.31591 z m -0.0362,-0.96946 q -0.23633,0.0965 -0.709,0.16399 -0.26768,0.0386 -0.37862,0.0868 -0.11093,0.0482 -0.17122,0.14228 -0.0603,0.0916 -0.0603,0.20498 0,0.17364 0.13023,0.28939 0.13263,0.11576 0.38585,0.11576 0.2508,0 0.44614,-0.10852 0.19534,-0.11094 0.28698,-0.30145 0.0699,-0.14711 0.0699,-0.43408 z"
         id="path9089" />
      <path
         d="m 151.41361,163.84944 v -2.56109 h 0.39067 v 0.36415 q 0.28216,-0.42203 0.81511,-0.42203 0.23152,0 0.42444,0.0844 0.19534,0.082 0.2918,0.21704 0.0965,0.13505 0.13505,0.32074 0.0241,0.12058 0.0241,0.42202 v 1.57476 h -0.43409 v -1.55787 q 0,-0.26528 -0.0506,-0.3955 -0.0506,-0.13264 -0.18087,-0.20981 -0.12781,-0.0796 -0.30145,-0.0796 -0.27733,0 -0.4799,0.17604 -0.20016,0.17605 -0.20016,0.66801 v 1.39871 z"
         id="path9091" />
      <path
         d="m 155.83161,162.91134 0.42685,0.0555 q -0.0699,0.44131 -0.35933,0.69212 -0.28697,0.24839 -0.70659,0.24839 -0.52572,0 -0.84646,-0.34244 -0.31833,-0.34486 -0.31833,-0.98634 0,-0.41479 0.13746,-0.72588 0.13746,-0.31109 0.4172,-0.46543 0.28216,-0.15676 0.61254,-0.15676 0.41721,0 0.68248,0.21222 0.26527,0.20981 0.34003,0.59807 l -0.42203,0.0651 q -0.0603,-0.25803 -0.21463,-0.38826 -0.15192,-0.13022 -0.36897,-0.13022 -0.32797,0 -0.53295,0.23633 -0.20499,0.23392 -0.20499,0.74277 0,0.51607 0.19775,0.74999 0.19775,0.23393 0.51608,0.23393 0.25563,0 0.42685,-0.15676 0.17122,-0.15675 0.21704,-0.48231 z m -1.00563,1.26125 0.1254,-0.42685 h 0.32316 l -0.0796,0.25804 q 0.20499,0.0241 0.30868,0.1254 0.1037,0.1037 0.1037,0.2291 0,0.18087 -0.17363,0.31833 -0.17363,0.13987 -0.52331,0.13987 -0.19775,0 -0.34727,-0.0289 l 0.0265,-0.28215 q 0.15434,0.01 0.22669,0.01 0.22668,0 0.31832,-0.0627 0.0699,-0.0482 0.0699,-0.11816 0,-0.0434 -0.0289,-0.0772 -0.0265,-0.0338 -0.10129,-0.0579 -0.0747,-0.0241 -0.24839,-0.0265 z"
         id="path9093" />
      <path
         d="m 158.30106,163.53353 q -0.24116,0.20498 -0.46543,0.28938 -0.22187,0.0844 -0.4775,0.0844 -0.42202,0 -0.64871,-0.20498 -0.22669,-0.2074 -0.22669,-0.52814 0,-0.1881 0.0844,-0.34244 0.0868,-0.15675 0.22428,-0.25081 0.13987,-0.0941 0.3135,-0.14228 0.12781,-0.0338 0.38585,-0.0651 0.52572,-0.0627 0.77412,-0.14952 0.002,-0.0892 0.002,-0.11334 0,-0.26528 -0.12299,-0.3738 -0.1664,-0.1471 -0.49438,-0.1471 -0.30626,0 -0.45337,0.10852 -0.1447,0.10611 -0.21463,0.37862 l -0.42444,-0.0579 q 0.0579,-0.27251 0.19052,-0.43891 0.13263,-0.16881 0.38344,-0.25804 0.2508,-0.0916 0.58119,-0.0916 0.32797,0 0.53295,0.0772 0.20499,0.0772 0.30145,0.19534 0.0965,0.11576 0.13505,0.29421 0.0217,0.11094 0.0217,0.40032 v 0.57878 q 0,0.60531 0.0265,0.76688 0.0289,0.15917 0.11093,0.30627 h -0.45337 q -0.0675,-0.13505 -0.0868,-0.31591 z m -0.0362,-0.96946 q -0.23634,0.0965 -0.70901,0.16399 -0.26768,0.0386 -0.37861,0.0868 -0.11094,0.0482 -0.17123,0.14228 -0.0603,0.0916 -0.0603,0.20498 0,0.17364 0.13022,0.28939 0.13264,0.11576 0.38585,0.11576 0.25081,0 0.44614,-0.10852 0.19534,-0.11094 0.28698,-0.30145 0.0699,-0.14711 0.0699,-0.43408 z"
         id="path9095" />
      <path
         d="m 159.37903,160.81327 v -0.49919 h 0.43408 v 0.49919 z m 0,3.03617 v -2.56109 h 0.43408 v 2.56109 z"
         id="path9097" />
      <path
         d="m 160.30025,163.08497 0.42926,-0.0675 q 0.0362,0.25804 0.20016,0.3955 0.1664,0.13746 0.46302,0.13746 0.29904,0 0.44373,-0.12058 0.1447,-0.12299 0.1447,-0.28698 0,-0.14711 -0.12782,-0.23151 -0.0892,-0.0579 -0.44372,-0.14711 -0.4775,-0.12057 -0.66319,-0.20739 -0.18328,-0.0892 -0.27974,-0.24357 -0.094,-0.15675 -0.094,-0.34485 0,-0.17123 0.0772,-0.31592 0.0796,-0.14711 0.21463,-0.24357 0.10129,-0.0748 0.27492,-0.1254 0.17604,-0.0531 0.3762,-0.0531 0.30145,0 0.52814,0.0868 0.2291,0.0868 0.33762,0.23633 0.10852,0.14711 0.14952,0.3955 l -0.42444,0.0579 q -0.0289,-0.19775 -0.16881,-0.30868 -0.13746,-0.11093 -0.39068,-0.11093 -0.29903,0 -0.42684,0.0989 -0.12782,0.0989 -0.12782,0.23151 0,0.0844 0.0531,0.15193 0.0531,0.0699 0.1664,0.11576 0.0651,0.0241 0.38344,0.11093 0.46061,0.12299 0.64147,0.20257 0.18328,0.0772 0.28698,0.22669 0.1037,0.14952 0.1037,0.37138 0,0.21704 -0.12781,0.40997 -0.12541,0.19051 -0.36415,0.29662 -0.23875,0.1037 -0.54019,0.1037 -0.4992,0 -0.76206,-0.2074 -0.26045,-0.20739 -0.3328,-0.61495 z"
         id="path9099" />
    </g>
    <g
       aria-label="100%"
       id="text3939-5-1"
       style="font-size:4.23333px;line-height:125%;font-family:Arial;-inkscape-font-specification:'Arial, Normal';text-align:center;letter-spacing:0px;word-spacing:0px;text-anchor:middle;stroke-width:0.264583px">
      <path
         d="m 149.48091,177.49788 h -0.37207 v -2.37091 q -0.13436,0.12815 -0.35346,0.25631 -0.21704,0.12816 -0.39068,0.19224 v -0.35967 q 0.31213,-0.14676 0.54571,-0.35553 0.23357,-0.20878 0.33072,-0.40515 h 0.23978 z"
         id="path9102" />
      <path
         d="m 150.43383,176.0034 q 0,-0.53744 0.10955,-0.86403 0.11162,-0.32866 0.32866,-0.50643 0.21911,-0.17777 0.54984,-0.17777 0.24391,0 0.42788,0.0992 0.18397,0.0971 0.30386,0.28319 0.11988,0.18397 0.1881,0.45062 0.0682,0.26458 0.0682,0.7152 0,0.5333 -0.10955,0.86196 -0.10956,0.32659 -0.32867,0.50643 -0.21704,0.17777 -0.54983,0.17777 -0.43822,0 -0.68833,-0.3142 -0.29972,-0.37827 -0.29972,-1.23196 z m 0.3824,0 q 0,0.7462 0.17363,0.99425 0.1757,0.24598 0.43202,0.24598 0.25631,0 0.42995,-0.24805 0.17569,-0.24804 0.17569,-0.99218 0,-0.74828 -0.17569,-0.99426 -0.17364,-0.24598 -0.43409,-0.24598 -0.25631,0 -0.40927,0.21705 -0.19224,0.27698 -0.19224,1.02319 z"
         id="path9104" />
      <path
         d="m 152.7882,176.0034 q 0,-0.53744 0.10956,-0.86403 0.11162,-0.32866 0.32866,-0.50643 0.21911,-0.17777 0.54983,-0.17777 0.24392,0 0.42788,0.0992 0.18397,0.0971 0.30386,0.28319 0.11989,0.18397 0.1881,0.45062 0.0682,0.26458 0.0682,0.7152 0,0.5333 -0.10956,0.86196 -0.10955,0.32659 -0.32866,0.50643 -0.21704,0.17777 -0.54984,0.17777 -0.43821,0 -0.68833,-0.3142 -0.29972,-0.37827 -0.29972,-1.23196 z m 0.38241,0 q 0,0.7462 0.17363,0.99425 0.1757,0.24598 0.43201,0.24598 0.25632,0 0.42995,-0.24805 0.1757,-0.24804 0.1757,-0.99218 0,-0.74828 -0.1757,-0.99426 -0.17363,-0.24598 -0.43408,-0.24598 -0.25632,0 -0.40928,0.21705 -0.19223,0.27698 -0.19223,1.02319 z"
         id="path9106" />
      <path
         d="m 155.21286,175.19518 q 0,-0.32453 0.1633,-0.5519 0.16329,-0.22738 0.47335,-0.22738 0.28525,0 0.47129,0.20464 0.1881,0.20257 0.1881,0.59738 0,0.38447 -0.19017,0.59324 -0.1881,0.20671 -0.46509,0.20671 -0.27491,0 -0.45888,-0.20464 -0.1819,-0.20464 -0.1819,-0.61805 z m 0.64699,-0.52297 q -0.1385,0 -0.23151,0.11989 -0.091,0.11989 -0.091,0.44029 0,0.29145 0.093,0.41134 0.093,0.11782 0.22945,0.11782 0.14056,0 0.23151,-0.11989 0.093,-0.11989 0.093,-0.43821 0,-0.29352 -0.093,-0.41135 -0.093,-0.11989 -0.23151,-0.11989 z m 0.002,2.93729 1.65778,-3.1936 h 0.30179 l -1.65158,3.1936 z m 1.31052,-0.82269 q 0,-0.32659 0.16329,-0.5519 0.1633,-0.22738 0.47543,-0.22738 0.28525,0 0.47129,0.20464 0.1881,0.20257 0.1881,0.59738 0,0.38447 -0.19017,0.59324 -0.1881,0.20671 -0.46716,0.20671 -0.27491,0 -0.45888,-0.20464 -0.1819,-0.2067 -0.1819,-0.61805 z m 0.64905,-0.52296 q -0.14056,0 -0.23358,0.11989 -0.0909,0.11989 -0.0909,0.44028 0,0.28939 0.093,0.40928 0.093,0.11989 0.22944,0.11989 0.14263,0 0.23358,-0.11989 0.093,-0.11989 0.093,-0.43822 0,-0.29352 -0.093,-0.41134 -0.093,-0.11989 -0.23151,-0.11989 z"
         id="path9108" />
    </g>
    <g
       aria-label="39%"
       id="text3939-5-1-8"
       style="font-size:4.23333px;line-height:125%;font-family:Arial;-inkscape-font-specification:'Arial, Normal';text-align:center;letter-spacing:0px;word-spacing:0px;text-anchor:middle;fill:#747474;stroke-width:0.264583px">
      <path
         d="m 72.190535,176.58631 0.37207,-0.0496 q 0.06408,0.31626 0.217041,0.45682 0.155029,0.13849 0.376204,0.13849 0.262516,0 0.44235,-0.1819 0.181901,-0.1819 0.181901,-0.45062 0,-0.25631 -0.167431,-0.42168 -0.167432,-0.16743 -0.425814,-0.16743 -0.10542,0 -0.262516,0.0413 l 0.04134,-0.32659 q 0.03721,0.004 0.05994,0.004 0.237711,0 0.42788,-0.12402 0.190169,-0.12402 0.190169,-0.3824 0,-0.20464 -0.138492,-0.339 -0.138493,-0.13436 -0.357601,-0.13436 -0.217041,0 -0.361735,0.13643 -0.144694,0.13642 -0.186035,0.40927 l -0.37207,-0.0661 q 0.06821,-0.37414 0.310059,-0.57878 0.241845,-0.2067 0.601513,-0.2067 0.248047,0 0.456819,0.10748 0.208773,0.10542 0.318327,0.28939 0.111621,0.18397 0.111621,0.39067 0,0.19637 -0.10542,0.3576 -0.10542,0.16123 -0.312126,0.25632 0.268718,0.062 0.417546,0.25838 0.148828,0.1943 0.148828,0.48783 0,0.39687 -0.289388,0.67386 -0.289388,0.27491 -0.731738,0.27491 -0.398941,0 -0.663525,-0.23771 -0.262516,-0.23771 -0.299723,-0.61598 z"
         id="path9111" />
      <path
         d="m 74.598655,176.68553 0.357601,-0.0331 q 0.04548,0.25218 0.173632,0.36587 0.128158,0.11368 0.328662,0.11368 0.171566,0 0.299723,-0.0785 0.130225,-0.0786 0.212907,-0.20878 0.08268,-0.13229 0.138493,-0.35553 0.05581,-0.22324 0.05581,-0.45475 0,-0.0248 -0.0021,-0.0744 -0.111621,0.17777 -0.305924,0.28939 -0.192236,0.10955 -0.417545,0.10955 -0.376204,0 -0.636653,-0.27285 -0.260449,-0.27285 -0.260449,-0.71933 0,-0.46096 0.270784,-0.74208 0.272851,-0.28111 0.682128,-0.28111 0.295589,0 0.539502,0.15916 0.245979,0.15916 0.37207,0.45475 0.128157,0.29352 0.128157,0.85163 0,0.58084 -0.12609,0.92604 -0.126091,0.34313 -0.376204,0.52296 -0.248047,0.17984 -0.58291,0.17984 -0.355534,0 -0.580843,-0.19637 -0.225309,-0.19844 -0.270784,-0.55604 z m 1.52342,-1.33739 q 0,-0.32039 -0.171566,-0.50849 -0.169498,-0.1881 -0.409277,-0.1881 -0.248046,0 -0.432014,0.20257 -0.183968,0.20257 -0.183968,0.52503 0,0.28939 0.173633,0.47129 0.175699,0.17983 0.432014,0.17983 0.258382,0 0.423747,-0.17983 0.167431,-0.1819 0.167431,-0.5023 z"
         id="path9113" />
      <path
         d="m 76.967501,175.08356 q 0,-0.32453 0.163297,-0.5519 0.163298,-0.22738 0.473356,-0.22738 0.285254,0 0.471289,0.20464 0.188102,0.20257 0.188102,0.59738 0,0.38447 -0.190169,0.59324 -0.188103,0.20671 -0.465088,0.20671 -0.274918,0 -0.458886,-0.20464 -0.181901,-0.20464 -0.181901,-0.61805 z m 0.646988,-0.52296 q -0.138493,0 -0.23151,0.11989 -0.09095,0.11988 -0.09095,0.44028 0,0.29145 0.09302,0.41134 0.09302,0.11782 0.229443,0.11782 0.14056,0 0.23151,-0.11988 0.09302,-0.11989 0.09302,-0.43822 0,-0.29352 -0.09302,-0.41134 -0.09302,-0.11989 -0.23151,-0.11989 z m 0.0021,2.93728 1.657779,-3.1936 h 0.30179 l -1.651577,3.1936 z m 1.310513,-0.82269 q 0,-0.32659 0.163298,-0.5519 0.163297,-0.22738 0.475423,-0.22738 0.285253,0 0.471288,0.20464 0.188102,0.20257 0.188102,0.59738 0,0.38447 -0.190169,0.59325 -0.188102,0.2067 -0.467154,0.2067 -0.274919,0 -0.458887,-0.20464 -0.181901,-0.2067 -0.181901,-0.61805 z m 0.649056,-0.52296 q -0.14056,0 -0.233577,0.11989 -0.09095,0.11989 -0.09095,0.44028 0,0.28939 0.09302,0.40928 0.09302,0.11989 0.229443,0.11989 0.142627,0 0.233577,-0.11989 0.09302,-0.11989 0.09302,-0.43822 0,-0.29352 -0.09302,-0.41134 -0.09302,-0.11989 -0.23151,-0.11989 z"
         id="path9115" />
    </g>
    <g
       aria-label="66%"
       id="text3939-5-1-8-0"
       style="font-size:4.23333px;line-height:125%;font-family:Arial;-inkscape-font-specification:'Arial, Normal';text-align:center;letter-spacing:0px;word-spacing:0px;text-anchor:middle;fill:#747474;stroke-width:0.264583px">
      <path
         d="m 106.2081,175.20965 -0.37,0.0289 q -0.0496,-0.21911 -0.14056,-0.31833 -0.1509,-0.15916 -0.37207,-0.15916 -0.17777,0 -0.31213,0.0992 -0.1757,0.12815 -0.27698,0.37413 -0.10129,0.24598 -0.10542,0.70074 0.13436,-0.20464 0.32866,-0.30386 0.1943,-0.0992 0.40721,-0.0992 0.37207,0 0.63252,0.27492 0.26252,0.27285 0.26252,0.70693 0,0.28525 -0.12403,0.53123 -0.12195,0.24392 -0.33693,0.37414 -0.21497,0.13023 -0.48782,0.13023 -0.46509,0 -0.75861,-0.34107 -0.29352,-0.34313 -0.29352,-1.12861 0,-0.8785 0.32452,-1.27744 0.28319,-0.34727 0.76275,-0.34727 0.3576,0 0.58497,0.20051 0.22945,0.2005 0.27492,0.55397 z m -1.51928,1.30638 q 0,0.19223 0.0806,0.36793 0.0827,0.1757 0.22945,0.26872 0.14676,0.0909 0.30799,0.0909 0.23564,0 0.40514,-0.19017 0.1695,-0.19017 0.1695,-0.51676 0,-0.31419 -0.16743,-0.49403 -0.16744,-0.1819 -0.42168,-0.1819 -0.25218,0 -0.42788,0.1819 -0.1757,0.17984 -0.1757,0.47336 z"
         id="path9118" />
      <path
         d="m 108.56248,175.20965 -0.37,0.0289 q -0.0496,-0.21911 -0.14056,-0.31833 -0.1509,-0.15916 -0.37207,-0.15916 -0.17777,0 -0.31213,0.0992 -0.1757,0.12815 -0.27698,0.37413 -0.10129,0.24598 -0.10542,0.70074 0.13435,-0.20464 0.32866,-0.30386 0.1943,-0.0992 0.40721,-0.0992 0.37207,0 0.63252,0.27492 0.26251,0.27285 0.26251,0.70693 0,0.28525 -0.12402,0.53123 -0.12196,0.24392 -0.33693,0.37414 -0.21497,0.13023 -0.48783,0.13023 -0.46508,0 -0.75861,-0.34107 -0.29352,-0.34313 -0.29352,-1.12861 0,-0.8785 0.32453,-1.27744 0.28319,-0.34727 0.76274,-0.34727 0.3576,0 0.58498,0.20051 0.22944,0.2005 0.27492,0.55397 z m -1.51929,1.30638 q 0,0.19223 0.0806,0.36793 0.0827,0.1757 0.22944,0.26872 0.14676,0.0909 0.30799,0.0909 0.23565,0 0.40515,-0.19017 0.16949,-0.19017 0.16949,-0.51676 0,-0.31419 -0.16743,-0.49403 -0.16743,-0.1819 -0.42168,-0.1819 -0.25218,0 -0.42788,0.1819 -0.1757,0.17984 -0.1757,0.47336 z"
         id="path9120" />
      <path
         d="m 109.05651,175.19518 q 0,-0.32453 0.16329,-0.5519 0.1633,-0.22738 0.47336,-0.22738 0.28525,0 0.47129,0.20464 0.1881,0.20257 0.1881,0.59738 0,0.38447 -0.19017,0.59324 -0.1881,0.20671 -0.46509,0.20671 -0.27492,0 -0.45888,-0.20464 -0.1819,-0.20464 -0.1819,-0.61805 z m 0.64698,-0.52297 q -0.13849,0 -0.23151,0.11989 -0.091,0.11989 -0.091,0.44029 0,0.29145 0.093,0.41134 0.093,0.11782 0.22944,0.11782 0.14056,0 0.23151,-0.11989 0.093,-0.11989 0.093,-0.43821 0,-0.29352 -0.093,-0.41135 -0.093,-0.11989 -0.23151,-0.11989 z m 0.002,2.93729 1.65778,-3.1936 h 0.30179 l -1.65158,3.1936 z m 1.31051,-0.82269 q 0,-0.32659 0.1633,-0.5519 0.1633,-0.22738 0.47542,-0.22738 0.28526,0 0.47129,0.20464 0.1881,0.20257 0.1881,0.59738 0,0.38447 -0.19016,0.59324 -0.18811,0.20671 -0.46716,0.20671 -0.27492,0 -0.45889,-0.20464 -0.1819,-0.2067 -0.1819,-0.61805 z m 0.64906,-0.52296 q -0.14056,0 -0.23358,0.11989 -0.091,0.11989 -0.091,0.44028 0,0.28939 0.093,0.40928 0.093,0.11989 0.22944,0.11989 0.14263,0 0.23358,-0.11989 0.093,-0.11989 0.093,-0.43822 0,-0.29352 -0.093,-0.41134 -0.093,-0.11989 -0.23151,-0.11989 z"
         id="path9122" />
    </g>
    <g
       aria-label="87%"
       id="text3939-5-1-8-0-0"
       style="font-size:4.23333px;line-height:125%;font-family:Arial;-inkscape-font-specification:'Arial, Normal';text-align:center;letter-spacing:0px;word-spacing:0px;text-anchor:middle;fill:#747474;stroke-width:0.264583px">
      <path
         d="m 135.37323,175.74295 q -0.23151,-0.0848 -0.34313,-0.24184 -0.11162,-0.1571 -0.11162,-0.37621 0,-0.33073 0.23771,-0.55604 0.23771,-0.2253 0.63252,-0.2253 0.39688,0 0.63872,0.23151 0.24185,0.22944 0.24185,0.56017 0,0.21084 -0.11162,0.36793 -0.10956,0.15503 -0.33487,0.23978 0.27906,0.0909 0.42375,0.29352 0.14676,0.20258 0.14676,0.48369 0,0.38861 -0.27492,0.65319 -0.27492,0.26459 -0.72347,0.26459 -0.44855,0 -0.72347,-0.26459 -0.27492,-0.26665 -0.27492,-0.66352 0,-0.29559 0.14883,-0.49403 0.1509,-0.2005 0.42788,-0.27285 z m -0.0744,-0.63045 q 0,0.21497 0.13849,0.3514 0.13849,0.13642 0.35967,0.13642 0.21497,0 0.3514,-0.13435 0.13849,-0.13643 0.13849,-0.3328 0,-0.20464 -0.14263,-0.34313 -0.14056,-0.14056 -0.35139,-0.14056 -0.21291,0 -0.35347,0.13643 -0.14056,0.13642 -0.14056,0.32659 z m -0.11989,1.3994 q 0,0.15916 0.0744,0.30799 0.0765,0.14883 0.22531,0.23151 0.14883,0.0806 0.3204,0.0806 0.26665,0 0.44028,-0.17156 0.17363,-0.17157 0.17363,-0.43615 0,-0.26872 -0.17983,-0.44442 -0.17777,-0.1757 -0.44649,-0.1757 -0.26251,0 -0.43614,0.17363 -0.17157,0.17364 -0.17157,0.43409 z"
         id="path9125" />
      <path
         d="m 137.17984,174.75283 v -0.3576 h 1.96164 v 0.28939 q -0.28939,0.30799 -0.57465,0.81855 -0.28318,0.51057 -0.43821,1.05007 -0.11162,0.38034 -0.14263,0.83302 h -0.3824 q 0.006,-0.3576 0.14056,-0.86403 0.13435,-0.50643 0.38447,-0.97565 0.25218,-0.47129 0.53537,-0.79375 z"
         id="path9127" />
      <path
         d="m 139.57969,175.08356 q 0,-0.32453 0.1633,-0.5519 0.1633,-0.22738 0.47335,-0.22738 0.28526,0 0.47129,0.20464 0.1881,0.20257 0.1881,0.59738 0,0.38447 -0.19016,0.59324 -0.18811,0.20671 -0.46509,0.20671 -0.27492,0 -0.45889,-0.20464 -0.1819,-0.20464 -0.1819,-0.61805 z m 0.64699,-0.52296 q -0.13849,0 -0.23151,0.11989 -0.0909,0.11988 -0.0909,0.44028 0,0.29145 0.093,0.41134 0.093,0.11782 0.22944,0.11782 0.14056,0 0.23151,-0.11988 0.093,-0.11989 0.093,-0.43822 0,-0.29352 -0.093,-0.41134 -0.093,-0.11989 -0.23151,-0.11989 z m 0.002,2.93728 1.65778,-3.1936 h 0.30179 l -1.65158,3.1936 z m 1.31051,-0.82269 q 0,-0.32659 0.1633,-0.5519 0.16329,-0.22738 0.47542,-0.22738 0.28525,0 0.47129,0.20464 0.1881,0.20257 0.1881,0.59738 0,0.38447 -0.19017,0.59325 -0.1881,0.2067 -0.46715,0.2067 -0.27492,0 -0.45889,-0.20464 -0.1819,-0.2067 -0.1819,-0.61805 z m 0.64906,-0.52296 q -0.14056,0 -0.23358,0.11989 -0.0909,0.11989 -0.0909,0.44028 0,0.28939 0.093,0.40928 0.093,0.11989 0.22945,0.11989 0.14262,0 0.23358,-0.11989 0.093,-0.11989 0.093,-0.43822 0,-0.29352 -0.093,-0.41134 -0.093,-0.11989 -0.23151,-0.11989 z"
         id="path9129" />
    </g>
    <path
       style="fill:#000000;fill-opacity:1;fill-rule:evenodd;stroke:none;stroke-width:0.0264582px;stroke-linecap:butt;stroke-linejoin:miter;stroke-opacity:1"
       d="m 21.025701,164.26871 2.645834,-1.32292 v 2.64584 z"
       id="path4253"
       inkscape:transform-center-x="-1.3194387"
       inkscape:transform-center-y="-0.0026454025" />
    <path
       style="fill:#000000;fill-opacity:1;fill-rule:evenodd;stroke:none;stroke-width:0.0264582px;stroke-linecap:butt;stroke-linejoin:miter;stroke-opacity:1"
       d="m 20.986317,149.49358 2.645834,-1.32292 v 2.64584 z"
       id="path4253-5"
       inkscape:transform-center-x="-1.3194387"
       inkscape:transform-center-y="-0.0026454025" />
    <path
       style="fill:#000000;fill-opacity:1;fill-rule:evenodd;stroke:none;stroke-width:0.0264582px;stroke-linecap:butt;stroke-linejoin:miter;stroke-opacity:1"
       d="m 76.5882,172.20621 -1.32292,-2.64583 h 2.64584 z"
       id="path4253-5-4"
       inkscape:transform-center-x="0.076627299"
       inkscape:transform-center-y="-1.3389481" />
    <path
       style="fill:#000000;fill-opacity:1;fill-rule:evenodd;stroke:none;stroke-width:0.0264582px;stroke-linecap:butt;stroke-linejoin:miter;stroke-opacity:1"
       d="m 21.0257,103.41455 2.645834,-1.32292 v 2.64584 z"
       id="path4253-5-6"
       inkscape:transform-center-x="-1.3194387"
       inkscape:transform-center-y="-0.0026454025" />
    <g
       aria-label="8 000 €"
       id="text4272"
       style="font-size:4.93889px;line-height:125%;font-family:Arial;-inkscape-font-specification:'Arial, Normal';text-align:center;letter-spacing:0px;word-spacing:0px;text-anchor:middle;fill:#808080;stroke-width:0.264583px">
      <path
         d="m 26.880854,161.24768 q -0.270096,-0.0989 -0.40032,-0.28216 -0.130225,-0.18328 -0.130225,-0.4389 0,-0.38585 0.27733,-0.64872 0.277331,-0.26286 0.73794,-0.26286 0.463021,0 0.745174,0.2701 0.282154,0.26768 0.282154,0.65353 0,0.24598 -0.130225,0.42926 -0.127813,0.18087 -0.390674,0.27975 0.325562,0.1061 0.494371,0.34244 0.171222,0.23633 0.171222,0.5643 0,0.45338 -0.320739,0.76206 -0.320738,0.30868 -0.844048,0.30868 -0.523311,0 -0.844049,-0.30868 -0.320738,-0.31109 -0.320738,-0.77411 0,-0.34486 0.173632,-0.57637 0.176045,-0.23392 0.499195,-0.31832 z m -0.08682,-0.73553 q 0,0.2508 0.161575,0.40996 0.161575,0.15917 0.419613,0.15917 0.250803,0 0.409967,-0.15675 0.161575,-0.15917 0.161575,-0.38827 0,-0.23874 -0.166399,-0.40032 -0.163986,-0.16398 -0.409966,-0.16398 -0.248391,0 -0.412378,0.15916 -0.163987,0.15916 -0.163987,0.38103 z m -0.13987,1.63263 q 0,0.18569 0.08682,0.35932 0.08923,0.17363 0.262861,0.2701 0.173633,0.094 0.373793,0.094 0.311092,0 0.513664,-0.20016 0.202571,-0.20016 0.202571,-0.50884 0,-0.31351 -0.209806,-0.51849 -0.207395,-0.20498 -0.520899,-0.20498 -0.306269,0 -0.50884,0.20257 -0.20016,0.20257 -0.20016,0.50643 z"
         id="path9132" />
      <path
         d="m 30.331807,161.42131 q 0,-0.62701 0.127813,-1.00804 0.130224,-0.38344 0.383439,-0.59083 0.255626,-0.2074 0.641477,-0.2074 0.284565,0 0.499194,0.11576 0.21463,0.11334 0.354501,0.33038 0.139871,0.21463 0.219452,0.52573 0.07958,0.30868 0.07958,0.8344 0,0.62218 -0.127813,1.00562 -0.127813,0.38103 -0.383439,0.59084 -0.253215,0.20739 -0.641477,0.20739 -0.511252,0 -0.803052,-0.36656 -0.349677,-0.44131 -0.349677,-1.43729 z m 0.44614,0 q 0,0.87057 0.202571,1.15996 0.204984,0.28698 0.504018,0.28698 0.299034,0 0.501606,-0.28939 0.204983,-0.28939 0.204983,-1.15755 0,-0.87299 -0.204983,-1.15997 -0.202572,-0.28697 -0.506429,-0.28697 -0.299035,0 -0.477491,0.25321 -0.224275,0.32315 -0.224275,1.19373 z"
         id="path9134" />
      <path
         d="m 33.078582,161.42131 q 0,-0.62701 0.127813,-1.00804 0.130225,-0.38344 0.383439,-0.59083 0.255626,-0.2074 0.641477,-0.2074 0.284565,0 0.499195,0.11576 0.214629,0.11334 0.3545,0.33038 0.139871,0.21463 0.219453,0.52573 0.07958,0.30868 0.07958,0.8344 0,0.62218 -0.127813,1.00562 -0.127813,0.38103 -0.383439,0.59084 -0.253215,0.20739 -0.641477,0.20739 -0.511252,0 -0.803052,-0.36656 -0.349677,-0.44131 -0.349677,-1.43729 z m 0.44614,0 q 0,0.87057 0.202572,1.15996 0.204983,0.28698 0.504017,0.28698 0.299034,0 0.501606,-0.28939 0.204983,-0.28939 0.204983,-1.15755 0,-0.87299 -0.204983,-1.15997 -0.202572,-0.28697 -0.506429,-0.28697 -0.299034,0 -0.47749,0.25321 -0.224276,0.32315 -0.224276,1.19373 z"
         id="path9136" />
      <path
         d="m 35.825357,161.42131 q 0,-0.62701 0.127813,-1.00804 0.130224,-0.38344 0.383439,-0.59083 0.255626,-0.2074 0.641477,-0.2074 0.284565,0 0.499194,0.11576 0.21463,0.11334 0.354501,0.33038 0.139871,0.21463 0.219452,0.52573 0.07958,0.30868 0.07958,0.8344 0,0.62218 -0.127813,1.00562 -0.127813,0.38103 -0.383439,0.59084 -0.253215,0.20739 -0.641477,0.20739 -0.511253,0 -0.803052,-0.36656 -0.349677,-0.44131 -0.349677,-1.43729 z m 0.44614,0 q 0,0.87057 0.202571,1.15996 0.204983,0.28698 0.504018,0.28698 0.299034,0 0.501606,-0.28939 0.204983,-0.28939 0.204983,-1.15755 0,-0.87299 -0.204983,-1.15997 -0.202572,-0.28697 -0.506429,-0.28697 -0.299035,0 -0.477491,0.25321 -0.224275,0.32315 -0.224275,1.19373 z"
         id="path9138" />
      <path
         d="m 41.644469,159.96954 q -0.405143,0 -0.680062,0.19534 -0.163987,0.11576 -0.296623,0.32797 -0.135047,0.21946 -0.159163,0.41721 h 1.644689 l -0.06511,0.32315 h -1.618161 q -0.0024,0.0506 -0.0024,0.0965 0,0.18569 0.0024,0.22186 h 1.553049 l -0.06752,0.32315 h -1.434882 q 0.101286,0.55225 0.487136,0.78376 0.277331,0.1664 0.600481,0.1664 0.450963,0 0.704177,-0.23633 v 0.49678 q -0.301446,0.13987 -0.665592,0.13987 -1.090029,0 -1.473468,-0.90675 -0.07717,-0.18328 -0.132636,-0.44373 h -0.36897 l 0.06752,-0.32315 h 0.253214 q -0.0072,-0.10128 -0.0072,-0.21945 0,-0.0482 0.0024,-0.0989 h -0.315915 l 0.06752,-0.32315 h 0.279742 q 0.149517,-0.78618 0.778936,-1.12862 0.388262,-0.21222 0.856106,-0.21222 0.448552,0 0.754821,0.19534 l -0.09646,0.44855 q -0.294211,-0.24357 -0.668004,-0.24357 z"
         id="path9140" />
    </g>
    <g
       aria-label="30 000 €"
       id="text4272-0"
       style="font-size:4.93889px;line-height:125%;font-family:Arial;-inkscape-font-specification:'Arial, Normal';text-align:center;letter-spacing:0px;word-spacing:0px;text-anchor:middle;fill:#808080;stroke-width:0.264583px">
      <path
         d="m 25.435719,147.15419 0.434082,-0.0579 q 0.07476,0.36897 0.253215,0.53296 0.180867,0.16157 0.438905,0.16157 0.306269,0 0.516075,-0.21222 0.212218,-0.21222 0.212218,-0.52572 0,-0.29903 -0.195337,-0.49196 -0.195337,-0.19534 -0.496783,-0.19534 -0.122989,0 -0.306269,0.0482 l 0.04823,-0.38103 q 0.04341,0.005 0.06993,0.005 0.27733,0 0.499195,-0.14469 0.221864,-0.1447 0.221864,-0.44614 0,-0.23875 -0.161575,-0.3955 -0.161575,-0.15675 -0.417201,-0.15675 -0.253215,0 -0.422025,0.15916 -0.168809,0.15917 -0.217041,0.47749 l -0.434082,-0.0772 q 0.07958,-0.43649 0.361735,-0.67524 0.282154,-0.24115 0.701766,-0.24115 0.289389,0 0.532957,0.1254 0.243568,0.12299 0.371381,0.33762 0.130225,0.21463 0.130225,0.45578 0,0.2291 -0.12299,0.4172 -0.12299,0.18811 -0.364147,0.29904 0.313504,0.0724 0.487137,0.30144 0.173633,0.22669 0.173633,0.56913 0,0.46303 -0.33762,0.78618 -0.337619,0.32073 -0.853695,0.32073 -0.465432,0 -0.774113,-0.27733 -0.306269,-0.27733 -0.349677,-0.71864 z"
         id="path9143" />
      <path
         d="m 28.180083,146.3439 q 0,-0.62701 0.127813,-1.00803 0.130224,-0.38344 0.383439,-0.59084 0.255626,-0.20739 0.641477,-0.20739 0.284565,0 0.499194,0.11575 0.21463,0.11335 0.354501,0.33039 0.139871,0.21463 0.219452,0.52572 0.07958,0.30868 0.07958,0.8344 0,0.62218 -0.127813,1.00562 -0.127813,0.38103 -0.383439,0.59084 -0.253215,0.20739 -0.641477,0.20739 -0.511252,0 -0.803052,-0.36656 -0.349677,-0.44131 -0.349677,-1.43729 z m 0.44614,0 q 0,0.87058 0.202571,1.15996 0.204983,0.28698 0.504018,0.28698 0.299034,0 0.501606,-0.28939 0.204983,-0.28939 0.204983,-1.15755 0,-0.87299 -0.204983,-1.15996 -0.202572,-0.28698 -0.506429,-0.28698 -0.299035,0 -0.477491,0.25321 -0.224275,0.32315 -0.224275,1.19373 z"
         id="path9145" />
      <path
         d="m 32.29904,146.3439 q 0,-0.62701 0.127813,-1.00803 0.130224,-0.38344 0.383439,-0.59084 0.255626,-0.20739 0.641477,-0.20739 0.284565,0 0.499194,0.11575 0.21463,0.11335 0.354501,0.33039 0.139871,0.21463 0.219452,0.52572 0.07958,0.30868 0.07958,0.8344 0,0.62218 -0.127813,1.00562 -0.127813,0.38103 -0.383439,0.59084 -0.253215,0.20739 -0.641477,0.20739 -0.511252,0 -0.803052,-0.36656 -0.349677,-0.44131 -0.349677,-1.43729 z m 0.44614,0 q 0,0.87058 0.202571,1.15996 0.204983,0.28698 0.504018,0.28698 0.299034,0 0.501606,-0.28939 0.204983,-0.28939 0.204983,-1.15755 0,-0.87299 -0.204983,-1.15996 -0.202572,-0.28698 -0.506429,-0.28698 -0.299035,0 -0.477491,0.25321 -0.224275,0.32315 -0.224275,1.19373 z"
         id="path9147" />
      <path
         d="m 35.045814,146.3439 q 0,-0.62701 0.127813,-1.00803 0.130225,-0.38344 0.38344,-0.59084 0.255626,-0.20739 0.641477,-0.20739 0.284564,0 0.499194,0.11575 0.214629,0.11335 0.3545,0.33039 0.139871,0.21463 0.219453,0.52572 0.07958,0.30868 0.07958,0.8344 0,0.62218 -0.127813,1.00562 -0.127813,0.38103 -0.38344,0.59084 -0.253214,0.20739 -0.641476,0.20739 -0.511253,0 -0.803052,-0.36656 -0.349678,-0.44131 -0.349678,-1.43729 z m 0.44614,0 q 0,0.87058 0.202572,1.15996 0.204983,0.28698 0.504018,0.28698 0.299034,0 0.501606,-0.28939 0.204983,-0.28939 0.204983,-1.15755 0,-0.87299 -0.204983,-1.15996 -0.202572,-0.28698 -0.50643,-0.28698 -0.299034,0 -0.47749,0.25321 -0.224276,0.32315 -0.224276,1.19373 z"
         id="path9149" />
      <path
         d="m 37.79259,146.3439 q 0,-0.62701 0.127813,-1.00803 0.130225,-0.38344 0.383439,-0.59084 0.255626,-0.20739 0.641477,-0.20739 0.284565,0 0.499195,0.11575 0.214629,0.11335 0.3545,0.33039 0.139871,0.21463 0.219453,0.52572 0.07958,0.30868 0.07958,0.8344 0,0.62218 -0.127813,1.00562 -0.127813,0.38103 -0.383439,0.59084 -0.253215,0.20739 -0.641477,0.20739 -0.511252,0 -0.803052,-0.36656 -0.349677,-0.44131 -0.349677,-1.43729 z m 0.44614,0 q 0,0.87058 0.202572,1.15996 0.204983,0.28698 0.504017,0.28698 0.299034,0 0.501606,-0.28939 0.204983,-0.28939 0.204983,-1.15755 0,-0.87299 -0.204983,-1.15996 -0.202572,-0.28698 -0.506429,-0.28698 -0.299034,0 -0.47749,0.25321 -0.224276,0.32315 -0.224276,1.19373 z"
         id="path9151" />
      <path
         d="m 43.611701,144.89214 q -0.405143,0 -0.680062,0.19533 -0.163986,0.11576 -0.296622,0.32798 -0.135048,0.21945 -0.159164,0.4172 h 1.644689 l -0.06511,0.32315 h -1.618162 q -0.0024,0.0506 -0.0024,0.0965 0,0.18569 0.0024,0.22186 h 1.55305 l -0.06752,0.32315 h -1.434883 q 0.101286,0.55225 0.487137,0.78376 0.27733,0.1664 0.60048,0.1664 0.450963,0 0.704178,-0.23633 v 0.49678 q -0.301446,0.13987 -0.665593,0.13987 -1.090028,0 -1.473468,-0.90675 -0.07717,-0.18328 -0.132636,-0.44373 h -0.36897 l 0.06752,-0.32315 h 0.253215 q -0.0072,-0.10128 -0.0072,-0.21945 0,-0.0482 0.0024,-0.0989 h -0.315916 l 0.06752,-0.32315 h 0.279742 q 0.149517,-0.78617 0.778936,-1.12862 0.388263,-0.21221 0.856107,-0.21221 0.448551,0 0.75482,0.19533 l -0.09646,0.44855 q -0.294212,-0.24356 -0.668005,-0.24356 z"
         id="path9153" />
    </g>
    <g
       aria-label="100 000 €"
       id="text4272-0-3"
       style="font-size:4.93889px;line-height:125%;font-family:Arial;-inkscape-font-specification:'Arial, Normal';text-align:center;letter-spacing:0px;word-spacing:0px;text-anchor:middle;fill:#808080;stroke-width:0.264583px">
      <path
         d="m 27.75483,101.71853 h -0.434082 v -2.766069 q -0.156752,0.149517 -0.412378,0.299034 -0.253214,0.149518 -0.455786,0.224276 v -0.419613 q 0.364147,-0.171221 0.636654,-0.414789 0.272507,-0.243569 0.385851,-0.472667 h 0.279741 z"
         id="path9156" />
      <path
         d="m 28.866563,99.974966 q 0,-0.627008 0.127813,-1.008036 0.130225,-0.383439 0.383439,-0.590834 0.255626,-0.207394 0.641477,-0.207394 0.284565,0 0.499194,0.115755 0.21463,0.113343 0.354501,0.330385 0.139871,0.214629 0.219453,0.525721 0.07958,0.308681 0.07958,0.834403 0,0.622184 -0.127813,1.005624 -0.127813,0.38103 -0.383439,0.59083 -0.253215,0.2074 -0.641477,0.2074 -0.511252,0 -0.803052,-0.36656 -0.349677,-0.44132 -0.349677,-1.437294 z m 0.44614,0 q 0,0.870574 0.202571,1.159964 0.204984,0.28698 0.504018,0.28698 0.299034,0 0.501606,-0.28939 0.204983,-0.28939 0.204983,-1.157554 0,-0.872988 -0.204983,-1.159964 -0.202572,-0.286977 -0.506429,-0.286977 -0.299034,0 -0.47749,0.253215 -0.224276,0.32315 -0.224276,1.193726 z"
         id="path9158" />
      <path
         d="m 31.613338,99.974966 q 0,-0.627008 0.127813,-1.008036 0.130225,-0.383439 0.383439,-0.590834 0.255626,-0.207394 0.641477,-0.207394 0.284565,0 0.499195,0.115755 0.214629,0.113343 0.3545,0.330385 0.139871,0.214629 0.219453,0.525721 0.07958,0.308681 0.07958,0.834403 0,0.622184 -0.127813,1.005624 -0.127813,0.38103 -0.383439,0.59083 -0.253214,0.2074 -0.641477,0.2074 -0.511252,0 -0.803052,-0.36656 -0.349677,-0.44132 -0.349677,-1.437294 z m 0.44614,0 q 0,0.870574 0.202572,1.159964 0.204983,0.28698 0.504017,0.28698 0.299035,0 0.501606,-0.28939 0.204983,-0.28939 0.204983,-1.157554 0,-0.872988 -0.204983,-1.159964 -0.202571,-0.286977 -0.506429,-0.286977 -0.299034,0 -0.47749,0.253215 -0.224276,0.32315 -0.224276,1.193726 z"
         id="path9160" />
      <path
         d="m 35.732295,99.974966 q 0,-0.627008 0.127813,-1.008036 0.130224,-0.383439 0.383439,-0.590834 0.255626,-0.207394 0.641477,-0.207394 0.284565,0 0.499194,0.115755 0.21463,0.113343 0.354501,0.330385 0.139871,0.214629 0.219452,0.525721 0.07958,0.308681 0.07958,0.834403 0,0.622184 -0.127813,1.005624 -0.127813,0.38103 -0.383439,0.59083 -0.253215,0.2074 -0.641477,0.2074 -0.511253,0 -0.803052,-0.36656 -0.349677,-0.44132 -0.349677,-1.437294 z m 0.44614,0 q 0,0.870574 0.202571,1.159964 0.204983,0.28698 0.504018,0.28698 0.299034,0 0.501606,-0.28939 0.204983,-0.28939 0.204983,-1.157554 0,-0.872988 -0.204983,-1.159964 -0.202572,-0.286977 -0.506429,-0.286977 -0.299035,0 -0.477491,0.253215 -0.224275,0.32315 -0.224275,1.193726 z"
         id="path9162" />
      <path
         d="m 38.47907,99.974966 q 0,-0.627008 0.127813,-1.008036 0.130225,-0.383439 0.383439,-0.590834 0.255627,-0.207394 0.641477,-0.207394 0.284565,0 0.499195,0.115755 0.214629,0.113343 0.3545,0.330385 0.139871,0.214629 0.219453,0.525721 0.07958,0.308681 0.07958,0.834403 0,0.622184 -0.127813,1.005624 -0.127814,0.38103 -0.38344,0.59083 -0.253214,0.2074 -0.641477,0.2074 -0.511252,0 -0.803052,-0.36656 -0.349677,-0.44132 -0.349677,-1.437294 z m 0.44614,0 q 0,0.870574 0.202572,1.159964 0.204983,0.28698 0.504017,0.28698 0.299035,0 0.501606,-0.28939 0.204984,-0.28939 0.204984,-1.157554 0,-0.872988 -0.204984,-1.159964 -0.202571,-0.286977 -0.506429,-0.286977 -0.299034,0 -0.47749,0.253215 -0.224276,0.32315 -0.224276,1.193726 z"
         id="path9164" />
      <path
         d="m 41.225846,99.974966 q 0,-0.627008 0.127813,-1.008036 0.130225,-0.383439 0.383439,-0.590834 0.255626,-0.207394 0.641477,-0.207394 0.284565,0 0.499194,0.115755 0.21463,0.113343 0.354501,0.330385 0.139871,0.214629 0.219452,0.525721 0.07958,0.308681 0.07958,0.834403 0,0.622184 -0.127813,1.005624 -0.127813,0.38103 -0.383439,0.59083 -0.253215,0.2074 -0.641477,0.2074 -0.511252,0 -0.803052,-0.36656 -0.349677,-0.44132 -0.349677,-1.437294 z m 0.44614,0 q 0,0.870574 0.202571,1.159964 0.204984,0.28698 0.504018,0.28698 0.299034,0 0.501606,-0.28939 0.204983,-0.28939 0.204983,-1.157554 0,-0.872988 -0.204983,-1.159964 -0.202572,-0.286977 -0.506429,-0.286977 -0.299034,0 -0.47749,0.253215 -0.224276,0.32315 -0.224276,1.193726 z"
         id="path9166" />
      <path
         d="m 47.044956,98.523202 q -0.405143,0 -0.680062,0.195337 -0.163986,0.115755 -0.296622,0.327973 -0.135048,0.219453 -0.159164,0.417201 h 1.644689 l -0.06511,0.32315 h -1.618162 q -0.0024,0.05064 -0.0024,0.09646 0,0.185694 0.0024,0.221864 h 1.553049 l -0.06752,0.32315 h -1.434883 q 0.101286,0.55225 0.487137,0.78376 0.27733,0.1664 0.60048,0.1664 0.450963,0 0.704178,-0.23634 v 0.49679 q -0.301446,0.13987 -0.665593,0.13987 -1.090028,0 -1.473468,-0.90675 -0.07717,-0.18328 -0.132636,-0.44373 h -0.36897 l 0.06752,-0.32315 h 0.253215 q -0.0072,-0.10129 -0.0072,-0.219452 0,-0.04823 0.0024,-0.09888 h -0.315916 l 0.06752,-0.32315 h 0.279742 q 0.149517,-0.786171 0.778936,-1.128613 0.388263,-0.212218 0.856107,-0.212218 0.448551,0 0.75482,0.195337 l -0.09646,0.448551 q -0.294212,-0.243568 -0.668005,-0.243568 z"
         id="path9168" />
    </g>
    <path
       style="fill:none;fill-rule:evenodd;stroke:#e24113;stroke-width:1;stroke-linecap:butt;stroke-linejoin:miter;stroke-dasharray:none;stroke-opacity:1"
       d="m 23.671534,169.56038 c 0,0 35.954601,-0.14094 52.916666,-5.29167 14.346202,-4.3564 28.82172,-10.83581 39.6875,-21.16666 11.1808,-10.63036 23.8125,-39.6875 23.8125,-39.6875"
       id="path4717"
       sodipodi:nodetypes="cssc" />
    <path
       style="fill:none;fill-rule:evenodd;stroke:#e24113;stroke-width:1;stroke-linecap:butt;stroke-linejoin:miter;stroke-dasharray:2, 2;stroke-dashoffset:0;stroke-opacity:1"
       d="m 140.0882,103.41455 c 8.61173,-21.524358 10.58333,-44.979166 10.58333,-44.979166"
       id="path4775"
       sodipodi:nodetypes="cc" />
    <g
       id="text8023"
       style="font-weight:bold;font-size:4.9389px;line-height:125%;font-family:Arial;-inkscape-font-specification:'Arial, Bold';text-align:center;letter-spacing:0px;word-spacing:0px;text-anchor:middle;stroke-width:0.264583px" />
  </g>
</svg>
